{
.appVersion = "1342";
DisplayStrings = (
noHOt
);
copyright = "Copyright 2016-2020 The GloryTSI Project Authors (https://github.com/googlefonts/glory)";
customParameters = (
{
name = licenseURL;
value = "https://scripts.sil.org/OFL";
},
{
name = license;
value = "This Font Software is licensed under the SIL Open Font License, Version 1.1. This license is available with a FAQ at: https://scripts.sil.org/OFL\012";
},
{
name = vendorID;
value = GOOG;
},
{
name = Axes;
value = (
{
Name = Weight;
Tag = wght;
}
);
},
{
name = fsType;
value = (
);
},
{
name = glyphOrder;
value = (
.notdef,
CR,
space,
nbspace,
a,
b,
c,
d,
e,
f,
g,
h,
i,
j,
k,
l,
m,
n,
o,
p,
q,
r,
s,
t,
u,
v,
w,
x,
y,
z,
A,
B,
C,
D,
E,
F,
G,
H,
I,
J,
K,
L,
M,
N,
O,
P,
Q,
R,
S,
T,
U,
V,
W,
X,
Y,
Z,
quotedbl,
numbersign,
dollar,
peseta,
euro,
sterling,
currency,
yen,
percent,
ampersand,
quotesingle,
parenleft,
parenright,
asterisk,
comma,
hyphen,
period,
slash,
colon,
semicolon,
question,
at,
bracketleft,
backslash,
bracketright,
asciicircum,
grave,
braceleft,
bar,
braceright,
asciitilde,
dagger,
degree,
cent,
section,
registered,
copyright,
trademark,
acute,
dieresis,
AE,
ae,
questiondown,
exclamdown,
guillemotleft,
guillemotright,
ellipsis,
OE,
oe,
endash,
emdash,
quotedblleft,
quotedblright,
quoteleft,
quoteright,
fraction,
daggerdbl,
perthousand,
apple,
dotlessi,
circumflex,
tilde,
macron,
breve,
ring,
cedilla,
ogonek,
exclam,
zero,
one,
two,
three,
four,
five,
six,
seven,
eight,
nine,
underscore,
brokenbar,
uni00AD,
zerosuperior,
onesuperior,
twosuperior,
threesuperior,
foursuperior,
fivesuperior,
sixsuperior,
sevensuperior,
eightsuperior,
ninesuperior,
mu,
paragraph,
periodcentered,
ordmasculine,
onequarter,
onehalf,
threequarters,
acutecomb,
dotbelowcomb,
gravecomb,
hookabovecomb,
tildecomb,
summation,
plus,
minus,
multiply,
divide,
equal,
plusminus,
logicalnot,
less,
greater,
notequal,
approxequal,
Aacute,
aacute,
Abreve,
abreve,
Acircumflex,
acircumflex,
Adieresis,
adieresis,
AEacute,
agrave,

glyphs = (
{
glyphname = a;
lastChange = "2021-03-17 00:25:09 +0000";
layers = (
{
background = {
hints = (
{
horizontal = 1;
place = "{6, 21}";
target = up;
type = BottomGhost;
},
{
horizontal = 1;
place = "{256, 30}";
type = Stem;
},
{
horizontal = 1;
place = "{448, 33}";
type = Stem;
},
{
place = "{17, 36}";
type = Stem;
},
{
place = "{358, 35}";
type = Stem;
},
{
horizontal = 1;
place = "{-6, 32}";
type = Stem;
}
);
paths = (
{
closed = 1;
nodes = (
"24 68 OFFCURVE",
"67 -6 OFFCURVE",
"192 -6 CURVE SMOOTH",
"244 -6 OFFCURVE",
"312 4 OFFCURVE",
"359 20 CURVE SMOOTH",
"371 24 OFFCURVE",
"373 31 OFFCURVE",
"374 37 CURVE SMOOTH",
"434 257 OFFCURVE",
"463 408 OFFCURVE",
"472 466 CURVE SMOOTH",
"472 468 OFFCURVE",
"470 470 OFFCURVE",
"468 470 CURVE SMOOTH",
"460 470 OFFCURVE",
"451 470 OFFCURVE",
"443 470 CURVE SMOOTH",
"441 470 OFFCURVE",
"439 468 OFFCURVE",
"439 466 CURVE SMOOTH",
"437 456 OFFCURVE",
"436 450 OFFCURVE",
"432 433 CURVE",
"411 450 OFFCURVE",
"353 472 OFFCURVE",
"301 472 CURVE SMOOTH",
"216 472 OFFCURVE",
"101 433 OFFCURVE",
"58 230 CURVE SMOOTH"
);
},
{
closed = 1;
nodes = (
"130 414 OFFCURVE",
"229 440 OFFCURVE",
"294 440 CURVE SMOOTH",
"327 440 OFFCURVE",
"387 425 OFFCURVE",
"412 407 CURVE SMOOTH",
"418 402 OFFCURVE",
"426 401 OFFCURVE",
"424 388 CURVE SMOOTH",
"419 354 OFFCURVE",
"375 153 OFFCURVE",
"349 63 CURVE",
"348 56 OFFCURVE",
"337 47 OFFCURVE",
"327 44 CURVE SMOOTH",
"313 40 OFFCURVE",
"249 23 OFFCURVE",
"207 23 CURVE SMOOTH",
"97 23 OFFCURVE",
"59 77 OFFCURVE",
"91 230 CURVE SMOOTH"
);
}
);
};
layerId = "707362F1-A677-446A-8636-E10BE3A7FAFF";
paths = (
{
closed = 1;
nodes = (
"24 68 OFFCURVE",
"67 -6 OFFCURVE",
"192 -6 CURVE SMOOTH",
"244 -6 OFFCURVE",
"312 4 OFFCURVE",
"359 20 CURVE SMOOTH",
"371 24 OFFCURVE",
"373 31 OFFCURVE",
"374 37 CURVE SMOOTH",
"434 257 OFFCURVE",
"463 408 OFFCURVE",
"472 466 CURVE SMOOTH",
"472 468 OFFCURVE",
"470 470 OFFCURVE",
"468 470 CURVE SMOOTH",
"460 470 OFFCURVE",
"451 470 OFFCURVE",
"443 470 CURVE SMOOTH",
"441 470 OFFCURVE",
"439 468 OFFCURVE",
"439 466 CURVE SMOOTH",
"437 456 OFFCURVE",
"436 450 OFFCURVE",
"432 433 CURVE",
"411 450 OFFCURVE",
"353 472 OFFCURVE",
"301 472 CURVE SMOOTH",
"216 472 OFFCURVE",
"101 433 OFFCURVE",
"58 230 CURVE SMOOTH"
);
},
{
closed = 1;
nodes = (
"130 414 OFFCURVE",
"229 440 OFFCURVE",
"294 440 CURVE SMOOTH",
"327 440 OFFCURVE",
"387 425 OFFCURVE",
"412 407 CURVE SMOOTH",
"418 402 OFFCURVE",
"426 401 OFFCURVE",
"424 388 CURVE SMOOTH",
"419 354 OFFCURVE",
"375 153 OFFCURVE",
"349 63 CURVE",
"348 56 OFFCURVE",
"337 47 OFFCURVE",
"327 44 CURVE SMOOTH",
"313 40 OFFCURVE",
"249 23 OFFCURVE",
"207 23 CURVE SMOOTH",
"97 23 OFFCURVE",
"59 77 OFFCURVE",
"91 230 CURVE SMOOTH"
);
}
);
width = 477;
},
{
background = {
paths = (
{
closed = 1;
nodes = (
"264 -7 OFFCURVE",
"375 1 OFFCURVE",
"414 20 CURVE SMOOTH",
"431 28 OFFCURVE",
"434 32 OFFCURVE",
"442 50 CURVE",
"467 130 OFFCURVE",
"484 210 OFFCURVE",
"501 290 CURVE SMOOTH",
"522 386 OFFCURVE",
"518 477 OFFCURVE",
"333 477 CURVE SMOOTH",
"273 477 OFFCURVE",
"209 460 OFFCURVE",
"171 439 CURVE SMOOTH",
"154 430 OFFCURVE",
"151 427 OFFCURVE",
"151 407 CURVE SMOOTH",
"148 345 LINE SMOOTH",
"147 328 OFFCURVE",
"149 326 OFFCURVE",
"168 334 CURVE SMOOTH",
"204 349 OFFCURVE",
"258 376 OFFCURVE",
"308 376 CURVE SMOOTH",
"352 376 OFFCURVE",
"378 362 OFFCURVE",
"370 322 CURVE SMOOTH",
"368 313 OFFCURVE",
"366 309 OFFCURVE",
"360 312 CURVE",
"339 315 OFFCURVE",
"318 316 OFFCURVE",
"294 316 CURVE SMOOTH",
"227 316 OFFCURVE",
"93 289 OFFCURVE",
"63 147 CURVE SMOOTH",
"35 18 OFFCURVE",
"126 -7 OFFCURVE",
"230 -7 CURVE SMOOTH"
);
},
{
closed = 1;
nodes = (
"212 80 OFFCURVE",
"199 110 OFFCURVE",
"207 147 CURVE SMOOTH",
"221 216 OFFCURVE",
"266 227 OFFCURVE",
"288 227 CURVE SMOOTH",
"295 227 OFFCURVE",
"320 228 OFFCURVE",
"330 218 CURVE SMOOTH",
"334 214 OFFCURVE",
"336 209 OFFCURVE",
"334 202 CURVE SMOOTH",
"329 169 OFFCURVE",
"318 135 OFFCURVE",
"310 104 CURVE SMOOTH",
"304 85 OFFCURVE",
"276 80 OFFCURVE",
"256 80 CURVE SMOOTH"
);
}
);
};
layerId = "D1BC8BBB-1669-4C46-BC21-42BF6808B2B9";
paths = (
{
closed = 1;
nodes = (
"4 67 OFFCURVE",
"67 -6 OFFCURVE",
"201 -6 CURVE SMOOTH",
"269 -6 OFFCURVE",
"334 9 OFFCURVE",
"359 18 CURVE SMOOTH",
"393 28 OFFCURVE",
"398 35 OFFCURVE",
"406 52 CURVE SMOOTH",
"427 90 OFFCURVE",
"453 201 OFFCURVE",
"467 263 CURVE SMOOTH",
"507 433 OFFCURVE",
"507 448 OFFCURVE",
"509 461 CURVE SMOOTH",
"510 471 OFFCURVE",
"503 472 OFFCURVE",
"492 472 CURVE SMOOTH",
"455 472 OFFCURVE",
"419 472 OFFCURVE",
"382 472 CURVE SMOOTH",
"369 472 OFFCURVE",
"363 472 OFFCURVE",
"361 455 CURVE",
"354 464 OFFCURVE",
"331 476 OFFCURVE",
"303 476 CURVE SMOOTH",
"205 476 OFFCURVE",
"87 431 OFFCURVE",
"41 229 CURVE SMOOTH"
);
},
{
closed = 1;
nodes = (
"216 339 OFFCURVE",
"258 354 OFFCURVE",
"286 354 CURVE SMOOTH",
"299 354 OFFCURVE",
"317 348 OFFCURVE",
"330 343 CURVE",
"335 342 OFFCURVE",
"335 340 OFFCURVE",
"334 332 CURVE",
"317 263 OFFCURVE",
"301 195 OFFCURVE",
"283 126 CURVE SMOOTH",
"281 119 OFFCURVE",
"280 117 OFFCURVE",
"277 114 CURVE",
"263 110 OFFCURVE",
"245 106 OFFCURVE",
"228 106 CURVE SMOOTH",
"190 106 OFFCURVE",
"169 135 OFFCURVE",
"191 228 CURVE SMOOTH"
);
}
);
width = 468;
}
);
note = a;
unicode = 0061;
},
{
glyphname = b;
lastChange = "2021-03-17 00:25:09 +0000";
layers = (
{
background = {
paths = (
{
closed = 1;
nodes = (
"353 -6 OFFCURVE",
"440 63 OFFCURVE",
"474 224 CURVE SMOOTH",
"517 427 OFFCURVE",
"426 476 OFFCURVE",
"342 476 CURVE SMOOTH",
"292 476 OFFCURVE",
"236 465 OFFCURVE",
"210 457 CURVE SMOOTH",
"197 452 OFFCURVE",
"193 459 OFFCURVE",
"196 472 CURVE SMOOTH",
"198 481 OFFCURVE",
"239 650 OFFCURVE",
"254 700 CURVE SMOOTH",
"254 702 OFFCURVE",
"257 708 OFFCURVE",
"250 708 CURVE SMOOTH",
"229 708 LINE SMOOTH",
"224 708 OFFCURVE",
"222 703 OFFCURVE",
"221 701 CURVE SMOOTH",
"182 565 OFFCURVE",
"148 417 OFFCURVE",
"123 287 CURVE SMOOTH",
"106 203 OFFCURVE",
"89 99 OFFCURVE",
"86 66 CURVE SMOOTH",
"82 24 OFFCURVE",
"82 24 OFFCURVE",
"107 14 CURVE SMOOTH",
"115 11 OFFCURVE",
"169 -6 OFFCURVE",
"236 -6 CURVE SMOOTH"
);
},
{
closed = 1;
nodes = (
"192 22 OFFCURVE",
"152 33 OFFCURVE",
"130 41 CURVE SMOOTH",
"122 45 OFFCURVE",
"117 50 OFFCURVE",
"119 65 CURVE SMOOTH",
"136 191 OFFCURVE",
"173 373 OFFCURVE",
"184 407 CURVE SMOOTH",
"188 420 OFFCURVE",
"198 425 OFFCURVE",
"206 426 CURVE SMOOTH",
"221 428 OFFCURVE",
"297 446 OFFCURVE",
"330 446 CURVE SMOOTH",
"399 446 OFFCURVE",
"481 411 OFFCURVE",
"442 228 CURVE SMOOTH",
"409 74 OFFCURVE",
"330 22 OFFCURVE",
"240 22 CURVE SMOOTH"
);
}
);
};
hints = (
{
horizontal = 1;
place = "{-112, 21}";
target = up;
type = BottomGhost;
},
{
horizontal = 1;
place = "{-6, 34}";
type = Stem;
},
{
horizontal = 1;
place = "{452, 30}";
type = Stem;
},
{
place = "{59, 34}";
type = Stem;
},
{
place = "{402, 34}";
type = Stem;
},
{
place = "{65, 34}";
type = Stem;
},
{
horizontal = 1;
place = "{-13, 34}";
type = Stem;
}
);
layerId = "707362F1-A677-446A-8636-E10BE3A7FAFF";
paths = (
{
closed = 1;
nodes = (
"353 -6 OFFCURVE",
"440 63 OFFCURVE",
"474 224 CURVE SMOOTH",
"517 427 OFFCURVE",
"426 476 OFFCURVE",
"342 476 CURVE SMOOTH",
"292 476 OFFCURVE",
"236 465 OFFCURVE",
"210 457 CURVE SMOOTH",
"197 452 OFFCURVE",
"193 459 OFFCURVE",
"196 472 CURVE SMOOTH",
"198 481 OFFCURVE",
"239 650 OFFCURVE",
"254 700 CURVE SMOOTH",
"254 702 OFFCURVE",
"257 708 OFFCURVE",
"250 708 CURVE SMOOTH",
"229 708 LINE SMOOTH",
"224 708 OFFCURVE",
"222 703 OFFCURVE",
"221 701 CURVE SMOOTH",
"182 565 OFFCURVE",
"148 417 OFFCURVE",
"123 287 CURVE SMOOTH",
"106 203 OFFCURVE",
"89 99 OFFCURVE",
"86 66 CURVE SMOOTH",
"82 24 OFFCURVE",
"82 24 OFFCURVE",
"107 14 CURVE SMOOTH",
"115 11 OFFCURVE",
"169 -6 OFFCURVE",
"236 -6 CURVE SMOOTH"
);
},
{
closed = 1;
nodes = (
"192 22 OFFCURVE",
"152 33 OFFCURVE",
"130 41 CURVE SMOOTH",
"122 45 OFFCURVE",
"117 50 OFFCURVE",
"119 65 CURVE SMOOTH",
"136 191 OFFCURVE",
"173 373 OFFCURVE",
"184 407 CURVE SMOOTH",
"188 420 OFFCURVE",
"198 425 OFFCURVE",
"206 426 CURVE SMOOTH",
"221 428 OFFCURVE",
"297 446 OFFCURVE",
"330 446 CURVE SMOOTH",
"399 446 OFFCURVE",
"481 411 OFFCURVE",
"442 228 CURVE SMOOTH",
"409 74 OFFCURVE",
"330 22 OFFCURVE",
"240 22 CURVE SMOOTH"
);
}
);
width = 475;
},
{
layerId = "D1BC8BBB-1669-4C46-BC21-42BF6808B2B9";
paths = (
{
closed = 1;
nodes = (
"378 -6 OFFCURVE",
"474 67 OFFCURVE",
"508 229 CURVE SMOOTH",
"551 431 OFFCURVE",
"454 476 OFFCURVE",
"356 476 CURVE SMOOTH",
"342 476 OFFCURVE",
"318 470 OFFCURVE",
"306 468 CURVE SMOOTH",
"299 467 OFFCURVE",
"291 466 OFFCURVE",
"294 477 CURVE SMOOTH",
"307 538 OFFCURVE",
"334 621 OFFCURVE",
"357 681 CURVE SMOOTH",
"365 704 OFFCURVE",
"370 708 OFFCURVE",
"347 708 CURVE SMOOTH",
"238 708 LINE SMOOTH",
"227 708 OFFCURVE",
"219 707 OFFCURVE",
"215 697 CURVE SMOOTH",
"177 590 OFFCURVE",
"133 433 OFFCURVE",
"97 263 CURVE SMOOTH",
"84 201 OFFCURVE",
"62 90 OFFCURVE",
"65 52 CURVE SMOOTH",
"66 35 OFFCURVE",
"68 28 OFFCURVE",
"98 18 CURVE SMOOTH",
"119 9 OFFCURVE",
"176 -6 OFFCURVE",
"246 -6 CURVE SMOOTH"
);
},
{
closed = 1;
nodes = (
"250 106 OFFCURVE",
"234 110 OFFCURVE",
"224 114 CURVE",
"221 117 OFFCURVE",
"221 119 OFFCURVE",
"222 126 CURVE SMOOTH",
"235 195 OFFCURVE",
"248 263 OFFCURVE",
"263 332 CURVE SMOOTH",
"265 340 OFFCURVE",
"266 342 OFFCURVE",
"271 343 CURVE SMOOTH",
"286 348 OFFCURVE",
"308 354 OFFCURVE",
"322 354 CURVE SMOOTH",
"349 354 OFFCURVE",
"382 339 OFFCURVE",
"359 228 CURVE SMOOTH",
"339 135 OFFCURVE",
"305 106 OFFCURVE",
"269 106 CURVE SMOOTH"
);
}
);
width = 498;
}
);
leftKerningGroup = b;
note = b;
rightKerningGroup = b;
unicode = 0062;
},
{
glyphname = c;
lastChange = "2021-03-17 00:25:09 +0000";
layers = (
{
background = {
paths = (
{
closed = 1;
nodes = (
"283 -5 OFFCURVE",
"328 4 OFFCURVE",
"362 24 CURVE",
"365 25 OFFCURVE",
"367 27 OFFCURVE",
"367 31 CURVE",
"361 47 LINE",
"361 50 OFFCURVE",
"358 50 OFFCURVE",
"354 48 CURVE",
"324 35 OFFCURVE",
"286 25 OFFCURVE",
"238 25 CURVE SMOOTH",
"118 25 OFFCURVE",
"97 109 OFFCURVE",
"124 236 CURVE SMOOTH",
"145 335 OFFCURVE",
"203 452 OFFCURVE",
"328 452 CURVE SMOOTH",
"371 452 OFFCURVE",
"416 438 OFFCURVE",
"433 413 CURVE SMOOTH",
"436 409 OFFCURVE",
"441 408 OFFCURVE",
"442 415 CURVE SMOOTH",
"447 438 LINE SMOOTH",
"449 445 OFFCURVE",
"449 445 OFFCURVE",
"445 450 CURVE SMOOTH",
"423 471 OFFCURVE",
"388 483 OFFCURVE",
"335 483 CURVE SMOOTH",
"184 483 OFFCURVE",
"119 365 OFFCURVE",
"91 237 CURVE SMOOTH",
"62 100 OFFCURVE",
"77 -5 OFFCURVE",
"232 -5 CURVE SMOOTH"
);
}
);
};
hints = (
{
horizontal = 1;
place = "{-4, 33}";
type = Stem;
},
{
horizontal = 1;
place = "{447, 33}";
type = Stem;
},
{
place = "{41, 34}";
type = Stem;
}
);
layerId = "707362F1-A677-446A-8636-E10BE3A7FAFF";
paths = (
{
closed = 1;
nodes = (
"283 -5 OFFCURVE",
"328 4 OFFCURVE",
"362 24 CURVE",
"365 25 OFFCURVE",
"367 27 OFFCURVE",
"367 31 CURVE",
"361 47 LINE",
"361 50 OFFCURVE",
"358 50 OFFCURVE",
"354 48 CURVE",
"324 35 OFFCURVE",
"286 25 OFFCURVE",
"238 25 CURVE SMOOTH",
"118 25 OFFCURVE",
"97 109 OFFCURVE",
"124 236 CURVE SMOOTH",
"145 335 OFFCURVE",
"203 452 OFFCURVE",
"328 452 CURVE SMOOTH",
"371 452 OFFCURVE",
"416 438 OFFCURVE",
"433 413 CURVE SMOOTH",
"436 409 OFFCURVE",
"441 408 OFFCURVE",
"442 415 CURVE SMOOTH",
"447 438 LINE SMOOTH",
"449 445 OFFCURVE",
"449 445 OFFCURVE",
"445 450 CURVE SMOOTH",
"423 471 OFFCURVE",
"388 483 OFFCURVE",
"335 483 CURVE SMOOTH",
"184 483 OFFCURVE",
"119 365 OFFCURVE",
"91 237 CURVE SMOOTH",
"62 100 OFFCURVE",
"77 -5 OFFCURVE",
"232 -5 CURVE SMOOTH"
);
}
);
width = 394;
},
{
layerId = "D1BC8BBB-1669-4C46-BC21-42BF6808B2B9";
paths = (
{
closed = 1;
nodes = (
"301 -5 OFFCURVE",
"365 7 OFFCURVE",
"406 34 CURVE SMOOTH",
"418 41 OFFCURVE",
"421 46 OFFCURVE",
"418 58 CURVE SMOOTH",
"405 122 LINE SMOOTH",
"402 135 OFFCURVE",
"393 137 OFFCURVE",
"379 131 CURVE SMOOTH",
"338 114 OFFCURVE",
"310 106 OFFCURVE",
"282 106 CURVE SMOOTH",
"232 106 OFFCURVE",
"210 153 OFFCURVE",
"227 236 CURVE SMOOTH",
"241 302 OFFCURVE",
"285 360 OFFCURVE",
"345 360 CURVE SMOOTH",
"385 360 OFFCURVE",
"420 355 OFFCURVE",
"450 326 CURVE SMOOTH",
"456 320 OFFCURVE",
"466 320 OFFCURVE",
"469 332 CURVE SMOOTH",
"486 415 LINE SMOOTH",
"488 425 OFFCURVE",
"487 428 OFFCURVE",
"478 439 CURVE",
"449 467 OFFCURVE",
"408 478 OFFCURVE",
"350 478 CURVE SMOOTH",
"177 478 OFFCURVE",
"108 360 OFFCURVE",
"81 237 CURVE SMOOTH",
"53 105 OFFCURVE",
"71 -5 OFFCURVE",
"248 -5 CURVE SMOOTH"
);
}
);
width = 433;
}
);
note = c;
unicode = 0063;
},
{
glyphname = d;
lastChange = "2021-03-17 00:25:09 +0000";
layers = (
{
background = {
paths = (
{
closed = 1;
nodes = (
"82 142 OFFCURVE",
"87 78 OFFCURVE",
"114 39 CURVE SMOOTH",
"139 4 OFFCURVE",
"190 -9 OFFCURVE",
"245 -10 CURVE SMOOTH",
"300 -10 OFFCURVE",
"359 2 OFFCURVE",
"399 18 CURVE SMOOTH",
"413 24 OFFCURVE",
"417 31 OFFCURVE",
"418 37 CURVE SMOOTH",
"478 257 OFFCURVE",
"523 480 OFFCURVE",
"560 704 CURVE SMOOTH",
"560 707 OFFCURVE",
"558 708 OFFCURVE",
"557 708 CURVE SMOOTH",
"531 708 LINE SMOOTH",
"529 708 OFFCURVE",
"526 707 OFFCURVE",
"526 704 CURVE",
"526 704 OFFCURVE",
"493 520 OFFCURVE",
"481 465 CURVE SMOOTH",
"478 452 OFFCURVE",
"475 454 OFFCURVE",
"457 459 CURVE SMOOTH",
"432 465 OFFCURVE",
"389 472 OFFCURVE",
"343 472 CURVE SMOOTH",
"258 472 OFFCURVE",
"144 433 OFFCURVE",
"101 230 CURVE SMOOTH"
);
},
{
closed = 1;
nodes = (
"173 414 OFFCURVE",
"272 440 OFFCURVE",
"337 440 CURVE SMOOTH",
"370 440 OFFCURVE",
"420 433 OFFCURVE",
"457 424 CURVE",
"465 421 OFFCURVE",
"472 415 OFFCURVE",
"469 401 CURVE SMOOTH",
"464 367 OFFCURVE",
"415 145 OFFCURVE",
"388 55 CURVE SMOOTH",
"386 48 OFFCURVE",
"378 45 OFFCURVE",
"368 40 CURVE SMOOTH",
"300 12 OFFCURVE",
"186 7 OFFCURVE",
"147 57 CURVE SMOOTH",
"122 88 OFFCURVE",
"116 144 OFFCURVE",
"134 230 CURVE SMOOTH"
);
}
);
};
hints = (
{
horizontal = 1;
place = "{-6, 31}";
type = Stem;
},
{
horizontal = 1;
place = "{6, 21}";
target = up;
type = BottomGhost;
},
{
horizontal = 1;
place = "{446, 35}";
type = Stem;
},
{
place = "{47, 35}";
type = Stem;
},
{
place = "{383, 35}";
type = Stem;
}
);
layerId = "707362F1-A677-446A-8636-E10BE3A7FAFF";
paths = (
{
closed = 1;
nodes = (
"82 142 OFFCURVE",
"87 78 OFFCURVE",
"114 39 CURVE SMOOTH",
"139 4 OFFCURVE",
"190 -9 OFFCURVE",
"245 -10 CURVE SMOOTH",
"300 -10 OFFCURVE",
"359 2 OFFCURVE",
"399 18 CURVE SMOOTH",
"413 24 OFFCURVE",
"417 31 OFFCURVE",
"418 37 CURVE SMOOTH",
"478 257 OFFCURVE",
"523 480 OFFCURVE",
"560 704 CURVE SMOOTH",
"560 707 OFFCURVE",
"558 708 OFFCURVE",
"557 708 CURVE SMOOTH",
"531 708 LINE SMOOTH",
"529 708 OFFCURVE",
"526 707 OFFCURVE",
"526 704 CURVE",
"526 704 OFFCURVE",
"493 520 OFFCURVE",
"481 465 CURVE SMOOTH",
"478 452 OFFCURVE",
"475 454 OFFCURVE",
"457 459 CURVE SMOOTH",
"432 465 OFFCURVE",
"389 472 OFFCURVE",
"343 472 CURVE SMOOTH",
"258 472 OFFCURVE",
"144 433 OFFCURVE",
"101 230 CURVE SMOOTH"
);
},
{
closed = 1;
nodes = (
"173 414 OFFCURVE",
"272 440 OFFCURVE",
"337 440 CURVE SMOOTH",
"370 440 OFFCURVE",
"420 433 OFFCURVE",
"457 424 CURVE",
"465 421 OFFCURVE",
"472 415 OFFCURVE",
"469 401 CURVE SMOOTH",
"464 367 OFFCURVE",
"415 145 OFFCURVE",
"388 55 CURVE SMOOTH",
"386 48 OFFCURVE",
"378 45 OFFCURVE",
"368 40 CURVE SMOOTH",
"300 12 OFFCURVE",
"186 7 OFFCURVE",
"147 57 CURVE SMOOTH",
"122 88 OFFCURVE",
"116 144 OFFCURVE",
"134 230 CURVE SMOOTH"
);
}
);
width = 477;
},
{
layerId = "D1BC8BBB-1669-4C46-BC21-42BF6808B2B9";
paths = (
{
closed = 1;
nodes = (
"62 130 OFFCURVE",
"77 64 OFFCURVE",
"122 28 CURVE SMOOTH",
"150 5 OFFCURVE",
"192 -6 OFFCURVE",
"244 -6 CURVE SMOOTH",
"313 -6 OFFCURVE",
"377 9 OFFCURVE",
"403 18 CURVE SMOOTH",
"437 28 OFFCURVE",
"442 35 OFFCURVE",
"450 52 CURVE SMOOTH",
"493 129 OFFCURVE",
"570 528 OFFCURVE",
"584 676 CURVE SMOOTH",
"585 686 OFFCURVE",
"578 687 OFFCURVE",
"567 687 CURVE SMOOTH",
"457 687 LINE SMOOTH",
"442 687 OFFCURVE",
"437 687 OFFCURVE",
"436 660 CURVE SMOOTH",
"429 599 OFFCURVE",
"425 538 OFFCURVE",
"411 477 CURVE SMOOTH",
"408 466 OFFCURVE",
"402 467 OFFCURVE",
"395 468 CURVE SMOOTH",
"383 470 OFFCURVE",
"361 476 OFFCURVE",
"346 476 CURVE SMOOTH",
"248 476 OFFCURVE",
"132 431 OFFCURVE",
"85 229 CURVE SMOOTH"
);
},
{
closed = 1;
nodes = (
"260 339 OFFCURVE",
"302 354 OFFCURVE",
"330 354 CURVE SMOOTH",
"343 354 OFFCURVE",
"361 348 OFFCURVE",
"374 343 CURVE SMOOTH",
"379 342 OFFCURVE",
"380 340 OFFCURVE",
"378 332 CURVE SMOOTH",
"362 263 OFFCURVE",
"345 195 OFFCURVE",
"327 126 CURVE SMOOTH",
"326 119 OFFCURVE",
"323 117 OFFCURVE",
"321 114 CURVE",
"307 110 OFFCURVE",
"290 106 OFFCURVE",
"272 106 CURVE SMOOTH",
"234 106 OFFCURVE",
"213 135 OFFCURVE",
"235 228 CURVE SMOOTH"
);
}
);
width = 505;
}
);
note = d;
unicode = 0064;
},
{
glyphname = e;
lastChange = "2021-03-17 00:25:09 +0000";
layers = (
{
background = {
paths = (
{
closed = 1;
nodes = (
"72 100 OFFCURVE",
"85 -5 OFFCURVE",
"242 -5 CURVE SMOOTH",
"308 -5 OFFCURVE",
"374 6 OFFCURVE",
"422 38 CURVE",
"427 40 OFFCURVE",
"427 42 OFFCURVE",
"427 45 CURVE SMOOTH",
"423 59 LINE SMOOTH",
"420 66 OFFCURVE",
"412 61 OFFCURVE",
"409 59 CURVE SMOOTH",
"362 33 OFFCURVE",
"296 25 OFFCURVE",
"248 25 CURVE SMOOTH",
"133 25 OFFCURVE",
"108 103 OFFCURVE",
"130 216 CURVE SMOOTH",
"133 229 OFFCURVE",
"142 229 OFFCURVE",
"144 229 CURVE SMOOTH",
"445 229 LINE SMOOTH",
"460 229 OFFCURVE",
"468 231 OFFCURVE",
"478 276 CURVE SMOOTH",
"499 374 OFFCURVE",
"501 483 OFFCURVE",
"345 483 CURVE SMOOTH",
"194 483 OFFCURVE",
"129 365 OFFCURVE",
"101 237 CURVE SMOOTH"
);
},
{
closed = 1;
nodes = (
"441 263 OFFCURVE",
"434 261 OFFCURVE",
"420 261 CURVE",
"331 261 OFFCURVE",
"242 261 OFFCURVE",
"153 261 CURVE SMOOTH",
"141 261 OFFCURVE",
"141 265 OFFCURVE",
"144 275 CURVE SMOOTH",
"163 349 OFFCURVE",
"220 452 OFFCURVE",
"338 452 CURVE SMOOTH",
"459 452 OFFCURVE",
"463 365 OFFCURVE",
"445 281 CURVE SMOOTH"
);
}
);
};
hints = (
{
horizontal = 1;
place = "{-4, 32}";
type = Stem;
},
{
horizontal = 1;
place = "{238, 29}";
type = Stem;
},
{
horizontal = 1;
place = "{453, 32}";
type = Stem;
},
{
place = "{51, 34}";
type = Stem;
},
{
place = "{385, 35}";
type = Stem;
}
);
layerId = "707362F1-A677-446A-8636-E10BE3A7FAFF";
paths = (
{
closed = 1;
nodes = (
"72 100 OFFCURVE",
"85 -5 OFFCURVE",
"242 -5 CURVE SMOOTH",
"308 -5 OFFCURVE",
"374 6 OFFCURVE",
"422 38 CURVE",
"427 40 OFFCURVE",
"427 42 OFFCURVE",
"427 45 CURVE SMOOTH",
"423 59 LINE SMOOTH",
"420 66 OFFCURVE",
"412 61 OFFCURVE",
"409 59 CURVE SMOOTH",
"362 33 OFFCURVE",
"296 25 OFFCURVE",
"248 25 CURVE SMOOTH",
"133 25 OFFCURVE",
"108 103 OFFCURVE",
"130 216 CURVE SMOOTH",
"133 229 OFFCURVE",
"142 229 OFFCURVE",
"144 229 CURVE SMOOTH",
"445 229 LINE SMOOTH",
"460 229 OFFCURVE",
"468 231 OFFCURVE",
"478 276 CURVE SMOOTH",
"499 374 OFFCURVE",
"501 483 OFFCURVE",
"345 483 CURVE SMOOTH",
"194 483 OFFCURVE",
"129 365 OFFCURVE",
"101 237 CURVE SMOOTH"
);
},
{
closed = 1;
nodes = (
"441 263 OFFCURVE",
"434 261 OFFCURVE",
"420 261 CURVE",
"331 261 OFFCURVE",
"242 261 OFFCURVE",
"153 261 CURVE SMOOTH",
"141 261 OFFCURVE",
"141 265 OFFCURVE",
"144 275 CURVE SMOOTH",
"163 349 OFFCURVE",
"220 452 OFFCURVE",
"338 452 CURVE SMOOTH",
"459 452 OFFCURVE",
"463 365 OFFCURVE",
"445 281 CURVE SMOOTH"
);
}
);
width = 463;
},
{
layerId = "D1BC8BBB-1669-4C46-BC21-42BF6808B2B9";
paths = (
{
closed = 1;
nodes = (
"58 105 OFFCURVE",
"75 -5 OFFCURVE",
"253 -5 CURVE SMOOTH",
"320 -5 OFFCURVE",
"399 8 OFFCURVE",
"453 41 CURVE SMOOTH",
"471 52 OFFCURVE",
"478 54 OFFCURVE",
"471 72 CURVE SMOOTH",
"457 119 LINE SMOOTH",
"450 143 OFFCURVE",
"442 137 OFFCURVE",
"421 126 CURVE SMOOTH",
"405 118 OFFCURVE",
"357 98 OFFCURVE",
"311 98 CURVE SMOOTH",
"250 98 OFFCURVE",
"222 138 OFFCURVE",
"228 186 CURVE",
"230 195 OFFCURVE",
"230 198 OFFCURVE",
"239 198 CURVE SMOOTH",
"454 198 LINE SMOOTH",
"482 198 OFFCURVE",
"500 214 OFFCURVE",
"512 271 CURVE SMOOTH",
"532 367 OFFCURVE",
"533 478 OFFCURVE",
"355 478 CURVE SMOOTH",
"182 478 OFFCURVE",
"113 360 OFFCURVE",
"86 237 CURVE SMOOTH"
);
},
{
closed = 1;
nodes = (
"366 277 OFFCURVE",
"366 275 OFFCURVE",
"357 275 CURVE SMOOTH",
"321 275 OFFCURVE",
"284 275 OFFCURVE",
"248 275 CURVE SMOOTH",
"242 275 OFFCURVE",
"241 278 OFFCURVE",
"248 300 CURVE SMOOTH",
"260 332 OFFCURVE",
"285 368 OFFCURVE",
"327 368 CURVE SMOOTH",
"364 368 OFFCURVE",
"379 345 OFFCURVE",
"369 295 CURVE SMOOTH"
);
}
);
width = 490;
}
);
note = e;
unicode = 0065;
},
{
glyphname = f;
lastChange = "2021-03-17 00:25:09 +0000";
layers = (
{
background = {
hints = (
{
horizontal = 1;
place = "{4, 21}";
target = up;
type = BottomGhost;
},
{
horizontal = 1;
place = "{254, 28}";
type = Stem;
},
{
horizontal = 1;
place = "{442, 30}";
type = Stem;
},
{
horizontal = 1;
place = "{682, 30}";
type = Stem;
},
{
place = "{59, 34}";
type = Stem;
},
{
place = "{146, 33}";
type = Stem;
},
{
place = "{400, 33}";
type = Stem;
},
{
horizontal = 1;
place = "{446, 31}";
type = Stem;
}
);
paths = (
{
closed = 1;
nodes = (
"50 -237 OFFCURVE",
"92 -179 OFFCURVE",
"111 -80 CURVE SMOOTH",
"143 92 OFFCURVE",
"179 288 OFFCURVE",
"204 406 CURVE SMOOTH",
"206 416 OFFCURVE",
"208 425 OFFCURVE",
"210 433 CURVE SMOOTH",
"211 439 OFFCURVE",
"216 442 OFFCURVE",
"219 442 CURVE SMOOTH",
"275 442 OFFCURVE",
"330 442 OFFCURVE",
"386 442 CURVE SMOOTH",
"387 442 OFFCURVE",
"390 446 OFFCURVE",
"390 446 CURVE",
"392 453 OFFCURVE",
"393 461 OFFCURVE",
"395 468 CURVE",
"395 470 OFFCURVE",
"394 472 OFFCURVE",
"393 472 CURVE SMOOTH",
"337 472 OFFCURVE",
"281 472 OFFCURVE",
"225 472 CURVE SMOOTH",
"219 472 OFFCURVE",
"218 476 OFFCURVE",
"219 481 CURVE SMOOTH",
"229 530 OFFCURVE",
"240 578 OFFCURVE",
"268 622 CURVE SMOOTH",
"295 664 OFFCURVE",
"338 681 OFFCURVE",
"409 681 CURVE SMOOTH",
"447 681 OFFCURVE",
"472 675 OFFCURVE",
"483 669 CURVE",
"486 668 OFFCURVE",
"488 668 OFFCURVE",
"488 670 CURVE",
"490 675 OFFCURVE",
"493 681 OFFCURVE",
"495 686 CURVE",
"495 687 OFFCURVE",
"498 689 OFFCURVE",
"494 691 CURVE SMOOTH",
"485 697 OFFCURVE",
"453 712 OFFCURVE",
"416 712 CURVE SMOOTH",
"344 712 OFFCURVE",
"288 691 OFFCURVE",
"251 650 CURVE SMOOTH",
"207 601 OFFCURVE",
"196 537 OFFCURVE",
"185 480 CURVE SMOOTH",
"184 473 OFFCURVE",
"181 472 OFFCURVE",
"176 472 CURVE SMOOTH",
"153 472 OFFCURVE",
"130 472 OFFCURVE",
"107 472 CURVE SMOOTH",
"105 472 OFFCURVE",
"102 468 OFFCURVE",
"102 468 CURVE",
"101 461 OFFCURVE",
"99 453 OFFCURVE",
"98 446 CURVE",
"98 446 OFFCURVE",
"98 442 OFFCURVE",
"100 442 CURVE SMOOTH",
"123 442 OFFCURVE",
"145 442 OFFCURVE",
"168 442 CURVE SMOOTH",
"174 442 OFFCURVE",
"176 438 OFFCURVE",
"176 433 CURVE",
"144 278 OFFCURVE",
"112 104 OFFCURVE",
"78 -80 CURVE SMOOTH",
"63 -153 OFFCURVE",
"28 -208 OFFCURVE",
"-48 -208 CURVE SMOOTH",
"-69 -208 OFFCURVE",
"-92 -203 OFFCURVE",
"-112 -195 CURVE",
"-117 -194 OFFCURVE",
"-118 -194 OFFCURVE",
"-119 -198 CURVE SMOOTH",
"-121 -205 OFFCURVE",
"-122 -211 OFFCURVE",
"-124 -218 CURVE",
"-125 -221 OFFCURVE",
"-125 -223 OFFCURVE",
"-123 -224 CURVE",
"-125 -224 OFFCURVE",
"-94 -237 OFFCURVE",
"-49 -237 CURVE SMOOTH"
);
}
);
};
layerId = "707362F1-A677-446A-8636-E10BE3A7FAFF";
paths = (
{
closed = 1;
nodes = (
"50 -237 OFFCURVE",
"92 -179 OFFCURVE",
"111 -80 CURVE SMOOTH",
"143 92 OFFCURVE",
"179 288 OFFCURVE",
"204 406 CURVE SMOOTH",
"206 416 OFFCURVE",
"208 425 OFFCURVE",
"210 433 CURVE SMOOTH",
"211 439 OFFCURVE",
"216 442 OFFCURVE",
"219 442 CURVE SMOOTH",
"275 442 OFFCURVE",
"330 442 OFFCURVE",
"386 442 CURVE SMOOTH",
"387 442 OFFCURVE",
"390 446 OFFCURVE",
"390 446 CURVE",
"392 453 OFFCURVE",
"393 461 OFFCURVE",
"395 468 CURVE",
"395 470 OFFCURVE",
"394 472 OFFCURVE",
"393 472 CURVE SMOOTH",
"337 472 OFFCURVE",
"281 472 OFFCURVE",
"225 472 CURVE SMOOTH",
"219 472 OFFCURVE",
"218 476 OFFCURVE",
"219 481 CURVE SMOOTH",
"229 530 OFFCURVE",
"240 578 OFFCURVE",
"268 622 CURVE SMOOTH",
"295 664 OFFCURVE",
"338 681 OFFCURVE",
"409 681 CURVE SMOOTH",
"447 681 OFFCURVE",
"472 675 OFFCURVE",
"483 669 CURVE",
"486 668 OFFCURVE",
"488 668 OFFCURVE",
"488 670 CURVE",
"490 675 OFFCURVE",
"493 681 OFFCURVE",
"495 686 CURVE",
"495 687 OFFCURVE",
"498 689 OFFCURVE",
"494 691 CURVE SMOOTH",
"485 697 OFFCURVE",
"453 712 OFFCURVE",
"416 712 CURVE SMOOTH",
"344 712 OFFCURVE",
"288 691 OFFCURVE",
"251 650 CURVE SMOOTH",
"207 601 OFFCURVE",
"196 537 OFFCURVE",
"185 480 CURVE SMOOTH",
"184 473 OFFCURVE",
"181 472 OFFCURVE",
"176 472 CURVE SMOOTH",
"153 472 OFFCURVE",
"130 472 OFFCURVE",
"107 472 CURVE SMOOTH",
"105 472 OFFCURVE",
"102 468 OFFCURVE",
"102 468 CURVE",
"101 461 OFFCURVE",
"99 453 OFFCURVE",
"98 446 CURVE",
"98 446 OFFCURVE",
"98 442 OFFCURVE",
"100 442 CURVE SMOOTH",
"123 442 OFFCURVE",
"145 442 OFFCURVE",
"168 442 CURVE SMOOTH",
"174 442 OFFCURVE",
"176 438 OFFCURVE",
"176 433 CURVE",
"144 278 OFFCURVE",
"112 104 OFFCURVE",
"78 -80 CURVE SMOOTH",
"63 -153 OFFCURVE",
"28 -208 OFFCURVE",
"-48 -208 CURVE SMOOTH",
"-69 -208 OFFCURVE",
"-92 -203 OFFCURVE",
"-112 -195 CURVE",
"-117 -194 OFFCURVE",
"-118 -194 OFFCURVE",
"-119 -198 CURVE SMOOTH",
"-121 -205 OFFCURVE",
"-122 -211 OFFCURVE",
"-124 -218 CURVE",
"-125 -221 OFFCURVE",
"-125 -223 OFFCURVE",
"-123 -224 CURVE",
"-125 -224 OFFCURVE",
"-94 -237 OFFCURVE",
"-49 -237 CURVE SMOOTH"
);
}
);
width = 397;
},
{
background = {
paths = (
{
closed = 1;
nodes = (
"125 -230 OFFCURVE",
"192 -157 OFFCURVE",
"215 -28 CURVE SMOOTH",
"247 159 OFFCURVE",
"257 242 OFFCURVE",
"280 345 CURVE SMOOTH",
"282 356 LINE SMOOTH",
"283 363 OFFCURVE",
"284 366 OFFCURVE",
"293 366 CURVE SMOOTH",
"330 366 OFFCURVE",
"368 366 OFFCURVE",
"405 366 CURVE SMOOTH",
"420 366 OFFCURVE",
"424 367 OFFCURVE",
"426 382 CURVE SMOOTH",
"431 406 OFFCURVE",
"436 429 OFFCURVE",
"441 453 CURVE SMOOTH",
"445 471 OFFCURVE",
"446 472 OFFCURVE",
"431 472 CURVE SMOOTH",
"392 472 OFFCURVE",
"354 472 OFFCURVE",
"315 472 CURVE SMOOTH",
"308 472 OFFCURVE",
"308 473 OFFCURVE",
"309 481 CURVE SMOOTH",
"311 491 OFFCURVE",
"314 501 OFFCURVE",
"316 511 CURVE SMOOTH",
"331 584 OFFCURVE",
"368 607 OFFCURVE",
"405 608 CURVE SMOOTH",
"436 609 OFFCURVE",
"466 596 OFFCURVE",
"484 583 CURVE SMOOTH",
"492 576 OFFCURVE",
"496 577 OFFCURVE",
"506 595 CURVE SMOOTH",
"517 616 OFFCURVE",
"529 637 OFFCURVE",
"540 658 CURVE SMOOTH",
"546 671 OFFCURVE",
"545 675 OFFCURVE",
"524 688 CURVE SMOOTH",
"512 695 OFFCURVE",
"476 712 OFFCURVE",
"434 712 CURVE SMOOTH",
"281 712 OFFCURVE",
"198 641 OFFCURVE",
"171 512 CURVE SMOOTH",
"169 503 OFFCURVE",
"167 493 OFFCURVE",
"165 484 CURVE SMOOTH",
"163 473 OFFCURVE",
"162 472 OFFCURVE",
"156 472 CURVE SMOOTH",
"143 472 OFFCURVE",
"131 472 OFFCURVE",
"118 472 CURVE SMOOTH",
"103 472 OFFCURVE",
"99 473 OFFCURVE",
"96 455 CURVE SMOOTH",
"90 430 OFFCURVE",
"85 406 OFFCURVE",
"79 381 CURVE SMOOTH",
"76 366 OFFCURVE",
"80 366 OFFCURVE",
"91 366 CURVE SMOOTH",
"104 366 OFFCURVE",
"117 366 OFFCURVE",
"130 366 CURVE SMOOTH",
"136 366 OFFCURVE",
"139 363 OFFCURVE",
"137 355 CURVE SMOOTH",
"116 227 OFFCURVE",
"94 98 OFFCURVE",
"73 -30 CURVE SMOOTH",
"52 -159 OFFCURVE",
"-58 -127 OFFCURVE",
"-76 -122 CURVE SMOOTH",
"-84 -119 OFFCURVE",
"-86 -117 OFFCURVE",
"-89 -129 CURVE SMOOTH",
"-94 -152 OFFCURVE",
"-99 -175 OFFCURVE",
"-104 -198 CURVE SMOOTH",
"-106 -204 OFFCURVE",
"-102 -210 OFFCURVE",
"-95 -215 CURVE SMOOTH",
"-81 -225 OFFCURVE",
"-51 -230 OFFCURVE",
"-30 -230 CURVE SMOOTH"
);
}
);
};
layerId = "D1BC8BBB-1669-4C46-BC21-42BF6808B2B9";
paths = (
{
closed = 1;
nodes = (
"125 -230 OFFCURVE",
"192 -157 OFFCURVE",
"215 -28 CURVE SMOOTH",
"246 145 OFFCURVE",
"246 178 OFFCURVE",
"270 296 CURVE SMOOTH",
"272 306 OFFCURVE",
"281 348 OFFCURVE",
"282 356 CURVE SMOOTH",
"283 362 OFFCURVE",
"290 366 OFFCURVE",
"293 366 CURVE SMOOTH",
"349 366 OFFCURVE",
"349 366 OFFCURVE",
"405 366 CURVE SMOOTH",
"420 366 OFFCURVE",
"424 367 OFFCURVE",
"426 382 CURVE",
"431 406 OFFCURVE",
"439 446 OFFCURVE",
"441 453 CURVE",
"445 471 OFFCURVE",
"441 472 OFFCURVE",
"431 472 CURVE SMOOTH",
"375 472 OFFCURVE",
"329 472 OFFCURVE",
"315 472 CURVE SMOOTH",
"309 472 OFFCURVE",
"308 476 OFFCURVE",
"309 481 CURVE SMOOTH",
"311 491 OFFCURVE",
"318 524 OFFCURVE",
"322 537 CURVE SMOOTH",
"337 583 OFFCURVE",
"368 608 OFFCURVE",
"405 608 CURVE SMOOTH",
"436 608 OFFCURVE",
"466 596 OFFCURVE",
"484 583 CURVE",
"492 576 OFFCURVE",
"496 577 OFFCURVE",
"506 595 CURVE",
"517 616 OFFCURVE",
"529 637 OFFCURVE",
"540 658 CURVE SMOOTH",
"546 670 OFFCURVE",
"545 676 OFFCURVE",
"529 685 CURVE SMOOTH",
"512 695 OFFCURVE",
"476 712 OFFCURVE",
"434 712 CURVE SMOOTH",
"335 712 OFFCURVE",
"271 681 OFFCURVE",
"234 640 CURVE SMOOTH",
"190 591 OFFCURVE",
"173 537 OFFCURVE",
"165 480 CURVE SMOOTH",
"164 473 OFFCURVE",
"161 472 OFFCURVE",
"156 472 CURVE SMOOTH",
"148 472 OFFCURVE",
"153 472 OFFCURVE",
"117 472 CURVE SMOOTH",
"103 472 OFFCURVE",
"99 473 OFFCURVE",
"96 455 CURVE",
"90 430 OFFCURVE",
"85 406 OFFCURVE",
"79 381 CURVE",
"76 366 OFFCURVE",
"82 366 OFFCURVE",
"91 366 CURVE SMOOTH",
"103 366 OFFCURVE",
"117 366 OFFCURVE",
"130 366 CURVE SMOOTH",
"136 366 OFFCURVE",
"139 363 OFFCURVE",
"137 355 CURVE",
"105 200 OFFCURVE",
"107 154 OFFCURVE",
"73 -30 CURVE SMOOTH",
"58 -103 OFFCURVE",
"22 -129 OFFCURVE",
"-24 -129 CURVE SMOOTH",
"-45 -129 OFFCURVE",
"-56 -130 OFFCURVE",
"-76 -122 CURVE",
"-84 -119 OFFCURVE",
"-86 -117 OFFCURVE",
"-89 -129 CURVE SMOOTH",
"-91 -136 OFFCURVE",
"-102 -191 OFFCURVE",
"-104 -198 CURVE",
"-106 -207 OFFCURVE",
"-104 -216 OFFCURVE",
"-97 -219 CURVE",
"-99 -219 OFFCURVE",
"-75 -230 OFFCURVE",
"-30 -230 CURVE SMOOTH"
);
}
);
width = 438;
}
);
note = f;
rightKerningGroup = f;
unicode = 0066;
},
{
glyphname = g;
lastChange = "2021-03-17 00:25:09 +0000";
layers = (
{
background = {
paths = (
{
closed = 1;
nodes = (
"95 104 OFFCURVE",
"127 9 OFFCURVE",
"264 9 CURVE SMOOTH",
"305 9 OFFCURVE",
"352 19 OFFCURVE",
"389 29 CURVE SMOOTH",
"400 32 OFFCURVE",
"409 35 OFFCURVE",
"406 26 CURVE SMOOTH",
"406 23 OFFCURVE",
"404 20 OFFCURVE",
"404 18 CURVE SMOOTH",
"368 -74 OFFCURVE",
"298 -112 OFFCURVE",
"225 -112 CURVE SMOOTH",
"170 -112 OFFCURVE",
"131 -93 OFFCURVE",
"97 -73 CURVE SMOOTH",
"95 -72 OFFCURVE",
"91 -71 OFFCURVE",
"89 -74 CURVE",
"85 -79 OFFCURVE",
"81 -85 OFFCURVE",
"77 -90 CURVE",
"75 -93 OFFCURVE",
"74 -94 OFFCURVE",
"81 -100 CURVE SMOOTH",
"114 -129 OFFCURVE",
"168 -140 OFFCURVE",
"213 -140 CURVE SMOOTH",
"327 -140 OFFCURVE",
"401 -91 OFFCURVE",
"438 22 CURVE SMOOTH",
"492 183 OFFCURVE",
"514 327 OFFCURVE",
"523 415 CURVE SMOOTH",
"526 439 OFFCURVE",
"522 450 OFFCURVE",
"511 454 CURVE SMOOTH",
"477 470 OFFCURVE",
"425 478 OFFCURVE",
"374 478 CURVE SMOOTH",
"220 478 OFFCURVE",
"155 374 OFFCURVE",
"126 242 CURVE SMOOTH"
);
},
{
closed = 1;
nodes = (
"185 364 OFFCURVE",
"246 448 OFFCURVE",
"370 448 CURVE SMOOTH",
"410 448 OFFCURVE",
"456 441 OFFCURVE",
"474 432 CURVE SMOOTH",
"491 423 OFFCURVE",
"489 407 OFFCURVE",
"488 397 CURVE SMOOTH",
"479 323 OFFCURVE",
"455 178 OFFCURVE",
"427 87 CURVE SMOOTH",
"424 76 OFFCURVE",
"408 64 OFFCURVE",
"388 57 CURVE SMOOTH",
"356 46 OFFCURVE",
"316 41 OFFCURVE",
"279 41 CURVE SMOOTH",
"156 41 OFFCURVE",
"134 123 OFFCURVE",
"159 242 CURVE SMOOTH"
);
}
);
};
hints = (
{
horizontal = 1;
place = "{-103, 58}";
type = Stem;
},
{
horizontal = 1;
place = "{35, 63}";
type = Stem;
},
{
horizontal = 1;
place = "{471, 60}";
type = Stem;
},
{
place = "{81, 63}";
type = Stem;
},
{
place = "{417, 64}";
type = Stem;
}
);
layerId = "707362F1-A677-446A-8636-E10BE3A7FAFF";
paths = (
{
closed = 1;
nodes = (
"95 104 OFFCURVE",
"127 9 OFFCURVE",
"264 9 CURVE SMOOTH",
"305 9 OFFCURVE",
"352 19 OFFCURVE",
"389 29 CURVE SMOOTH",
"400 32 OFFCURVE",
"409 35 OFFCURVE",
"406 26 CURVE SMOOTH",
"406 23 OFFCURVE",
"404 20 OFFCURVE",
"404 18 CURVE SMOOTH",
"368 -74 OFFCURVE",
"298 -112 OFFCURVE",
"225 -112 CURVE SMOOTH",
"170 -112 OFFCURVE",
"131 -93 OFFCURVE",
"97 -73 CURVE SMOOTH",
"95 -72 OFFCURVE",
"91 -71 OFFCURVE",
"89 -74 CURVE",
"85 -79 OFFCURVE",
"81 -85 OFFCURVE",
"77 -90 CURVE",
"75 -93 OFFCURVE",
"74 -94 OFFCURVE",
"81 -100 CURVE SMOOTH",
"114 -129 OFFCURVE",
"168 -140 OFFCURVE",
"213 -140 CURVE SMOOTH",
"327 -140 OFFCURVE",
"401 -91 OFFCURVE",
"438 22 CURVE SMOOTH",
"492 183 OFFCURVE",
"514 327 OFFCURVE",
"523 415 CURVE SMOOTH",
"526 439 OFFCURVE",
"522 450 OFFCURVE",
"511 454 CURVE SMOOTH",
"477 470 OFFCURVE",
"425 478 OFFCURVE",
"374 478 CURVE SMOOTH",
"220 478 OFFCURVE",
"155 374 OFFCURVE",
"126 242 CURVE SMOOTH"
);
},
{
closed = 1;
nodes = (
"185 364 OFFCURVE",
"246 448 OFFCURVE",
"370 448 CURVE SMOOTH",
"410 448 OFFCURVE",
"456 441 OFFCURVE",
"474 432 CURVE SMOOTH",
"491 423 OFFCURVE",
"489 407 OFFCURVE",
"488 397 CURVE SMOOTH",
"479 323 OFFCURVE",
"455 178 OFFCURVE",
"427 87 CURVE SMOOTH",
"424 76 OFFCURVE",
"408 64 OFFCURVE",
"388 57 CURVE SMOOTH",
"356 46 OFFCURVE",
"316 41 OFFCURVE",
"279 41 CURVE SMOOTH",
"156 41 OFFCURVE",
"134 123 OFFCURVE",
"159 242 CURVE SMOOTH"
);
}
);
width = 476;
},
{
background = {
paths = (
{
closed = 1;
nodes = (
"30 105 OFFCURVE",
"133 45 OFFCURVE",
"235 45 CURVE SMOOTH",
"250 45 OFFCURVE",
"267 46 OFFCURVE",
"274 47 CURVE SMOOTH",
"287 49 OFFCURVE",
"289 40 OFFCURVE",
"288 31 CURVE SMOOTH",
"288 29 OFFCURVE",
"288 28 OFFCURVE",
"287 27 CURVE SMOOTH",
"278 -35 OFFCURVE",
"181 -31 OFFCURVE",
"124 4 CURVE SMOOTH",
"103 17 OFFCURVE",
"90 24 OFFCURVE",
"79 6 CURVE SMOOTH",
"68 -12 OFFCURVE",
"58 -30 OFFCURVE",
"47 -48 CURVE SMOOTH",
"40 -59 OFFCURVE",
"43 -67 OFFCURVE",
"53 -75 CURVE SMOOTH",
"57 -78 OFFCURVE",
"61 -82 OFFCURVE",
"66 -85 CURVE SMOOTH",
"108 -115 OFFCURVE",
"172 -127 OFFCURVE",
"223 -127 CURVE SMOOTH",
"349 -127 OFFCURVE",
"425 -74 OFFCURVE",
"440 42 CURVE SMOOTH",
"454 153 OFFCURVE",
"454 281 OFFCURVE",
"441 394 CURVE SMOOTH",
"437 430 OFFCURVE",
"437 440 OFFCURVE",
"400 454 CURVE SMOOTH",
"360 469 OFFCURVE",
"306 478 OFFCURVE",
"253 478 CURVE SMOOTH",
"77 478 OFFCURVE",
"30 378 OFFCURVE",
"30 242 CURVE SMOOTH"
);
},
{
closed = 1;
nodes = (
"184 335 OFFCURVE",
"198 383 OFFCURVE",
"246 383 CURVE SMOOTH",
"267 383 OFFCURVE",
"276 380 OFFCURVE",
"287 375 CURVE SMOOTH",
"292 373 OFFCURVE",
"295 360 OFFCURVE",
"295 354 CURVE SMOOTH",
"297 328 OFFCURVE",
"300 221 OFFCURVE",
"297 176 CURVE SMOOTH",
"296 165 OFFCURVE",
"293 160 OFFCURVE",
"286 157 CURVE SMOOTH",
"275 152 OFFCURVE",
"261 151 OFFCURVE",
"246 151 CURVE SMOOTH",
"196 151 OFFCURVE",
"183 201 OFFCURVE",
"183 267 CURVE SMOOTH"
);
}
);
};
layerId = "D1BC8BBB-1669-4C46-BC21-42BF6808B2B9";
paths = (
{
closed = 1;
nodes = (
"79 105 OFFCURVE",
"170 45 OFFCURVE",
"272 45 CURVE SMOOTH",
"287 45 OFFCURVE",
"304 46 OFFCURVE",
"311 47 CURVE SMOOTH",
"324 49 OFFCURVE",
"324 40 OFFCURVE",
"322 31 CURVE SMOOTH",
"321 29 OFFCURVE",
"320 28 OFFCURVE",
"320 27 CURVE SMOOTH",
"304 -17 OFFCURVE",
"255 -21 OFFCURVE",
"232 -21 CURVE SMOOTH",
"209 -21 OFFCURVE",
"153 1 OFFCURVE",
"138 14 CURVE SMOOTH",
"124 25 OFFCURVE",
"122 24 OFFCURVE",
"107 6 CURVE SMOOTH",
"98 -5 OFFCURVE",
"72 -38 OFFCURVE",
"64 -48 CURVE SMOOTH",
"54 -59 OFFCURVE",
"60 -71 OFFCURVE",
"64 -75 CURVE SMOOTH",
"111 -115 OFFCURVE",
"172 -127 OFFCURVE",
"223 -127 CURVE SMOOTH",
"349 -127 OFFCURVE",
"436 -74 OFFCURVE",
"476 42 CURVE SMOOTH",
"514 153 OFFCURVE",
"541 281 OFFCURVE",
"552 394 CURVE SMOOTH",
"555 430 OFFCURVE",
"558 440 OFFCURVE",
"523 454 CURVE SMOOTH",
"487 469 OFFCURVE",
"435 478 OFFCURVE",
"382 478 CURVE SMOOTH",
"206 478 OFFCURVE",
"137 378 OFFCURVE",
"108 242 CURVE SMOOTH"
);
},
{
closed = 1;
nodes = (
"282 335 OFFCURVE",
"306 383 OFFCURVE",
"354 383 CURVE SMOOTH",
"375 383 OFFCURVE",
"384 380 OFFCURVE",
"394 375 CURVE SMOOTH",
"398 373 OFFCURVE",
"399 360 OFFCURVE",
"397 354 CURVE SMOOTH",
"394 328 OFFCURVE",
"374 221 OFFCURVE",
"361 176 CURVE SMOOTH",
"358 165 OFFCURVE",
"354 160 OFFCURVE",
"346 157 CURVE SMOOTH",
"334 152 OFFCURVE",
"320 151 OFFCURVE",
"305 151 CURVE SMOOTH",
"255 151 OFFCURVE",
"253 201 OFFCURVE",
"267 267 CURVE SMOOTH"
);
}
);
width = 488;
}
);
note = g;
unicode = 0067;
},
{
glyphname = h;
lastChange = "2021-03-17 00:25:09 +0000";
layers = (
{
background = {
paths = (
{
closed = 1;
nodes = (
"60 1 OFFCURVE",
"61 0 OFFCURVE",
"64 0 CURVE SMOOTH",
"89 0 LINE SMOOTH",
"92 0 OFFCURVE",
"93 1 OFFCURVE",
"94 4 CURVE SMOOTH",
"178 401 LINE SMOOTH",
"182 419 OFFCURVE",
"192 424 OFFCURVE",
"202 426 CURVE SMOOTH",
"242 435 OFFCURVE",
"292 444 OFFCURVE",
"325 444 CURVE SMOOTH",
"390 444 OFFCURVE",
"458 414 OFFCURVE",
"419 230 CURVE SMOOTH",
"403 157 OFFCURVE",
"383 74 OFFCURVE",
"362 7 CURVE SMOOTH",
"361 1 OFFCURVE",
"362 0 OFFCURVE",
"368 0 CURVE SMOOTH",
"373 0 OFFCURVE",
"379 0 OFFCURVE",
"384 0 CURVE SMOOTH",
"390 0 OFFCURVE",
"393 1 OFFCURVE",
"394 5 CURVE SMOOTH",
"414 70 OFFCURVE",
"436 156 OFFCURVE",
"452 230 CURVE SMOOTH",
"495 433 OFFCURVE",
"417 476 OFFCURVE",
"332 476 CURVE SMOOTH",
"286 476 OFFCURVE",
"243 465 OFFCURVE",
"201 454 CURVE SMOOTH",
"190 451 OFFCURVE",
"190 455 OFFCURVE",
"191 463 CURVE SMOOTH",
"208 543 OFFCURVE",
"226 624 OFFCURVE",
"243 704 CURVE SMOOTH",
"243 707 OFFCURVE",
"242 708 OFFCURVE",
"239 708 CURVE SMOOTH",
"231 708 OFFCURVE",
"222 708 OFFCURVE",
"214 708 CURVE SMOOTH",
"211 708 OFFCURVE",
"210 707 OFFCURVE",
"210 704 CURVE SMOOTH",
"160 471 OFFCURVE",
"110 237 OFFCURVE",
"61 4 CURVE SMOOTH"
);
}
);
};
hints = (
{
horizontal = 1;
place = "{4, 21}";
target = up;
type = BottomGhost;
},
{
horizontal = 1;
place = "{453, 30}";
type = Stem;
},
{
place = "{60, 33}";
type = Stem;
},
{
place = "{374, 33}";
type = Stem;
}
);
layerId = "707362F1-A677-446A-8636-E10BE3A7FAFF";
paths = (
{
closed = 1;
nodes = (
"60 1 OFFCURVE",
"61 0 OFFCURVE",
"64 0 CURVE SMOOTH",
"89 0 LINE SMOOTH",
"92 0 OFFCURVE",
"93 1 OFFCURVE",
"94 4 CURVE SMOOTH",
"178 401 LINE SMOOTH",
"182 419 OFFCURVE",
"192 424 OFFCURVE",
"202 426 CURVE SMOOTH",
"242 435 OFFCURVE",
"292 444 OFFCURVE",
"325 444 CURVE SMOOTH",
"390 444 OFFCURVE",
"458 414 OFFCURVE",
"419 230 CURVE SMOOTH",
"403 157 OFFCURVE",
"383 74 OFFCURVE",
"362 7 CURVE SMOOTH",
"361 1 OFFCURVE",
"362 0 OFFCURVE",
"368 0 CURVE SMOOTH",
"373 0 OFFCURVE",
"379 0 OFFCURVE",
"384 0 CURVE SMOOTH",
"390 0 OFFCURVE",
"393 1 OFFCURVE",
"394 5 CURVE SMOOTH",
"414 70 OFFCURVE",
"436 156 OFFCURVE",
"452 230 CURVE SMOOTH",
"495 433 OFFCURVE",
"417 476 OFFCURVE",
"332 476 CURVE SMOOTH",
"286 476 OFFCURVE",
"243 465 OFFCURVE",
"201 454 CURVE SMOOTH",
"190 451 OFFCURVE",
"190 455 OFFCURVE",
"191 463 CURVE SMOOTH",
"208 543 OFFCURVE",
"226 624 OFFCURVE",
"243 704 CURVE SMOOTH",
"243 707 OFFCURVE",
"242 708 OFFCURVE",
"239 708 CURVE SMOOTH",
"231 708 OFFCURVE",
"222 708 OFFCURVE",
"214 708 CURVE SMOOTH",
"211 708 OFFCURVE",
"210 707 OFFCURVE",
"210 704 CURVE SMOOTH",
"160 471 OFFCURVE",
"110 237 OFFCURVE",
"61 4 CURVE SMOOTH"
);
}
);
width = 458;
},
{
background = {
paths = (
{
closed = 1;
nodes = (
"40 6 OFFCURVE",
"46 0 OFFCURVE",
"56 0 CURVE SMOOTH",
"173 0 LINE SMOOTH",
"181 0 OFFCURVE",
"187 6 OFFCURVE",
"187 14 CURVE SMOOTH",
"187 347 LINE SMOOTH",
"187 367 OFFCURVE",
"204 372 OFFCURVE",
"220 372 CURVE SMOOTH",
"253 372 OFFCURVE",
"276 349 OFFCURVE",
"280 319 CURVE SMOOTH",
"292 229 OFFCURVE",
"284 119 OFFCURVE",
"274 27 CURVE",
"269 0 OFFCURVE",
"267 0 OFFCURVE",
"291 0 CURVE SMOOTH",
"327 0 OFFCURVE",
"363 0 OFFCURVE",
"399 0 CURVE SMOOTH",
"410 0 OFFCURVE",
"417 1 OFFCURVE",
"418 11 CURVE",
"435 99 OFFCURVE",
"450 303 OFFCURVE",
"412 383 CURVE SMOOTH",
"374 466 OFFCURVE",
"324 483 OFFCURVE",
"238 478 CURVE SMOOTH",
"216 477 OFFCURVE",
"206 473 OFFCURVE",
"200 471 CURVE SMOOTH",
"194 468 OFFCURVE",
"187 468 OFFCURVE",
"187 480 CURVE SMOOTH",
"187 551 OFFCURVE",
"187 623 OFFCURVE",
"187 694 CURVE SMOOTH",
"187 702 OFFCURVE",
"181 708 OFFCURVE",
"173 708 CURVE SMOOTH",
"134 708 OFFCURVE",
"95 708 OFFCURVE",
"56 708 CURVE SMOOTH",
"46 708 OFFCURVE",
"40 702 OFFCURVE",
"40 694 CURVE SMOOTH",
"40 467 OFFCURVE",
"40 241 OFFCURVE",
"40 14 CURVE SMOOTH"
);
}
);
};
layerId = "D1BC8BBB-1669-4C46-BC21-42BF6808B2B9";
paths = (
{
closed = 1;
nodes = (
"41 6 OFFCURVE",
"46 0 OFFCURVE",
"56 0 CURVE SMOOTH",
"173 0 LINE SMOOTH",
"181 0 OFFCURVE",
"188 6 OFFCURVE",
"190 14 CURVE SMOOTH",
"261 347 LINE SMOOTH",
"263 358 OFFCURVE",
"270 365 OFFCURVE",
"278 368 CURVE SMOOTH",
"285 371 OFFCURVE",
"292 372 OFFCURVE",
"299 372 CURVE SMOOTH",
"367 372 OFFCURVE",
"350 294 OFFCURVE",
"326 190 CURVE SMOOTH",
"313 135 OFFCURVE",
"297 78 OFFCURVE",
"280 27 CURVE",
"269 0 OFFCURVE",
"267 0 OFFCURVE",
"291 0 CURVE SMOOTH",
"327 0 OFFCURVE",
"363 0 OFFCURVE",
"399 0 CURVE SMOOTH",
"410 0 OFFCURVE",
"417 1 OFFCURVE",
"420 11 CURVE",
"442 65 OFFCURVE",
"473 163 OFFCURVE",
"488 249 CURVE SMOOTH",
"516 407 OFFCURVE",
"491 479 OFFCURVE",
"362 479 CURVE SMOOTH",
"340 479 OFFCURVE",
"307 473 OFFCURVE",
"300 471 CURVE SMOOTH",
"293 468 OFFCURVE",
"286 468 OFFCURVE",
"289 480 CURVE SMOOTH",
"304 551 OFFCURVE",
"319 623 OFFCURVE",
"335 694 CURVE SMOOTH",
"336 702 OFFCURVE",
"331 708 OFFCURVE",
"323 708 CURVE SMOOTH",
"284 708 OFFCURVE",
"245 708 OFFCURVE",
"206 708 CURVE SMOOTH",
"196 708 OFFCURVE",
"189 702 OFFCURVE",
"188 694 CURVE SMOOTH",
"139 467 OFFCURVE",
"91 241 OFFCURVE",
"43 14 CURVE SMOOTH"
);
}
);
width = 471;
}
);
leftKerningGroup = b;
note = h;
unicode = 0068;
},
{
glyphname = i;
lastChange = "2021-03-17 00:25:09 +0000";
layers = (
{
background = {
paths = (
{
closed = 1;
nodes = (
"276 617 OFFCURVE",
"276 624 OFFCURVE",
"256 624 CURVE SMOOTH",
"237 624 OFFCURVE",
"231 617 OFFCURVE",
"228 603 CURVE SMOOTH",
"225 588 OFFCURVE",
"228 582 OFFCURVE",
"247 582 CURVE SMOOTH",
"267 582 OFFCURVE",
"270 588 OFFCURVE",
"273 603 CURVE SMOOTH"
);
},
{
closed = 1;
nodes = (
"239 468 LINE SMOOTH",
"240 471 OFFCURVE",
"238 472 OFFCURVE",
"237 472 CURVE SMOOTH",
"211 472 LINE SMOOTH",
"208 472 OFFCURVE",
"207 471 OFFCURVE",
"206 468 CURVE SMOOTH",
"108 4 LINE SMOOTH",
"107 1 OFFCURVE",
"108 0 OFFCURVE",
"111 0 CURVE SMOOTH",
"137 0 LINE SMOOTH",
"138 0 OFFCURVE",
"140 1 OFFCURVE",
"141 4 CURVE SMOOTH"
);
}
);
};
hints = (
{
horizontal = 1;
place = "{4, 21}";
target = up;
type = BottomGhost;
},
{
horizontal = 1;
place = "{472, -20}";
target = down;
type = TopGhost;
},
{
horizontal = 1;
place = "{583, 40}";
type = Stem;
},
{
place = "{87, 33}";
type = Stem;
}
);
layerId = "707362F1-A677-446A-8636-E10BE3A7FAFF";
paths = (
{
closed = 1;
nodes = (
"276 617 OFFCURVE",
"276 624 OFFCURVE",
"256 624 CURVE SMOOTH",
"237 624 OFFCURVE",
"231 617 OFFCURVE",
"228 603 CURVE SMOOTH",
"225 588 OFFCURVE",
"228 582 OFFCURVE",
"247 582 CURVE SMOOTH",
"267 582 OFFCURVE",
"270 588 OFFCURVE",
"273 603 CURVE SMOOTH"
);
},
{
closed = 1;
nodes = (
"239 468 LINE SMOOTH",
"240 471 OFFCURVE",
"238 472 OFFCURVE",
"237 472 CURVE SMOOTH",
"211 472 LINE SMOOTH",
"208 472 OFFCURVE",
"207 471 OFFCURVE",
"206 468 CURVE SMOOTH",
"108 4 LINE SMOOTH",
"107 1 OFFCURVE",
"108 0 OFFCURVE",
"111 0 CURVE SMOOTH",
"137 0 LINE SMOOTH",
"138 0 OFFCURVE",
"140 1 OFFCURVE",
"141 4 CURVE SMOOTH"
);
}
);
width = 245;
},
{
layerId = "D1BC8BBB-1669-4C46-BC21-42BF6808B2B9";
paths = (
{
closed = 1;
nodes = (
"349 640 OFFCURVE",
"344 667 OFFCURVE",
"279 667 CURVE SMOOTH",
"220 667 OFFCURVE",
"196 640 OFFCURVE",
"188 601 CURVE SMOOTH",
"178 556 OFFCURVE",
"191 532 OFFCURVE",
"250 532 CURVE SMOOTH",
"311 532 OFFCURVE",
"331 556 OFFCURVE",
"341 601 CURVE SMOOTH"
);
},
{
closed = 1;
nodes = (
"307 458 LINE SMOOTH",
"309 466 OFFCURVE",
"303 472 OFFCURVE",
"295 472 CURVE SMOOTH",
"178 472 LINE SMOOTH",
"170 472 OFFCURVE",
"163 466 OFFCURVE",
"161 458 CURVE SMOOTH",
"67 14 LINE SMOOTH",
"65 6 OFFCURVE",
"70 0 OFFCURVE",
"78 0 CURVE SMOOTH",
"195 0 LINE SMOOTH",
"203 0 OFFCURVE",
"211 6 OFFCURVE",
"213 14 CURVE SMOOTH"
);
}
);
width = 273;
}
);
note = i;
unicode = 0069;
},
{
glyphname = j;
lastChange = "2021-03-17 00:25:09 +0000";
layers = (
{
background = {
paths = (
{
closed = 1;
nodes = (
"0 -77 OFFCURVE",
"17 -84 OFFCURVE",
"21 -85 CURVE SMOOTH",
"39 -91 OFFCURVE",
"65 -94 OFFCURVE",
"88 -94 CURVE SMOOTH",
"189 -94 OFFCURVE",
"228 -37 OFFCURVE",
"249 63 CURVE SMOOTH",
"335 468 LINE SMOOTH",
"336 471 OFFCURVE",
"333 472 OFFCURVE",
"332 472 CURVE SMOOTH",
"306 472 LINE SMOOTH",
"304 472 OFFCURVE",
"303 471 OFFCURVE",
"302 468 CURVE SMOOTH",
"216 63 LINE SMOOTH",
"199 -21 OFFCURVE",
"172 -65 OFFCURVE",
"90 -65 CURVE SMOOTH",
"68 -65 OFFCURVE",
"43 -60 OFFCURVE",
"25 -52 CURVE SMOOTH",
"21 -50 OFFCURVE",
"19 -51 OFFCURVE",
"16 -55 CURVE SMOOTH",
"7 -68 LINE SMOOTH"
);
},
{
closed = 1;
nodes = (
"373 617 OFFCURVE",
"372 624 OFFCURVE",
"352 624 CURVE SMOOTH",
"333 624 OFFCURVE",
"328 617 OFFCURVE",
"325 603 CURVE SMOOTH",
"322 588 OFFCURVE",
"324 582 OFFCURVE",
"343 582 CURVE SMOOTH",
"363 582 OFFCURVE",
"367 588 OFFCURVE",
"370 603 CURVE SMOOTH"
);
}
);
};
hints = (
{
horizontal = 1;
place = "{-74, 49}";
type = Stem;
},
{
horizontal = 1;
place = "{492, -20}";
target = down;
type = TopGhost;
},
{
horizontal = 1;
place = "{603, 60}";
type = Stem;
},
{
place = "{198, 61}";
type = Stem;
},
{
place = "{203, 53}";
type = Stem;
},
{
horizontal = 1;
place = "{-61, 49}";
type = Stem;
}
);
layerId = "707362F1-A677-446A-8636-E10BE3A7FAFF";
paths = (
{
closed = 1;
nodes = (
"0 -77 OFFCURVE",
"17 -84 OFFCURVE",
"21 -85 CURVE SMOOTH",
"39 -91 OFFCURVE",
"65 -94 OFFCURVE",
"88 -94 CURVE SMOOTH",
"189 -94 OFFCURVE",
"228 -37 OFFCURVE",
"249 63 CURVE SMOOTH",
"335 468 LINE SMOOTH",
"336 471 OFFCURVE",
"333 472 OFFCURVE",
"332 472 CURVE SMOOTH",
"306 472 LINE SMOOTH",
"304 472 OFFCURVE",
"303 471 OFFCURVE",
"302 468 CURVE SMOOTH",
"216 63 LINE SMOOTH",
"199 -21 OFFCURVE",
"172 -65 OFFCURVE",
"90 -65 CURVE SMOOTH",
"68 -65 OFFCURVE",
"43 -60 OFFCURVE",
"25 -52 CURVE SMOOTH",
"21 -50 OFFCURVE",
"19 -51 OFFCURVE",
"16 -55 CURVE SMOOTH",
"7 -68 LINE SMOOTH"
);
},
{
closed = 1;
nodes = (
"373 617 OFFCURVE",
"372 624 OFFCURVE",
"352 624 CURVE SMOOTH",
"333 624 OFFCURVE",
"328 617 OFFCURVE",
"325 603 CURVE SMOOTH",
"322 588 OFFCURVE",
"324 582 OFFCURVE",
"343 582 CURVE SMOOTH",
"363 582 OFFCURVE",
"367 588 OFFCURVE",
"370 603 CURVE SMOOTH"
);
}
);
width = 282;
},
{
layerId = "D1BC8BBB-1669-4C46-BC21-42BF6808B2B9";
paths = (
{
closed = 1;
nodes = (
"15 -44 OFFCURVE",
"16 -48 OFFCURVE",
"37 -63 CURVE SMOOTH",
"60 -78 OFFCURVE",
"97 -86 OFFCURVE",
"134 -86 CURVE SMOOTH",
"250 -86 OFFCURVE",
"302 -22 OFFCURVE",
"324 84 CURVE SMOOTH",
"404 458 LINE SMOOTH",
"405 466 OFFCURVE",
"400 472 OFFCURVE",
"392 472 CURVE SMOOTH",
"275 472 LINE SMOOTH",
"267 472 OFFCURVE",
"259 466 OFFCURVE",
"258 458 CURVE SMOOTH",
"178 84 LINE SMOOTH",
"169 40 OFFCURVE",
"137 14 OFFCURVE",
"116 12 CURVE SMOOTH",
"107 11 OFFCURVE",
"96 14 OFFCURVE",
"86 20 CURVE SMOOTH",
"77 25 OFFCURVE",
"70 29 OFFCURVE",
"62 18 CURVE SMOOTH",
"26 -31 LINE SMOOTH"
);
},
{
closed = 1;
nodes = (
"444 640 OFFCURVE",
"439 667 OFFCURVE",
"374 667 CURVE SMOOTH",
"315 667 OFFCURVE",
"291 640 OFFCURVE",
"283 601 CURVE SMOOTH",
"273 556 OFFCURVE",
"286 532 OFFCURVE",
"345 532 CURVE SMOOTH",
"406 532 OFFCURVE",
"426 556 OFFCURVE",
"436 601 CURVE SMOOTH"
);
}
);
width = 330;
}
);
note = j;
unicode = 006A;
},
{
glyphname = k;
lastChange = "2021-03-17 00:25:09 +0000";
layers = (
{
background = {
paths = (
{
closed = 1;
nodes = (
"60 1 OFFCURVE",
"61 0 OFFCURVE",
"64 0 CURVE SMOOTH",
"89 0 LINE SMOOTH",
"92 0 OFFCURVE",
"93 1 OFFCURVE",
"94 4 CURVE SMOOTH",
"144 240 LINE SMOOTH",
"145 243 OFFCURVE",
"148 247 OFFCURVE",
"152 247 CURVE SMOOTH",
"237 247 OFFCURVE",
"248 246 OFFCURVE",
"258 230 CURVE SMOOTH",
"304 164 OFFCURVE",
"328 7 OFFCURVE",
"328 7 CURVE",
"331 -1 OFFCURVE",
"331 0 OFFCURVE",
"336 0 CURVE SMOOTH",
"345 0 OFFCURVE",
"354 0 OFFCURVE",
"363 0 CURVE SMOOTH",
"368 0 OFFCURVE",
"369 4 OFFCURVE",
"368 8 CURVE SMOOTH",
"366 14 OFFCURVE",
"329 195 OFFCURVE",
"286 255 CURVE SMOOTH",
"285 257 OFFCURVE",
"282 260 OFFCURVE",
"281 262 CURVE",
"286 267 OFFCURVE",
"291 272 OFFCURVE",
"297 277 CURVE SMOOTH",
"371 351 OFFCURVE",
"445 466 OFFCURVE",
"445 466 CURVE",
"448 471 OFFCURVE",
"446 472 OFFCURVE",
"442 472 CURVE SMOOTH",
"416 472 LINE SMOOTH",
"412 472 OFFCURVE",
"410 471 OFFCURVE",
"407 465 CURVE",
"376 415 OFFCURVE",
"319 335 OFFCURVE",
"264 286 CURVE SMOOTH",
"251 275 OFFCURVE",
"247 275 OFFCURVE",
"234 275 CURVE SMOOTH",
"208 275 OFFCURVE",
"183 275 OFFCURVE",
"157 275 CURVE SMOOTH",
"152 275 OFFCURVE",
"152 278 OFFCURVE",
"153 281 CURVE SMOOTH",
"243 704 LINE SMOOTH",
"243 707 OFFCURVE",
"242 708 OFFCURVE",
"239 708 CURVE SMOOTH",
"214 708 LINE SMOOTH",
"211 708 OFFCURVE",
"210 707 OFFCURVE",
"210 704 CURVE SMOOTH",
"61 4 LINE SMOOTH"
);
}
);
};
hints = (
{
horizontal = 1;
place = "{4, 21}";
target = up;
type = BottomGhost;
},
{
horizontal = 1;
place = "{247, 28}";
type = Stem;
},
{
horizontal = 1;
place = "{472, -20}";
target = down;
type = TopGhost;
},
{
place = "{60, 33}";
type = Stem;
}
);
layerId = "707362F1-A677-446A-8636-E10BE3A7FAFF";
paths = (
{
closed = 1;
nodes = (
"60 1 OFFCURVE",
"61 0 OFFCURVE",
"64 0 CURVE SMOOTH",
"89 0 LINE SMOOTH",
"92 0 OFFCURVE",
"93 1 OFFCURVE",
"94 4 CURVE SMOOTH",
"144 240 LINE SMOOTH",
"145 243 OFFCURVE",
"148 247 OFFCURVE",
"152 247 CURVE SMOOTH",
"237 247 OFFCURVE",
"248 246 OFFCURVE",
"258 230 CURVE SMOOTH",
"304 164 OFFCURVE",
"328 7 OFFCURVE",
"328 7 CURVE",
"331 -1 OFFCURVE",
"331 0 OFFCURVE",
"336 0 CURVE SMOOTH",
"345 0 OFFCURVE",
"354 0 OFFCURVE",
"363 0 CURVE SMOOTH",
"368 0 OFFCURVE",
"369 4 OFFCURVE",
"368 8 CURVE SMOOTH",
"366 14 OFFCURVE",
"329 195 OFFCURVE",
"286 255 CURVE SMOOTH",
"285 257 OFFCURVE",
"282 260 OFFCURVE",
"281 262 CURVE",
"286 267 OFFCURVE",
"291 272 OFFCURVE",
"297 277 CURVE SMOOTH",
"371 351 OFFCURVE",
"445 466 OFFCURVE",
"445 466 CURVE",
"448 471 OFFCURVE",
"446 472 OFFCURVE",
"442 472 CURVE SMOOTH",
"416 472 LINE SMOOTH",
"412 472 OFFCURVE",
"410 471 OFFCURVE",
"407 465 CURVE",
"376 415 OFFCURVE",
"319 335 OFFCURVE",
"264 286 CURVE SMOOTH",
"251 275 OFFCURVE",
"247 275 OFFCURVE",
"234 275 CURVE SMOOTH",
"208 275 OFFCURVE",
"183 275 OFFCURVE",
"157 275 CURVE SMOOTH",
"152 275 OFFCURVE",
"152 278 OFFCURVE",
"153 281 CURVE SMOOTH",
"243 704 LINE SMOOTH",
"243 707 OFFCURVE",
"242 708 OFFCURVE",
"239 708 CURVE SMOOTH",
"214 708 LINE SMOOTH",
"211 708 OFFCURVE",
"210 707 OFFCURVE",
"210 704 CURVE SMOOTH",
"61 4 LINE SMOOTH"
);
}
);
width = 402;
},
{
background = {
paths = (
{
closed = 1;
nodes = (
"40 6 OFFCURVE",
"46 0 OFFCURVE",
"56 0 CURVE SMOOTH",
"173 0 LINE SMOOTH",
"181 0 OFFCURVE",
"187 6 OFFCURVE",
"187 14 CURVE SMOOTH",
"187 190 LINE SMOOTH",
"187 195 OFFCURVE",
"188 199 OFFCURVE",
"189 201 CURVE SMOOTH",
"192 207 OFFCURVE",
"197 205 OFFCURVE",
"203 200 CURVE",
"217 183 OFFCURVE",
"271 80 OFFCURVE",
"297 11 CURVE SMOOTH",
"302 -1 OFFCURVE",
"305 0 OFFCURVE",
"317 0 CURVE SMOOTH",
"357 0 OFFCURVE",
"398 0 OFFCURVE",
"438 0 CURVE SMOOTH",
"450 0 OFFCURVE",
"456 0 OFFCURVE",
"451 18 CURVE SMOOTH",
"439 66 OFFCURVE",
"374 183 OFFCURVE",
"334 242 CURVE SMOOTH",
"319 264 OFFCURVE",
"328 278 OFFCURVE",
"340 297 CURVE",
"358 320 OFFCURVE",
"376 350 OFFCURVE",
"390 376 CURVE SMOOTH",
"405 402 OFFCURVE",
"425 441 OFFCURVE",
"430 455 CURVE SMOOTH",
"435 471 OFFCURVE",
"430 472 OFFCURVE",
"416 472 CURVE SMOOTH",
"304 472 LINE SMOOTH",
"281 472 OFFCURVE",
"280 472 OFFCURVE",
"274 458 CURVE SMOOTH",
"266 442 OFFCURVE",
"242 371 OFFCURVE",
"197 317 CURVE SMOOTH",
"195 315 OFFCURVE",
"193 314 OFFCURVE",
"192 313 CURVE SMOOTH",
"190 312 OFFCURVE",
"189 312 OFFCURVE",
"188 313 CURVE SMOOTH",
"187 314 OFFCURVE",
"187 316 OFFCURVE",
"187 319 CURVE SMOOTH",
"187 673 LINE SMOOTH",
"187 681 OFFCURVE",
"181 687 OFFCURVE",
"173 687 CURVE SMOOTH",
"56 687 LINE SMOOTH",
"46 687 OFFCURVE",
"40 681 OFFCURVE",
"40 673 CURVE SMOOTH",
"40 14 LINE SMOOTH"
);
}
);
};
layerId = "D1BC8BBB-1669-4C46-BC21-42BF6808B2B9";
paths = (
{
closed = 1;
nodes = (
"40 1 OFFCURVE",
"41 0 OFFCURVE",
"44 0 CURVE SMOOTH",
"183 0 LINE SMOOTH",
"186 0 OFFCURVE",
"187 1 OFFCURVE",
"188 4 CURVE SMOOTH",
"226 185 LINE SMOOTH",
"228 193 OFFCURVE",
"229 198 OFFCURVE",
"232 201 CURVE SMOOTH",
"243 214 OFFCURVE",
"255 183 OFFCURVE",
"259 168 CURVE SMOOTH",
"266 144 OFFCURVE",
"311 7 OFFCURVE",
"311 7 CURVE",
"314 -1 OFFCURVE",
"314 0 OFFCURVE",
"319 0 CURVE SMOOTH",
"328 0 OFFCURVE",
"448 0 OFFCURVE",
"457 0 CURVE SMOOTH",
"462 0 OFFCURVE",
"463 4 OFFCURVE",
"462 8 CURVE SMOOTH",
"460 14 OFFCURVE",
"426 197 OFFCURVE",
"380 255 CURVE SMOOTH",
"379 257 OFFCURVE",
"371 260 OFFCURVE",
"370 262 CURVE",
"375 267 OFFCURVE",
"378 270 OFFCURVE",
"386 277 CURVE SMOOTH",
"455 343 OFFCURVE",
"519 441 OFFCURVE",
"527 455 CURVE",
"530 460 OFFCURVE",
"535 472 OFFCURVE",
"522 472 CURVE SMOOTH",
"404 472 LINE SMOOTH",
"385 472 OFFCURVE",
"380 472 OFFCURVE",
"371 458 CURVE SMOOTH",
"341 408 OFFCURVE",
"323 383 OFFCURVE",
"290 343 CURVE SMOOTH",
"279 330 OFFCURVE",
"275 326 OFFCURVE",
"264 317 CURVE SMOOTH",
"262 315 OFFCURVE",
"257 312 OFFCURVE",
"255 312 CURVE SMOOTH",
"253 312 OFFCURVE",
"255 320 OFFCURVE",
"256 323 CURVE SMOOTH",
"330 674 LINE SMOOTH",
"331 677 OFFCURVE",
"330 678 OFFCURVE",
"327 678 CURVE SMOOTH",
"188 678 LINE SMOOTH",
"185 678 OFFCURVE",
"184 677 OFFCURVE",
"183 674 CURVE SMOOTH",
"41 4 LINE SMOOTH"
);
}
);
width = 486;
}
);
note = k;
unicode = 006B;
},
{
glyphname = l;
lastChange = "2021-03-17 00:25:09 +0000";
layers = (
{
background = {
paths = (
{
closed = 1;
nodes = (
"80 1 OFFCURVE",
"81 0 OFFCURVE",
"83 0 CURVE SMOOTH",
"109 0 LINE SMOOTH",
"111 0 OFFCURVE",
"113 1 OFFCURVE",
"114 4 CURVE SMOOTH",
"263 704 LINE SMOOTH",
"263 707 OFFCURVE",
"261 708 OFFCURVE",
"259 708 CURVE SMOOTH",
"233 708 LINE SMOOTH",
"231 708 OFFCURVE",
"230 707 OFFCURVE",
"230 704 CURVE SMOOTH",
"81 4 LINE SMOOTH"
);
}
);
};
hints = (
{
horizontal = 1;
place = "{4, 21}";
target = up;
type = BottomGhost;
},
{
place = "{80, 33}";
type = Stem;
}
);
layerId = "707362F1-A677-446A-8636-E10BE3A7FAFF";
paths = (
{
closed = 1;
nodes = (
"80 1 OFFCURVE",
"81 0 OFFCURVE",
"83 0 CURVE SMOOTH",
"109 0 LINE SMOOTH",
"111 0 OFFCURVE",
"113 1 OFFCURVE",
"114 4 CURVE SMOOTH",
"263 704 LINE SMOOTH",
"263 707 OFFCURVE",
"261 708 OFFCURVE",
"259 708 CURVE SMOOTH",
"233 708 LINE SMOOTH",
"231 708 OFFCURVE",
"230 707 OFFCURVE",
"230 704 CURVE SMOOTH",
"81 4 LINE SMOOTH"
);
}
);
width = 193;
},
{
layerId = "D1BC8BBB-1669-4C46-BC21-42BF6808B2B9";
paths = (
{
closed = 1;
nodes = (
"66 6 OFFCURVE",
"71 0 OFFCURVE",
"81 0 CURVE SMOOTH",
"196 0 LINE SMOOTH",
"206 0 OFFCURVE",
"213 6 OFFCURVE",
"215 14 CURVE SMOOTH",
"360 694 LINE SMOOTH",
"361 702 OFFCURVE",
"356 708 OFFCURVE",
"346 708 CURVE SMOOTH",
"231 708 LINE SMOOTH",
"221 708 OFFCURVE",
"214 702 OFFCURVE",
"213 694 CURVE SMOOTH",
"68 14 LINE SMOOTH"
);
}
);
width = 277;
}
);
note = l;
unicode = 006C;
},
{
glyphname = m;
lastChange = "2021-03-17 00:25:09 +0000";
layers = (
{
background = {
paths = (
{
closed = 1;
nodes = (
"692 445 OFFCURVE",
"708 354 OFFCURVE",
"688 257 CURVE SMOOTH",
"665 152 OFFCURVE",
"632 28 OFFCURVE",
"626 7 CURVE SMOOTH",
"624 1 OFFCURVE",
"625 0 OFFCURVE",
"631 0 CURVE SMOOTH",
"649 0 LINE SMOOTH",
"655 0 OFFCURVE",
"657 1 OFFCURVE",
"659 5 CURVE",
"668 41 OFFCURVE",
"699 150 OFFCURVE",
"721 253 CURVE SMOOTH",
"747 378 OFFCURVE",
"730 476 OFFCURVE",
"588 476 CURVE SMOOTH",
"540 476 OFFCURVE",
"468 447 OFFCURVE",
"438 398 CURVE",
"423 445 OFFCURVE",
"382 476 OFFCURVE",
"301 476 CURVE SMOOTH",
"252 476 OFFCURVE",
"195 459 OFFCURVE",
"173 451 CURVE SMOOTH",
"160 446 OFFCURVE",
"152 435 OFFCURVE",
"152 431 CURVE SMOOTH",
"61 4 LINE SMOOTH",
"60 1 OFFCURVE",
"61 0 OFFCURVE",
"64 0 CURVE SMOOTH",
"89 0 LINE SMOOTH",
"92 0 OFFCURVE",
"93 1 OFFCURVE",
"94 4 CURVE SMOOTH",
"178 401 LINE SMOOTH",
"181 415 OFFCURVE",
"191 424 OFFCURVE",
"199 426 CURVE SMOOTH",
"256 446 OFFCURVE",
"325 457 OFFCURVE",
"372 424 CURVE SMOOTH",
"415 393 OFFCURVE",
"419 339 OFFCURVE",
"401 253 CURVE SMOOTH",
"348 7 LINE",
"346 1 OFFCURVE",
"347 0 OFFCURVE",
"353 0 CURVE SMOOTH",
"370 0 LINE SMOOTH",
"376 0 OFFCURVE",
"379 1 OFFCURVE",
"381 5 CURVE",
"390 41 OFFCURVE",
"412 150 OFFCURVE",
"434 253 CURVE SMOOTH",
"452 340 LINE SMOOTH",
"466 404 OFFCURVE",
"526 445 OFFCURVE",
"587 445 CURVE SMOOTH"
);
}
);
};
hints = (
{
horizontal = 1;
place = "{4, 21}";
target = up;
type = BottomGhost;
},
{
horizontal = 1;
place = "{447, 31}";
type = Stem;
},
{
horizontal = 1;
place = "{472, -20}";
target = down;
type = TopGhost;
}
);
layerId = "707362F1-A677-446A-8636-E10BE3A7FAFF";
paths = (
{
closed = 1;
nodes = (
"692 445 OFFCURVE",
"708 354 OFFCURVE",
"688 257 CURVE SMOOTH",
"665 152 OFFCURVE",
"632 28 OFFCURVE",
"626 7 CURVE SMOOTH",
"624 1 OFFCURVE",
"625 0 OFFCURVE",
"631 0 CURVE SMOOTH",
"649 0 LINE SMOOTH",
"655 0 OFFCURVE",
"657 1 OFFCURVE",
"659 5 CURVE",
"668 41 OFFCURVE",
"699 150 OFFCURVE",
"721 253 CURVE SMOOTH",
"747 378 OFFCURVE",
"730 476 OFFCURVE",
"588 476 CURVE SMOOTH",
"540 476 OFFCURVE",
"468 447 OFFCURVE",
"438 398 CURVE",
"423 445 OFFCURVE",
"382 476 OFFCURVE",
"301 476 CURVE SMOOTH",
"252 476 OFFCURVE",
"195 459 OFFCURVE",
"173 451 CURVE SMOOTH",
"160 446 OFFCURVE",
"152 435 OFFCURVE",
"152 431 CURVE SMOOTH",
"61 4 LINE SMOOTH",
"60 1 OFFCURVE",
"61 0 OFFCURVE",
"64 0 CURVE SMOOTH",
"89 0 LINE SMOOTH",
"92 0 OFFCURVE",
"93 1 OFFCURVE",
"94 4 CURVE SMOOTH",
"178 401 LINE SMOOTH",
"181 415 OFFCURVE",
"191 424 OFFCURVE",
"199 426 CURVE SMOOTH",
"256 446 OFFCURVE",
"325 457 OFFCURVE",
"372 424 CURVE SMOOTH",
"415 393 OFFCURVE",
"419 339 OFFCURVE",
"401 253 CURVE SMOOTH",
"348 7 LINE",
"346 1 OFFCURVE",
"347 0 OFFCURVE",
"353 0 CURVE SMOOTH",
"370 0 LINE SMOOTH",
"376 0 OFFCURVE",
"379 1 OFFCURVE",
"381 5 CURVE",
"390 41 OFFCURVE",
"412 150 OFFCURVE",
"434 253 CURVE SMOOTH",
"452 340 LINE SMOOTH",
"466 404 OFFCURVE",
"526 445 OFFCURVE",
"587 445 CURVE SMOOTH"
);
}
);
width = 727;
},
{
background = {
paths = (
{
closed = 1;
nodes = (
"687 372 OFFCURVE",
"646 476 OFFCURVE",
"477 476 CURVE SMOOTH",
"441 476 OFFCURVE",
"407 461 OFFCURVE",
"377 442 CURVE SMOOTH",
"370 438 OFFCURVE",
"365 438 OFFCURVE",
"357 442 CURVE",
"326 463 OFFCURVE",
"285 476 OFFCURVE",
"227 476 CURVE SMOOTH",
"178 476 OFFCURVE",
"103 460 OFFCURVE",
"79 452 CURVE SMOOTH",
"48 441 OFFCURVE",
"40 438 OFFCURVE",
"40 422 CURVE SMOOTH",
"40 15 LINE SMOOTH",
"40 1 OFFCURVE",
"51 0 OFFCURVE",
"57 0 CURVE SMOOTH",
"176 0 LINE SMOOTH",
"186 0 OFFCURVE",
"186 12 OFFCURVE",
"186 20 CURVE SMOOTH",
"186 347 LINE SMOOTH",
"186 363 OFFCURVE",
"212 363 OFFCURVE",
"222 363 CURVE SMOOTH",
"276 363 OFFCURVE",
"287 301 OFFCURVE",
"287 261 CURVE SMOOTH",
"287 15 LINE SMOOTH",
"287 1 OFFCURVE",
"299 0 OFFCURVE",
"305 0 CURVE SMOOTH",
"424 0 LINE SMOOTH",
"434 0 OFFCURVE",
"434 12 OFFCURVE",
"434 20 CURVE SMOOTH",
"434 347 LINE SMOOTH",
"434 363 OFFCURVE",
"463 363 OFFCURVE",
"473 363 CURVE SMOOTH",
"530 363 OFFCURVE",
"535 283 OFFCURVE",
"535 254 CURVE SMOOTH",
"535 173 OFFCURVE",
"532 87 OFFCURVE",
"529 55 CURVE SMOOTH",
"526 21 LINE SMOOTH",
"522 -6 OFFCURVE",
"532 0 OFFCURVE",
"552 0 CURVE SMOOTH",
"646 0 LINE SMOOTH",
"667 0 OFFCURVE",
"670 0 OFFCURVE",
"673 28 CURVE SMOOTH",
"681 96 OFFCURVE",
"687 181 OFFCURVE",
"687 250 CURVE SMOOTH"
);
}
);
};
layerId = "D1BC8BBB-1669-4C46-BC21-42BF6808B2B9";
paths = (
{
closed = 1;
nodes = (
"608 363 OFFCURVE",
"595 283 OFFCURVE",
"589 254 CURVE SMOOTH",
"572 173 OFFCURVE",
"550 87 OFFCURVE",
"530 21 CURVE SMOOTH",
"525 4 OFFCURVE",
"525 0 OFFCURVE",
"535 0 CURVE SMOOTH",
"659 0 LINE SMOOTH",
"665 0 OFFCURVE",
"667 1 OFFCURVE",
"669 5 CURVE",
"701 96 OFFCURVE",
"718 147 OFFCURVE",
"740 250 CURVE SMOOTH",
"767 375 OFFCURVE",
"747 476 OFFCURVE",
"588 476 CURVE SMOOTH",
"540 476 OFFCURVE",
"505 461 OFFCURVE",
"458 438 CURVE",
"424 463 OFFCURVE",
"388 476 OFFCURVE",
"301 476 CURVE SMOOTH",
"279 476 OFFCURVE",
"201 460 OFFCURVE",
"158 447 CURVE SMOOTH",
"141 442 OFFCURVE",
"132 435 OFFCURVE",
"130 422 CURVE SMOOTH",
"43 15 LINE SMOOTH",
"40 1 OFFCURVE",
"51 0 OFFCURVE",
"57 0 CURVE SMOOTH",
"177 0 LINE SMOOTH",
"184 0 OFFCURVE",
"189 12 OFFCURVE",
"190 20 CURVE SMOOTH",
"260 346 LINE SMOOTH",
"263 363 OFFCURVE",
"287 363 OFFCURVE",
"296 363 CURVE SMOOTH",
"308 363 OFFCURVE",
"322 361 OFFCURVE",
"331 352 CURVE SMOOTH",
"352 331 OFFCURVE",
"349 293 OFFCURVE",
"341 253 CURVE SMOOTH",
"288 7 LINE",
"286 1 OFFCURVE",
"287 0 OFFCURVE",
"293 0 CURVE SMOOTH",
"423 0 LINE SMOOTH",
"434 0 OFFCURVE",
"437 12 OFFCURVE",
"438 20 CURVE",
"445 53 OFFCURVE",
"475 192 OFFCURVE",
"506 338 CURVE SMOOTH",
"508 347 LINE SMOOTH",
"511 363 OFFCURVE",
"540 363 OFFCURVE",
"550 363 CURVE SMOOTH"
);
}
);
width = 727;
}
);
note = m;
unicode = 006D;
},
{
glyphname = n;
lastChange = "2021-03-17 00:25:09 +0000";
layers = (
{
background = {
paths = (
{
closed = 1;
nodes = (
"92 0 OFFCURVE",
"101 0 OFFCURVE",
"109 0 CURVE SMOOTH",
"112 0 OFFCURVE",
"113 1 OFFCURVE",
"114 4 CURVE SMOOTH",
"142 136 OFFCURVE",
"170 269 OFFCURVE",
"198 401 CURVE SMOOTH",
"201 415 OFFCURVE",
"213 420 OFFCURVE",
"221 422 CURVE SMOOTH",
"254 434 OFFCURVE",
"298 444 OFFCURVE",
"337 443 CURVE SMOOTH",
"366 443 OFFCURVE",
"393 438 OFFCURVE",
"413 424 CURVE SMOOTH",
"457 393 OFFCURVE",
"462 329 OFFCURVE",
"447 257 CURVE SMOOTH",
"424 152 OFFCURVE",
"390 28 OFFCURVE",
"384 7 CURVE SMOOTH",
"382 1 OFFCURVE",
"383 0 OFFCURVE",
"389 0 CURVE SMOOTH",
"395 0 OFFCURVE",
"401 0 OFFCURVE",
"407 0 CURVE SMOOTH",
"413 0 OFFCURVE",
"415 1 OFFCURVE",
"417 5 CURVE",
"426 41 OFFCURVE",
"457 150 OFFCURVE",
"479 253 CURVE SMOOTH",
"505 378 OFFCURVE",
"489 476 OFFCURVE",
"343 476 CURVE SMOOTH",
"293 476 OFFCURVE",
"218 458 OFFCURVE",
"190 450 CURVE SMOOTH",
"177 446 OFFCURVE",
"174 440 OFFCURVE",
"172 435 CURVE SMOOTH",
"142 291 OFFCURVE",
"111 148 OFFCURVE",
"81 4 CURVE SMOOTH",
"80 1 OFFCURVE",
"81 0 OFFCURVE",
"84 0 CURVE SMOOTH"
);
}
);
};
guideLines = (
{
position = "{315, 443}";
}
);
hints = (
{
horizontal = 1;
place = "{4, 21}";
target = up;
type = BottomGhost;
},
{
horizontal = 1;
place = "{447, 31}";
type = Stem;
},
{
horizontal = 1;
place = "{472, -20}";
target = down;
type = TopGhost;
},
{
place = "{60, 33}";
type = Stem;
},
{
place = "{374, 33}";
type = Stem;
}
);
layerId = "707362F1-A677-446A-8636-E10BE3A7FAFF";
paths = (
{
closed = 1;
nodes = (
"92 0 OFFCURVE",
"101 0 OFFCURVE",
"109 0 CURVE SMOOTH",
"112 0 OFFCURVE",
"113 1 OFFCURVE",
"114 4 CURVE SMOOTH",
"142 136 OFFCURVE",
"170 269 OFFCURVE",
"198 401 CURVE SMOOTH",
"201 415 OFFCURVE",
"213 420 OFFCURVE",
"221 422 CURVE SMOOTH",
"254 434 OFFCURVE",
"298 444 OFFCURVE",
"337 443 CURVE SMOOTH",
"366 443 OFFCURVE",
"393 438 OFFCURVE",
"413 424 CURVE SMOOTH",
"457 393 OFFCURVE",
"462 329 OFFCURVE",
"447 257 CURVE SMOOTH",
"424 152 OFFCURVE",
"390 28 OFFCURVE",
"384 7 CURVE SMOOTH",
"382 1 OFFCURVE",
"383 0 OFFCURVE",
"389 0 CURVE SMOOTH",
"395 0 OFFCURVE",
"401 0 OFFCURVE",
"407 0 CURVE SMOOTH",
"413 0 OFFCURVE",
"415 1 OFFCURVE",
"417 5 CURVE",
"426 41 OFFCURVE",
"457 150 OFFCURVE",
"479 253 CURVE SMOOTH",
"505 378 OFFCURVE",
"489 476 OFFCURVE",
"343 476 CURVE SMOOTH",
"293 476 OFFCURVE",
"218 458 OFFCURVE",
"190 450 CURVE SMOOTH",
"177 446 OFFCURVE",
"174 440 OFFCURVE",
"172 435 CURVE SMOOTH",
"142 291 OFFCURVE",
"111 148 OFFCURVE",
"81 4 CURVE SMOOTH",
"80 1 OFFCURVE",
"81 0 OFFCURVE",
"84 0 CURVE SMOOTH"
);
}
);
width = 505;
},
{
layerId = "D1BC8BBB-1669-4C46-BC21-42BF6808B2B9";
paths = (
{
closed = 1;
nodes = (
"97 0 OFFCURVE",
"136 0 OFFCURVE",
"176 0 CURVE SMOOTH",
"186 0 OFFCURVE",
"189 12 OFFCURVE",
"190 20 CURVE SMOOTH",
"214 129 OFFCURVE",
"237 238 OFFCURVE",
"250 301 CURVE SMOOTH",
"257 335 OFFCURVE",
"261 352 OFFCURVE",
"268 358 CURVE SMOOTH",
"274 363 OFFCURVE",
"287 363 OFFCURVE",
"300 363 CURVE SMOOTH",
"339 363 OFFCURVE",
"363 349 OFFCURVE",
"340 248 CURVE SMOOTH",
"337 237 OFFCURVE",
"284 32 OFFCURVE",
"281 21 CURVE SMOOTH",
"271 -6 OFFCURVE",
"281 0 OFFCURVE",
"302 0 CURVE SMOOTH",
"333 0 OFFCURVE",
"365 0 OFFCURVE",
"396 0 CURVE SMOOTH",
"417 0 OFFCURVE",
"420 0 OFFCURVE",
"429 28 CURVE SMOOTH",
"452 96 OFFCURVE",
"475 181 OFFCURVE",
"489 250 CURVE SMOOTH",
"515 372 OFFCURVE",
"497 476 OFFCURVE",
"328 476 CURVE SMOOTH",
"279 476 OFFCURVE",
"201 460 OFFCURVE",
"175 452 CURVE SMOOTH",
"142 441 OFFCURVE",
"133 438 OFFCURVE",
"130 422 CURVE SMOOTH",
"101 286 OFFCURVE",
"72 151 OFFCURVE",
"43 15 CURVE SMOOTH",
"40 1 OFFCURVE",
"51 0 OFFCURVE",
"57 0 CURVE SMOOTH"
);
}
);
width = 476;
}
);
note = n;
unicode = 006E;
},
{
glyphname = o;
lastChange = "2021-03-17 00:25:09 +0000";
layers = (
{
background = {
paths = (
{
closed = 1;
nodes = (
"66 93 OFFCURVE",
"86 -7 OFFCURVE",
"243 -7 CURVE SMOOTH",
"400 -7 OFFCURVE",
"462 94 OFFCURVE",
"493 238 CURVE SMOOTH",
"524 382 OFFCURVE",
"496 483 OFFCURVE",
"347 483 CURVE SMOOTH",
"199 483 OFFCURVE",
"128 382 OFFCURVE",
"97 238 CURVE SMOOTH"
);
},
{
closed = 1;
nodes = (
"159 375 OFFCURVE",
"228 453 OFFCURVE",
"341 453 CURVE SMOOTH",
"455 453 OFFCURVE",
"489 374 OFFCURVE",
"460 238 CURVE SMOOTH",
"431 103 OFFCURVE",
"371 22 OFFCURVE",
"249 22 CURVE SMOOTH",
"128 22 OFFCURVE",
"101 101 OFFCURVE",
"130 238 CURVE SMOOTH"
);
}
);
};
hints = (
{
horizontal = 1;
place = "{-6, 30}";
type = Stem;
},
{
horizontal = 1;
place = "{454, 31}";
type = Stem;
},
{
place = "{47, 34}";
type = Stem;
},
{
place = "{410, 34}";
type = Stem;
}
);
layerId = "707362F1-A677-446A-8636-E10BE3A7FAFF";
paths = (
{
closed = 1;
nodes = (
"66 93 OFFCURVE",
"86 -7 OFFCURVE",
"243 -7 CURVE SMOOTH",
"400 -7 OFFCURVE",
"462 94 OFFCURVE",
"493 238 CURVE SMOOTH",
"524 382 OFFCURVE",
"496 483 OFFCURVE",
"347 483 CURVE SMOOTH",
"199 483 OFFCURVE",
"128 382 OFFCURVE",
"97 238 CURVE SMOOTH"
);
},
{
closed = 1;
nodes = (
"159 375 OFFCURVE",
"228 453 OFFCURVE",
"341 453 CURVE SMOOTH",
"455 453 OFFCURVE",
"489 374 OFFCURVE",
"460 238 CURVE SMOOTH",
"431 103 OFFCURVE",
"371 22 OFFCURVE",
"249 22 CURVE SMOOTH",
"128 22 OFFCURVE",
"101 101 OFFCURVE",
"130 238 CURVE SMOOTH"
);
}
);
width = 486;
},
{
layerId = "D1BC8BBB-1669-4C46-BC21-42BF6808B2B9";
paths = (
{
closed = 1;
nodes = (
"53 101 OFFCURVE",
"74 -6 OFFCURVE",
"253 -6 CURVE SMOOTH",
"431 -6 OFFCURVE",
"499 103 OFFCURVE",
"528 238 CURVE SMOOTH",
"557 374 OFFCURVE",
"523 477 OFFCURVE",
"356 477 CURVE SMOOTH",
"188 477 OFFCURVE",
"111 374 OFFCURVE",
"82 238 CURVE SMOOTH"
);
},
{
closed = 1;
nodes = (
"246 315 OFFCURVE",
"279 358 OFFCURVE",
"328 358 CURVE SMOOTH",
"378 358 OFFCURVE",
"393 315 OFFCURVE",
"376 234 CURVE SMOOTH",
"359 152 OFFCURVE",
"330 105 OFFCURVE",
"275 105 CURVE SMOOTH",
"222 105 OFFCURVE",
"211 151 OFFCURVE",
"229 234 CURVE SMOOTH"
);
}
);
width = 506;
}
);
note = o;
rightKerningGroup = b;
unicode = 006F;
},
{
glyphname = p;
lastChange = "2021-03-17 00:25:09 +0000";
layers = (
{
background = {
paths = (
{
closed = 1;
nodes = (
"84 -112 OFFCURVE",
"84 -117 OFFCURVE",
"88 -117 CURVE SMOOTH",
"110 -117 LINE SMOOTH",
"117 -117 OFFCURVE",
"117 -111 OFFCURVE",
"118 -109 CURVE SMOOTH",
"126 -59 OFFCURVE",
"138 -12 OFFCURVE",
"142 5 CURVE SMOOTH",
"143 11 OFFCURVE",
"148 13 OFFCURVE",
"154 9 CURVE",
"174 0 OFFCURVE",
"235 -7 OFFCURVE",
"272 -7 CURVE SMOOTH",
"419 -7 OFFCURVE",
"496 119 OFFCURVE",
"523 245 CURVE SMOOTH",
"557 407 OFFCURVE",
"516 480 OFFCURVE",
"391 480 CURVE SMOOTH",
"329 480 OFFCURVE",
"277 472 OFFCURVE",
"222 455 CURVE SMOOTH",
"211 452 OFFCURVE",
"207 445 OFFCURVE",
"206 439 CURVE SMOOTH",
"184 359 OFFCURVE",
"165 276 OFFCURVE",
"146 194 CURVE SMOOTH",
"124 93 OFFCURVE",
"103 -9 OFFCURVE",
"84 -110 CURVE SMOOTH"
);
},
{
closed = 1;
nodes = (
"156 92 OFFCURVE",
"208 327 OFFCURVE",
"235 417 CURVE SMOOTH",
"236 424 OFFCURVE",
"246 428 OFFCURVE",
"256 432 CURVE SMOOTH",
"292 444 OFFCURVE",
"338 452 OFFCURVE",
"381 452 CURVE SMOOTH",
"476 452 OFFCURVE",
"523 399 OFFCURVE",
"490 245 CURVE SMOOTH",
"451 61 OFFCURVE",
"350 24 OFFCURVE",
"282 24 CURVE SMOOTH",
"249 24 OFFCURVE",
"200 28 OFFCURVE",
"167 39 CURVE SMOOTH",
"160 41 OFFCURVE",
"148 45 OFFCURVE",
"151 58 CURVE SMOOTH"
);
}
);
};
hints = (
{
horizontal = 1;
place = "{-88, 21}";
target = up;
type = BottomGhost;
},
{
horizontal = 1;
place = "{17, 54}";
type = Stem;
},
{
horizontal = 1;
place = "{497, -20}";
target = down;
type = TopGhost;
},
{
place = "{81, 58}";
type = Stem;
},
{
place = "{425, 58}";
type = Stem;
},
{
place = "{87, 58}";
type = Stem;
},
{
horizontal = 1;
place = "{18, 58}";
type = Stem;
},
{
horizontal = 1;
place = "{476, 54}";
type = Stem;
}
);
layerId = "707362F1-A677-446A-8636-E10BE3A7FAFF";
paths = (
{
closed = 1;
nodes = (
"84 -112 OFFCURVE",
"84 -117 OFFCURVE",
"88 -117 CURVE SMOOTH",
"110 -117 LINE SMOOTH",
"117 -117 OFFCURVE",
"117 -111 OFFCURVE",
"118 -109 CURVE SMOOTH",
"126 -59 OFFCURVE",
"138 -12 OFFCURVE",
"142 5 CURVE SMOOTH",
"143 11 OFFCURVE",
"148 13 OFFCURVE",
"154 9 CURVE",
"174 0 OFFCURVE",
"235 -7 OFFCURVE",
"272 -7 CURVE SMOOTH",
"419 -7 OFFCURVE",
"496 119 OFFCURVE",
"523 245 CURVE SMOOTH",
"557 407 OFFCURVE",
"516 480 OFFCURVE",
"391 480 CURVE SMOOTH",
"329 480 OFFCURVE",
"277 472 OFFCURVE",
"222 455 CURVE SMOOTH",
"211 452 OFFCURVE",
"207 445 OFFCURVE",
"206 439 CURVE SMOOTH",
"184 359 OFFCURVE",
"165 276 OFFCURVE",
"146 194 CURVE SMOOTH",
"124 93 OFFCURVE",
"103 -9 OFFCURVE",
"84 -110 CURVE SMOOTH"
);
},
{
closed = 1;
nodes = (
"156 92 OFFCURVE",
"208 327 OFFCURVE",
"235 417 CURVE SMOOTH",
"236 424 OFFCURVE",
"246 428 OFFCURVE",
"256 432 CURVE SMOOTH",
"292 444 OFFCURVE",
"338 452 OFFCURVE",
"381 452 CURVE SMOOTH",
"476 452 OFFCURVE",
"523 399 OFFCURVE",
"490 245 CURVE SMOOTH",
"451 61 OFFCURVE",
"350 24 OFFCURVE",
"282 24 CURVE SMOOTH",
"249 24 OFFCURVE",
"200 28 OFFCURVE",
"167 39 CURVE SMOOTH",
"160 41 OFFCURVE",
"148 45 OFFCURVE",
"151 58 CURVE SMOOTH"
);
}
);
width = 496;
},
{
layerId = "D1BC8BBB-1669-4C46-BC21-42BF6808B2B9";
paths = (
{
closed = 1;
nodes = (
"50 -105 OFFCURVE",
"57 -106 OFFCURVE",
"69 -106 CURVE SMOOTH",
"178 -106 LINE SMOOTH",
"200 -106 OFFCURVE",
"198 -100 OFFCURVE",
"200 -79 CURVE SMOOTH",
"200 -72 OFFCURVE",
"208 -26 OFFCURVE",
"212 -12 CURVE SMOOTH",
"215 -2 OFFCURVE",
"221 -6 OFFCURVE",
"234 -7 CURVE SMOOTH",
"274 -11 OFFCURVE",
"332 -5 OFFCURVE",
"374 14 CURVE SMOOTH",
"440 45 OFFCURVE",
"505 114 OFFCURVE",
"533 247 CURVE SMOOTH",
"567 408 OFFCURVE",
"503 481 OFFCURVE",
"371 481 CURVE SMOOTH",
"301 481 OFFCURVE",
"238 466 OFFCURVE",
"213 458 CURVE SMOOTH",
"179 447 OFFCURVE",
"173 440 OFFCURVE",
"166 424 CURVE SMOOTH",
"147 386 OFFCURVE",
"121 275 OFFCURVE",
"108 212 CURVE SMOOTH",
"71 42 OFFCURVE",
"53 -58 OFFCURVE",
"51 -96 CURVE SMOOTH"
);
},
{
closed = 1;
nodes = (
"259 212 OFFCURVE",
"274 281 OFFCURVE",
"291 349 CURVE SMOOTH",
"292 356 OFFCURVE",
"294 359 OFFCURVE",
"297 361 CURVE SMOOTH",
"309 366 OFFCURVE",
"327 369 OFFCURVE",
"346 369 CURVE SMOOTH",
"382 369 OFFCURVE",
"404 341 OFFCURVE",
"384 248 CURVE SMOOTH",
"361 137 OFFCURVE",
"320 122 OFFCURVE",
"293 122 CURVE SMOOTH",
"279 122 OFFCURVE",
"261 127 OFFCURVE",
"248 132 CURVE SMOOTH",
"243 133 OFFCURVE",
"242 136 OFFCURVE",
"244 144 CURVE SMOOTH"
);
}
);
width = 483;
}
);
leftKerningGroup = b;
note = p;
rightKerningGroup = b;
unicode = 0070;
},
{
glyphname = q;
lastChange = "2021-03-17 00:25:09 +0000";
layers = (
{
background = {
paths = (
{
closed = 1;
nodes = (
"294 -7 OFFCURVE",
"342 1 OFFCURVE",
"376 9 CURVE",
"383 12 OFFCURVE",
"388 11 OFFCURVE",
"387 5 CURVE SMOOTH",
"383 -12 OFFCURVE",
"372 -59 OFFCURVE",
"358 -109 CURVE SMOOTH",
"357 -111 OFFCURVE",
"355 -117 OFFCURVE",
"362 -117 CURVE SMOOTH",
"384 -117 LINE SMOOTH",
"388 -117 OFFCURVE",
"390 -112 OFFCURVE",
"390 -110 CURVE SMOOTH",
"438 58 OFFCURVE",
"499 295 OFFCURVE",
"525 439 CURVE SMOOTH",
"526 445 OFFCURVE",
"527 452 OFFCURVE",
"517 455 CURVE SMOOTH",
"468 472 OFFCURVE",
"423 480 OFFCURVE",
"361 480 CURVE SMOOTH",
"236 480 OFFCURVE",
"158 407 OFFCURVE",
"117 245 CURVE SMOOTH",
"67 42 OFFCURVE",
"160 -7 OFFCURVE",
"245 -7 CURVE SMOOTH"
);
},
{
closed = 1;
nodes = (
"190 399 OFFCURVE",
"261 452 OFFCURVE",
"357 452 CURVE SMOOTH",
"400 452 OFFCURVE",
"441 444 OFFCURVE",
"473 432 CURVE SMOOTH",
"482 428 OFFCURVE",
"489 424 OFFCURVE",
"486 417 CURVE",
"470 327 OFFCURVE",
"413 92 OFFCURVE",
"402 58 CURVE",
"399 45 OFFCURVE",
"390 41 OFFCURVE",
"381 39 CURVE SMOOTH",
"340 29 OFFCURVE",
"286 25 OFFCURVE",
"253 25 CURVE SMOOTH",
"188 25 OFFCURVE",
"104 61 OFFCURVE",
"150 245 CURVE SMOOTH"
);
}
);
};
hints = (
{
horizontal = 1;
place = "{-88, 21}";
target = up;
type = BottomGhost;
},
{
horizontal = 1;
place = "{11, 58}";
type = Stem;
},
{
horizontal = 1;
place = "{466, 55}";
type = Stem;
},
{
place = "{64, 58}";
type = Stem;
},
{
place = "{400, 58}";
type = Stem;
}
);
layerId = "707362F1-A677-446A-8636-E10BE3A7FAFF";
paths = (
{
closed = 1;
nodes = (
"294 -7 OFFCURVE",
"342 1 OFFCURVE",
"376 9 CURVE",
"383 12 OFFCURVE",
"388 11 OFFCURVE",
"387 5 CURVE SMOOTH",
"383 -12 OFFCURVE",
"372 -59 OFFCURVE",
"358 -109 CURVE SMOOTH",
"357 -111 OFFCURVE",
"355 -117 OFFCURVE",
"362 -117 CURVE SMOOTH",
"384 -117 LINE SMOOTH",
"388 -117 OFFCURVE",
"390 -112 OFFCURVE",
"390 -110 CURVE SMOOTH",
"438 58 OFFCURVE",
"499 295 OFFCURVE",
"525 439 CURVE SMOOTH",
"526 445 OFFCURVE",
"527 452 OFFCURVE",
"517 455 CURVE SMOOTH",
"468 472 OFFCURVE",
"423 480 OFFCURVE",
"361 480 CURVE SMOOTH",
"236 480 OFFCURVE",
"158 407 OFFCURVE",
"117 245 CURVE SMOOTH",
"67 42 OFFCURVE",
"160 -7 OFFCURVE",
"245 -7 CURVE SMOOTH"
);
},
{
closed = 1;
nodes = (
"190 399 OFFCURVE",
"261 452 OFFCURVE",
"357 452 CURVE SMOOTH",
"400 452 OFFCURVE",
"441 444 OFFCURVE",
"473 432 CURVE SMOOTH",
"482 428 OFFCURVE",
"489 424 OFFCURVE",
"486 417 CURVE",
"470 327 OFFCURVE",
"413 92 OFFCURVE",
"402 58 CURVE",
"399 45 OFFCURVE",
"390 41 OFFCURVE",
"381 39 CURVE SMOOTH",
"340 29 OFFCURVE",
"286 25 OFFCURVE",
"253 25 CURVE SMOOTH",
"188 25 OFFCURVE",
"104 61 OFFCURVE",
"150 245 CURVE SMOOTH"
);
}
);
width = 468;
},
{
background = {
paths = (
{
closed = 1;
nodes = (
"167 -5 OFFCURVE",
"222 -11 OFFCURVE",
"263 -7 CURVE SMOOTH",
"279 -6 OFFCURVE",
"286 -2 OFFCURVE",
"286 -12 CURVE SMOOTH",
"287 -26 OFFCURVE",
"282 -72 OFFCURVE",
"281 -79 CURVE SMOOTH",
"279 -100 OFFCURVE",
"272 -106 OFFCURVE",
"294 -106 CURVE SMOOTH",
"404 -106 LINE SMOOTH",
"414 -106 OFFCURVE",
"422 -105 OFFCURVE",
"425 -96 CURVE",
"433 -58 OFFCURVE",
"440 42 OFFCURVE",
"447 212 CURVE SMOOTH",
"450 275 OFFCURVE",
"455 386 OFFCURVE",
"446 424 CURVE SMOOTH",
"442 440 OFFCURVE",
"438 447 OFFCURVE",
"409 458 CURVE SMOOTH",
"385 466 OFFCURVE",
"324 481 OFFCURVE",
"255 481 CURVE SMOOTH",
"122 481 OFFCURVE",
"38 408 OFFCURVE",
"31 247 CURVE SMOOTH",
"24 114 OFFCURVE",
"72 45 OFFCURVE",
"131 14 CURVE SMOOTH"
);
},
{
closed = 1;
nodes = (
"186 341 OFFCURVE",
"214 369 OFFCURVE",
"250 369 CURVE SMOOTH",
"269 369 OFFCURVE",
"286 366 OFFCURVE",
"298 361 CURVE",
"300 359 OFFCURVE",
"301 356 OFFCURVE",
"300 349 CURVE",
"299 281 OFFCURVE",
"298 212 OFFCURVE",
"294 144 CURVE SMOOTH",
"294 136 OFFCURVE",
"293 133 OFFCURVE",
"288 132 CURVE SMOOTH",
"273 127 OFFCURVE",
"252 122 OFFCURVE",
"239 122 CURVE SMOOTH",
"211 122 OFFCURVE",
"175 137 OFFCURVE",
"181 248 CURVE SMOOTH"
);
}
);
};
layerId = "D1BC8BBB-1669-4C46-BC21-42BF6808B2B9";
paths = (
{
closed = 1;
nodes = (
"188 -5 OFFCURVE",
"242 -11 OFFCURVE",
"284 -7 CURVE SMOOTH",
"300 -6 OFFCURVE",
"308 -2 OFFCURVE",
"306 -12 CURVE SMOOTH",
"304 -26 OFFCURVE",
"289 -72 OFFCURVE",
"287 -79 CURVE SMOOTH",
"280 -100 OFFCURVE",
"272 -106 OFFCURVE",
"294 -106 CURVE SMOOTH",
"404 -106 LINE SMOOTH",
"414 -106 OFFCURVE",
"422 -105 OFFCURVE",
"427 -96 CURVE",
"455 -30 OFFCURVE",
"561 367 OFFCURVE",
"559 424 CURVE SMOOTH",
"558 440 OFFCURVE",
"556 447 OFFCURVE",
"529 458 CURVE SMOOTH",
"507 466 OFFCURVE",
"449 481 OFFCURVE",
"380 481 CURVE SMOOTH",
"247 481 OFFCURVE",
"147 408 OFFCURVE",
"106 247 CURVE SMOOTH",
"71 114 OFFCURVE",
"104 45 OFFCURVE",
"157 14 CURVE SMOOTH"
);
},
{
closed = 1;
nodes = (
"281 341 OFFCURVE",
"315 369 OFFCURVE",
"351 369 CURVE SMOOTH",
"370 369 OFFCURVE",
"386 366 OFFCURVE",
"397 361 CURVE",
"399 359 OFFCURVE",
"399 356 OFFCURVE",
"397 349 CURVE",
"381 281 OFFCURVE",
"366 212 OFFCURVE",
"347 144 CURVE SMOOTH",
"345 136 OFFCURVE",
"344 133 OFFCURVE",
"339 132 CURVE SMOOTH",
"323 127 OFFCURVE",
"300 122 OFFCURVE",
"287 122 CURVE SMOOTH",
"259 122 OFFCURVE",
"227 137 OFFCURVE",
"256 248 CURVE SMOOTH"
);
}
);
width = 496;
}
);
note = q;
unicode = 0071;
},
{
glyphname = r;
lastChange = "2021-03-17 00:25:09 +0000";
layers = (
{
background = {
paths = (
{
closed = 1;
nodes = (
"272 477 OFFCURVE",
"213 465 OFFCURVE",
"170 447 CURVE SMOOTH",
"159 442 OFFCURVE",
"153 438 OFFCURVE",
"149 419 CURVE SMOOTH",
"61 4 LINE SMOOTH",
"60 1 OFFCURVE",
"61 0 OFFCURVE",
"64 0 CURVE SMOOTH",
"89 0 LINE SMOOTH",
"92 0 OFFCURVE",
"93 1 OFFCURVE",
"94 4 CURVE SMOOTH",
"178 399 LINE SMOOTH",
"182 418 OFFCURVE",
"193 421 OFFCURVE",
"201 425 CURVE SMOOTH",
"218 432 OFFCURVE",
"277 446 OFFCURVE",
"310 446 CURVE SMOOTH",
"340 446 OFFCURVE",
"368 442 OFFCURVE",
"390 434 CURVE SMOOTH",
"393 433 OFFCURVE",
"396 433 OFFCURVE",
"398 437 CURVE SMOOTH",
"407 458 LINE SMOOTH",
"409 463 OFFCURVE",
"404 464 OFFCURVE",
"402 465 CURVE SMOOTH",
"379 473 OFFCURVE",
"350 477 OFFCURVE",
"316 477 CURVE SMOOTH"
);
}
);
};
hints = (
{
horizontal = 1;
place = "{4, 21}";
target = up;
type = BottomGhost;
},
{
horizontal = 1;
place = "{447, 30}";
type = Stem;
},
{
horizontal = 1;
place = "{472, -20}";
target = down;
type = TopGhost;
},
{
place = "{60, 33}";
type = Stem;
}
);
layerId = "707362F1-A677-446A-8636-E10BE3A7FAFF";
paths = (
{
closed = 1;
nodes = (
"272 477 OFFCURVE",
"213 465 OFFCURVE",
"170 447 CURVE SMOOTH",
"159 442 OFFCURVE",
"153 438 OFFCURVE",
"149 419 CURVE SMOOTH",
"61 4 LINE SMOOTH",
"60 1 OFFCURVE",
"61 0 OFFCURVE",
"64 0 CURVE SMOOTH",
"89 0 LINE SMOOTH",
"92 0 OFFCURVE",
"93 1 OFFCURVE",
"94 4 CURVE SMOOTH",
"178 399 LINE SMOOTH",
"182 418 OFFCURVE",
"193 421 OFFCURVE",
"201 425 CURVE SMOOTH",
"218 432 OFFCURVE",
"277 446 OFFCURVE",
"310 446 CURVE SMOOTH",
"340 446 OFFCURVE",
"368 442 OFFCURVE",
"390 434 CURVE SMOOTH",
"393 433 OFFCURVE",
"396 433 OFFCURVE",
"398 437 CURVE SMOOTH",
"407 458 LINE SMOOTH",
"409 463 OFFCURVE",
"404 464 OFFCURVE",
"402 465 CURVE SMOOTH",
"379 473 OFFCURVE",
"350 477 OFFCURVE",
"316 477 CURVE SMOOTH"
);
}
);
width = 340;
},
{
background = {
paths = (
{
closed = 1;
nodes = (
"349 431 LINE SMOOTH",
"352 445 OFFCURVE",
"346 448 OFFCURVE",
"337 452 CURVE SMOOTH",
"302 467 OFFCURVE",
"259 476 OFFCURVE",
"221 476 CURVE SMOOTH",
"161 476 OFFCURVE",
"100 462 OFFCURVE",
"58 446 CURVE SMOOTH",
"43 440 OFFCURVE",
"40 438 OFFCURVE",
"40 417 CURVE SMOOTH",
"40 20 LINE SMOOTH",
"40 1 OFFCURVE",
"47 0 OFFCURVE",
"58 0 CURVE SMOOTH",
"166 0 LINE SMOOTH",
"181 0 OFFCURVE",
"186 1 OFFCURVE",
"186 24 CURVE SMOOTH",
"186 330 LINE SMOOTH",
"186 346 OFFCURVE",
"194 360 OFFCURVE",
"224 361 CURVE SMOOTH",
"245 363 OFFCURVE",
"294 356 OFFCURVE",
"307 352 CURVE SMOOTH",
"323 347 OFFCURVE",
"325 348 OFFCURVE",
"329 360 CURVE SMOOTH"
);
}
);
};
layerId = "D1BC8BBB-1669-4C46-BC21-42BF6808B2B9";
paths = (
{
closed = 1;
nodes = (
"262 476 OFFCURVE",
"197 466 OFFCURVE",
"153 447 CURVE SMOOTH",
"137 440 OFFCURVE",
"133 438 OFFCURVE",
"129 417 CURVE SMOOTH",
"44 20 LINE SMOOTH",
"40 2 OFFCURVE",
"47 0 OFFCURVE",
"54 0 CURVE SMOOTH",
"166 0 LINE SMOOTH",
"181 0 OFFCURVE",
"186 2 OFFCURVE",
"191 24 CURVE SMOOTH",
"256 330 LINE SMOOTH",
"260 348 OFFCURVE",
"266 350 OFFCURVE",
"273 354 CURVE SMOOTH",
"280 358 OFFCURVE",
"287 361 OFFCURVE",
"319 361 CURVE SMOOTH",
"331 361 OFFCURVE",
"363 358 OFFCURVE",
"385 351 CURVE SMOOTH",
"397 347 OFFCURVE",
"400 348 OFFCURVE",
"406 360 CURVE SMOOTH",
"441 431 LINE SMOOTH",
"445 440 OFFCURVE",
"447 445 OFFCURVE",
"433 452 CURVE SMOOTH",
"401 468 OFFCURVE",
"359 476 OFFCURVE",
"305 476 CURVE SMOOTH"
);
}
);
width = 370;
}
);
leftKerningGroup = b;
note = r;
unicode = 0072;
},
{
glyphname = s;
lastChange = "2021-03-17 00:25:09 +0000";
layers = (
{
background = {
paths = (
{
closed = 1;
nodes = (
"59 35 LINE SMOOTH",
"58 33 OFFCURVE",
"58 31 OFFCURVE",
"58 29 CURVE",
"93 6 OFFCURVE",
"159 -5 OFFCURVE",
"193 -5 CURVE SMOOTH",
"268 -5 OFFCURVE",
"367 31 OFFCURVE",
"390 142 CURVE SMOOTH",
"413 249 OFFCURVE",
"338 255 OFFCURVE",
"268 261 CURVE SMOOTH",
"205 267 OFFCURVE",
"144 273 OFFCURVE",
"161 352 CURVE SMOOTH",
"171 401 OFFCURVE",
"231 447 OFFCURVE",
"324 447 CURVE SMOOTH",
"354 447 OFFCURVE",
"408 432 OFFCURVE",
"426 415 CURVE",
"428 414 OFFCURVE",
"432 413 OFFCURVE",
"433 415 CURVE",
"444 437 LINE",
"444 439 OFFCURVE",
"445 441 OFFCURVE",
"444 442 CURVE SMOOTH",
"421 465 OFFCURVE",
"364 477 OFFCURVE",
"330 477 CURVE SMOOTH",
"230 477 OFFCURVE",
"144 430 OFFCURVE",
"128 352 CURVE SMOOTH",
"105 246 OFFCURVE",
"175 237 OFFCURVE",
"244 231 CURVE SMOOTH",
"310 225 OFFCURVE",
"374 222 OFFCURVE",
"357 142 CURVE SMOOTH",
"340 59 OFFCURVE",
"267 25 OFFCURVE",
"199 25 CURVE SMOOTH",
"165 25 OFFCURVE",
"99 39 OFFCURVE",
"73 60 CURVE",
"71 63 OFFCURVE",
"68 63 OFFCURVE",
"68 60 CURVE SMOOTH"
);
}
);
};
hints = (
{
horizontal = 1;
place = "{-6, 30}";
type = Stem;
},
{
horizontal = 1;
place = "{446, 33}";
type = Stem;
},
{
place = "{59, 35}";
type = Stem;
},
{
place = "{327, 37}";
type = Stem;
}
);
layerId = "707362F1-A677-446A-8636-E10BE3A7FAFF";
paths = (
{
closed = 1;
nodes = (
"59 35 LINE SMOOTH",
"58 33 OFFCURVE",
"58 31 OFFCURVE",
"58 29 CURVE",
"93 6 OFFCURVE",
"159 -5 OFFCURVE",
"193 -5 CURVE SMOOTH",
"268 -5 OFFCURVE",
"367 31 OFFCURVE",
"390 142 CURVE SMOOTH",
"413 249 OFFCURVE",
"338 255 OFFCURVE",
"268 261 CURVE SMOOTH",
"205 267 OFFCURVE",
"144 273 OFFCURVE",
"161 352 CURVE SMOOTH",
"171 401 OFFCURVE",
"231 447 OFFCURVE",
"324 447 CURVE SMOOTH",
"354 447 OFFCURVE",
"408 432 OFFCURVE",
"426 415 CURVE",
"428 414 OFFCURVE",
"432 413 OFFCURVE",
"433 415 CURVE",
"444 437 LINE",
"444 439 OFFCURVE",
"445 441 OFFCURVE",
"444 442 CURVE SMOOTH",
"421 465 OFFCURVE",
"364 477 OFFCURVE",
"330 477 CURVE SMOOTH",
"230 477 OFFCURVE",
"144 430 OFFCURVE",
"128 352 CURVE SMOOTH",
"105 246 OFFCURVE",
"175 237 OFFCURVE",
"244 231 CURVE SMOOTH",
"310 225 OFFCURVE",
"374 222 OFFCURVE",
"357 142 CURVE SMOOTH",
"340 59 OFFCURVE",
"267 25 OFFCURVE",
"199 25 CURVE SMOOTH",
"165 25 OFFCURVE",
"99 39 OFFCURVE",
"73 60 CURVE",
"71 63 OFFCURVE",
"68 63 OFFCURVE",
"68 60 CURVE SMOOTH"
);
}
);
width = 409;
},
{
background = {
paths = (
{
closed = 1;
nodes = (
"390 270 OFFCURVE",
"290 295 OFFCURVE",
"233 302 CURVE SMOOTH",
"187 308 OFFCURVE",
"168 317 OFFCURVE",
"171 340 CURVE SMOOTH",
"176 363 OFFCURVE",
"203 371 OFFCURVE",
"229 369 CURVE SMOOTH",
"264 368 OFFCURVE",
"303 350 OFFCURVE",
"334 334 CURVE SMOOTH",
"344 330 OFFCURVE",
"353 333 OFFCURVE",
"355 341 CURVE",
"381 412 LINE SMOOTH",
"386 425 OFFCURVE",
"381 431 OFFCURVE",
"373 437 CURVE SMOOTH",
"334 466 OFFCURVE",
"267 477 OFFCURVE",
"230 477 CURVE SMOOTH",
"119 477 OFFCURVE",
"30 427 OFFCURVE",
"30 336 CURVE SMOOTH",
"30 217 OFFCURVE",
"119 194 OFFCURVE",
"214 178 CURVE SMOOTH",
"253 171 OFFCURVE",
"257 156 OFFCURVE",
"256 140 CURVE SMOOTH",
"254 114 OFFCURVE",
"224 105 OFFCURVE",
"194 105 CURVE SMOOTH",
"156 105 OFFCURVE",
"100 113 OFFCURVE",
"66 132 CURVE SMOOTH",
"57 138 OFFCURVE",
"45 144 OFFCURVE",
"41 127 CURVE SMOOTH",
"25 54 LINE",
"21 45 OFFCURVE",
"31 39 OFFCURVE",
"34 37 CURVE SMOOTH",
"76 7 OFFCURVE",
"157 -5 OFFCURVE",
"196 -5 CURVE SMOOTH",
"281 -5 OFFCURVE",
"390 33 OFFCURVE",
"390 155 CURVE SMOOTH"
);
}
);
};
layerId = "D1BC8BBB-1669-4C46-BC21-42BF6808B2B9";
paths = (
{
closed = 1;
nodes = (
"38 54 LINE SMOOTH",
"34 46 OFFCURVE",
"38 41 OFFCURVE",
"43 37 CURVE SMOOTH",
"79 6 OFFCURVE",
"157 -5 OFFCURVE",
"196 -5 CURVE SMOOTH",
"283 -5 OFFCURVE",
"398 33 OFFCURVE",
"424 155 CURVE SMOOTH",
"448 267 OFFCURVE",
"346 298 OFFCURVE",
"298 302 CURVE SMOOTH",
"260 304 OFFCURVE",
"239 317 OFFCURVE",
"244 340 CURVE SMOOTH",
"248 358 OFFCURVE",
"272 369 OFFCURVE",
"308 369 CURVE SMOOTH",
"338 369 OFFCURVE",
"378 350 OFFCURVE",
"406 334 CURVE",
"415 330 OFFCURVE",
"425 333 OFFCURVE",
"429 341 CURVE",
"471 414 LINE",
"477 425 OFFCURVE",
"479 427 OFFCURVE",
"467 437 CURVE SMOOTH",
"434 466 OFFCURVE",
"366 477 OFFCURVE",
"332 477 CURVE SMOOTH",
"221 477 OFFCURVE",
"122 427 OFFCURVE",
"102 336 CURVE SMOOTH",
"77 217 OFFCURVE",
"161 194 OFFCURVE",
"211 185 CURVE SMOOTH",
"290 171 OFFCURVE",
"291 156 OFFCURVE",
"287 140 CURVE SMOOTH",
"279 114 OFFCURVE",
"252 105 OFFCURVE",
"217 105 CURVE SMOOTH",
"179 105 OFFCURVE",
"125 113 OFFCURVE",
"95 132 CURVE",
"87 138 OFFCURVE",
"77 144 OFFCURVE",
"69 127 CURVE SMOOTH"
);
}
);
width = 415;
}
);
note = s;
unicode = 0073;
},
{
glyphname = t;
lastChange = "2021-03-17 00:25:09 +0000";
layers = (
{
background = {
paths = (
{
closed = 1;
nodes = (
"225 0 OFFCURVE",
"274 5 OFFCURVE",
"296 14 CURVE SMOOTH",
"304 18 OFFCURVE",
"306 19 OFFCURVE",
"305 25 CURVE SMOOTH",
"303 40 LINE SMOOTH",
"302 44 OFFCURVE",
"300 44 OFFCURVE",
"295 42 CURVE SMOOTH",
"270 34 OFFCURVE",
"248 29 OFFCURVE",
"227 29 CURVE SMOOTH",
"166 29 OFFCURVE",
"148 53 OFFCURVE",
"149 100 CURVE SMOOTH",
"149 160 OFFCURVE",
"166 224 OFFCURVE",
"178 283 CURVE SMOOTH",
"189 333 OFFCURVE",
"201 383 OFFCURVE",
"214 433 CURVE SMOOTH",
"215 439 OFFCURVE",
"221 442 OFFCURVE",
"224 442 CURVE SMOOTH",
"363 442 LINE SMOOTH",
"365 442 OFFCURVE",
"368 446 OFFCURVE",
"368 446 CURVE",
"372 468 LINE SMOOTH",
"373 470 OFFCURVE",
"371 472 OFFCURVE",
"369 472 CURVE SMOOTH",
"230 472 LINE SMOOTH",
"224 472 OFFCURVE",
"223 476 OFFCURVE",
"225 481 CURVE",
"249 572 LINE SMOOTH",
"249 575 OFFCURVE",
"247 576 OFFCURVE",
"245 576 CURVE SMOOTH",
"219 576 LINE SMOOTH",
"217 576 OFFCURVE",
"216 575 OFFCURVE",
"216 572 CURVE SMOOTH",
"191 480 LINE SMOOTH",
"189 473 OFFCURVE",
"186 472 OFFCURVE",
"181 472 CURVE SMOOTH",
"124 472 LINE SMOOTH",
"122 472 OFFCURVE",
"119 468 OFFCURVE",
"119 468 CURVE",
"115 446 LINE",
"115 446 OFFCURVE",
"116 442 OFFCURVE",
"118 442 CURVE SMOOTH",
"175 442 LINE SMOOTH",
"180 442 OFFCURVE",
"182 438 OFFCURVE",
"181 433 CURVE SMOOTH",
"168 385 OFFCURVE",
"156 336 OFFCURVE",
"146 287 CURVE SMOOTH",
"131 218 OFFCURVE",
"115 153 OFFCURVE",
"114 96 CURVE SMOOTH",
"112 34 OFFCURVE",
"138 0 OFFCURVE",
"216 0 CURVE SMOOTH"
);
}
);
};
hints = (
{
horizontal = 1;
place = "{-8, 30}";
type = Stem;
},
{
horizontal = 1;
place = "{254, 28}";
type = Stem;
},
{
horizontal = 1;
place = "{442, 30}";
type = Stem;
},
{
horizontal = 1;
place = "{682, 30}";
type = Stem;
},
{
place = "{43, 34}";
type = Stem;
},
{
place = "{89, 33}";
type = Stem;
},
{
place = "{130, 33}";
type = Stem;
},
{
place = "{384, 33}";
type = Stem;
},
{
horizontal = 1;
place = "{446, 31}";
type = Stem;
},
{
horizontal = 1;
place = "{4, 21}";
target = up;
type = BottomGhost;
},
{
horizontal = 1;
place = "{13, 29}";
type = Stem;
},
{
horizontal = 1;
place = "{0, 29}";
type = Stem;
}
);
layerId = "707362F1-A677-446A-8636-E10BE3A7FAFF";
paths = (
{
closed = 1;
nodes = (
"225 0 OFFCURVE",
"274 5 OFFCURVE",
"296 14 CURVE SMOOTH",
"304 18 OFFCURVE",
"306 19 OFFCURVE",
"305 25 CURVE SMOOTH",
"303 40 LINE SMOOTH",
"302 44 OFFCURVE",
"300 44 OFFCURVE",
"295 42 CURVE SMOOTH",
"270 34 OFFCURVE",
"248 29 OFFCURVE",
"227 29 CURVE SMOOTH",
"166 29 OFFCURVE",
"148 53 OFFCURVE",
"149 100 CURVE SMOOTH",
"149 160 OFFCURVE",
"166 224 OFFCURVE",
"178 283 CURVE SMOOTH",
"189 333 OFFCURVE",
"201 383 OFFCURVE",
"214 433 CURVE SMOOTH",
"215 439 OFFCURVE",
"221 442 OFFCURVE",
"224 442 CURVE SMOOTH",
"363 442 LINE SMOOTH",
"365 442 OFFCURVE",
"368 446 OFFCURVE",
"368 446 CURVE",
"372 468 LINE SMOOTH",
"373 470 OFFCURVE",
"371 472 OFFCURVE",
"369 472 CURVE SMOOTH",
"230 472 LINE SMOOTH",
"224 472 OFFCURVE",
"223 476 OFFCURVE",
"225 481 CURVE",
"249 572 LINE SMOOTH",
"249 575 OFFCURVE",
"247 576 OFFCURVE",
"245 576 CURVE SMOOTH",
"219 576 LINE SMOOTH",
"217 576 OFFCURVE",
"216 575 OFFCURVE",
"216 572 CURVE SMOOTH",
"191 480 LINE SMOOTH",
"189 473 OFFCURVE",
"186 472 OFFCURVE",
"181 472 CURVE SMOOTH",
"124 472 LINE SMOOTH",
"122 472 OFFCURVE",
"119 468 OFFCURVE",
"119 468 CURVE",
"115 446 LINE",
"115 446 OFFCURVE",
"116 442 OFFCURVE",
"118 442 CURVE SMOOTH",
"175 442 LINE SMOOTH",
"180 442 OFFCURVE",
"182 438 OFFCURVE",
"181 433 CURVE SMOOTH",
"168 385 OFFCURVE",
"156 336 OFFCURVE",
"146 287 CURVE SMOOTH",
"131 218 OFFCURVE",
"115 153 OFFCURVE",
"114 96 CURVE SMOOTH",
"112 34 OFFCURVE",
"138 0 OFFCURVE",
"216 0 CURVE SMOOTH"
);
}
);
width = 341;
},
{
background = {
paths = (
{
closed = 1;
nodes = (
"127 572 LINE SMOOTH",
"127 575 OFFCURVE",
"125 576 OFFCURVE",
"123 576 CURVE SMOOTH",
"97 576 LINE SMOOTH",
"95 576 OFFCURVE",
"94 575 OFFCURVE",
"94 572 CURVE SMOOTH",
"89 480 LINE SMOOTH",
"88 473 OFFCURVE",
"86 472 OFFCURVE",
"81 472 CURVE SMOOTH",
"24 472 LINE SMOOTH",
"22 472 OFFCURVE",
"20 468 OFFCURVE",
"20 468 CURVE",
"20 446 LINE",
"20 446 OFFCURVE",
"22 442 OFFCURVE",
"24 442 CURVE SMOOTH",
"81 442 LINE SMOOTH",
"86 442 OFFCURVE",
"89 438 OFFCURVE",
"89 433 CURVE SMOOTH",
"86 385 OFFCURVE",
"85 336 OFFCURVE",
"85 287 CURVE SMOOTH",
"85 218 OFFCURVE",
"82 153 OFFCURVE",
"94 96 CURVE SMOOTH",
"105 34 OFFCURVE",
"138 0 OFFCURVE",
"216 0 CURVE SMOOTH",
"225 0 OFFCURVE",
"273 5 OFFCURVE",
"293 14 CURVE SMOOTH",
"300 18 OFFCURVE",
"302 19 OFFCURVE",
"300 25 CURVE SMOOTH",
"294 40 LINE SMOOTH",
"293 44 OFFCURVE",
"291 44 OFFCURVE",
"286 42 CURVE SMOOTH",
"263 34 OFFCURVE",
"242 29 OFFCURVE",
"221 29 CURVE SMOOTH",
"160 29 OFFCURVE",
"137 53 OFFCURVE",
"128 100 CURVE SMOOTH",
"115 160 OFFCURVE",
"118 224 OFFCURVE",
"118 283 CURVE SMOOTH",
"118 333 OFFCURVE",
"120 383 OFFCURVE",
"122 433 CURVE SMOOTH",
"122 439 OFFCURVE",
"127 442 OFFCURVE",
"130 442 CURVE SMOOTH",
"269 442 LINE SMOOTH",
"271 442 OFFCURVE",
"273 446 OFFCURVE",
"273 446 CURVE",
"273 468 LINE SMOOTH",
"273 470 OFFCURVE",
"271 472 OFFCURVE",
"269 472 CURVE SMOOTH",
"130 472 LINE SMOOTH",
"124 472 OFFCURVE",
"122 476 OFFCURVE",
"123 481 CURVE"
);
}
);
};
layerId = "D1BC8BBB-1669-4C46-BC21-42BF6808B2B9";
paths = (
{
closed = 1;
nodes = (
"265 0 OFFCURVE",
"293 5 OFFCURVE",
"320 14 CURVE SMOOTH",
"348 24 OFFCURVE",
"359 31 OFFCURVE",
"356 42 CURVE",
"351 111 LINE",
"348 125 OFFCURVE",
"348 130 OFFCURVE",
"329 120 CURVE",
"320 117 OFFCURVE",
"304 111 OFFCURVE",
"289 111 CURVE SMOOTH",
"273 111 OFFCURVE",
"260 118 OFFCURVE",
"259 140 CURVE SMOOTH",
"258 180 OFFCURVE",
"266 226 OFFCURVE",
"275 270 CURVE SMOOTH",
"284 304 OFFCURVE",
"292 337 OFFCURVE",
"299 368 CURVE SMOOTH",
"302 379 OFFCURVE",
"304 383 OFFCURVE",
"314 383 CURVE SMOOTH",
"386 383 LINE SMOOTH",
"401 383 OFFCURVE",
"405 385 OFFCURVE",
"408 400 CURVE SMOOTH",
"419 453 LINE SMOOTH",
"423 471 OFFCURVE",
"423 472 OFFCURVE",
"407 472 CURVE SMOOTH",
"334 472 LINE SMOOTH",
"326 472 OFFCURVE",
"326 473 OFFCURVE",
"330 490 CURVE SMOOTH",
"350 562 LINE SMOOTH",
"352 570 OFFCURVE",
"345 576 OFFCURVE",
"337 576 CURVE SMOOTH",
"223 576 LINE SMOOTH",
"214 576 OFFCURVE",
"208 570 OFFCURVE",
"206 562 CURVE SMOOTH",
"187 491 LINE SMOOTH",
"184 478 OFFCURVE",
"182 472 OFFCURVE",
"172 472 CURVE SMOOTH",
"133 472 LINE SMOOTH",
"117 472 OFFCURVE",
"116 473 OFFCURVE",
"112 455 CURVE SMOOTH",
"100 399 LINE SMOOTH",
"96 383 OFFCURVE",
"99 383 OFFCURVE",
"111 383 CURVE SMOOTH",
"149 383 LINE SMOOTH",
"155 383 OFFCURVE",
"158 381 OFFCURVE",
"156 373 CURVE SMOOTH",
"147 340 OFFCURVE",
"143 319 OFFCURVE",
"135 282 CURVE SMOOTH",
"123 225 OFFCURVE",
"109 166 OFFCURVE",
"108 110 CURVE SMOOTH",
"109 40 OFFCURVE",
"142 0 OFFCURVE",
"235 0 CURVE SMOOTH"
);
}
);
width = 373;
}
);
note = t;
unicode = 0074;
},
{
glyphname = u;
lastChange = "2021-03-17 00:25:09 +0000";
layers = (
{
background = {
paths = (
{
closed = 1;
nodes = (
"292 -4 OFFCURVE",
"367 13 OFFCURVE",
"382 19 CURVE SMOOTH",
"406 27 OFFCURVE",
"413 32 OFFCURVE",
"416 48 CURVE SMOOTH",
"505 468 LINE SMOOTH",
"506 471 OFFCURVE",
"504 472 OFFCURVE",
"502 472 CURVE SMOOTH",
"476 472 LINE SMOOTH",
"474 472 OFFCURVE",
"473 471 OFFCURVE",
"472 468 CURVE SMOOTH",
"388 71 LINE SMOOTH",
"381 38 OFFCURVE",
"275 28 OFFCURVE",
"248 28 CURVE SMOOTH",
"142 28 OFFCURVE",
"116 104 OFFCURVE",
"140 215 CURVE SMOOTH",
"162 320 OFFCURVE",
"195 444 OFFCURVE",
"201 465 CURVE SMOOTH",
"203 471 OFFCURVE",
"202 472 OFFCURVE",
"196 472 CURVE SMOOTH",
"179 472 LINE SMOOTH",
"173 472 OFFCURVE",
"170 471 OFFCURVE",
"168 467 CURVE",
"159 431 OFFCURVE",
"129 322 OFFCURVE",
"107 219 CURVE SMOOTH",
"81 94 OFFCURVE",
"97 -4 OFFCURVE",
"243 -4 CURVE SMOOTH"
);
}
);
};
hints = (
{
horizontal = 1;
place = "{-5, 32}";
type = Stem;
},
{
horizontal = 1;
place = "{448, 32}";
type = Stem;
},
{
place = "{59, 34}";
type = Stem;
},
{
place = "{384, 34}";
type = Stem;
},
{
horizontal = 1;
place = "{473, -20}";
target = down;
type = TopGhost;
},
{
place = "{373, 34}";
type = Stem;
}
);
layerId = "707362F1-A677-446A-8636-E10BE3A7FAFF";
paths = (
{
closed = 1;
nodes = (
"292 -4 OFFCURVE",
"367 13 OFFCURVE",
"382 19 CURVE SMOOTH",
"406 27 OFFCURVE",
"413 32 OFFCURVE",
"416 48 CURVE SMOOTH",
"505 468 LINE SMOOTH",
"506 471 OFFCURVE",
"504 472 OFFCURVE",
"502 472 CURVE SMOOTH",
"476 472 LINE SMOOTH",
"474 472 OFFCURVE",
"473 471 OFFCURVE",
"472 468 CURVE SMOOTH",
"388 71 LINE SMOOTH",
"381 38 OFFCURVE",
"275 28 OFFCURVE",
"248 28 CURVE SMOOTH",
"142 28 OFFCURVE",
"116 104 OFFCURVE",
"140 215 CURVE SMOOTH",
"162 320 OFFCURVE",
"195 444 OFFCURVE",
"201 465 CURVE SMOOTH",
"203 471 OFFCURVE",
"202 472 OFFCURVE",
"196 472 CURVE SMOOTH",
"179 472 LINE SMOOTH",
"173 472 OFFCURVE",
"170 471 OFFCURVE",
"168 467 CURVE",
"159 431 OFFCURVE",
"129 322 OFFCURVE",
"107 219 CURVE SMOOTH",
"81 94 OFFCURVE",
"97 -4 OFFCURVE",
"243 -4 CURVE SMOOTH"
);
}
);
width = 465;
},
{
background = {
paths = (
{
closed = 1;
nodes = (
"40 100 OFFCURVE",
"81 -4 OFFCURVE",
"250 -4 CURVE SMOOTH",
"299 -4 OFFCURVE",
"374 12 OFFCURVE",
"398 20 CURVE SMOOTH",
"429 31 OFFCURVE",
"436 34 OFFCURVE",
"436 50 CURVE SMOOTH",
"436 457 LINE SMOOTH",
"436 471 OFFCURVE",
"425 472 OFFCURVE",
"420 472 CURVE SMOOTH",
"300 472 LINE SMOOTH",
"291 472 OFFCURVE",
"291 460 OFFCURVE",
"291 452 CURVE SMOOTH",
"291 125 LINE SMOOTH",
"291 109 OFFCURVE",
"265 109 OFFCURVE",
"254 109 CURVE SMOOTH",
"197 109 OFFCURVE",
"192 189 OFFCURVE",
"192 218 CURVE SMOOTH",
"192 299 OFFCURVE",
"195 385 OFFCURVE",
"198 417 CURVE SMOOTH",
"201 451 LINE SMOOTH",
"205 478 OFFCURVE",
"195 472 OFFCURVE",
"175 472 CURVE SMOOTH",
"81 472 LINE SMOOTH",
"60 472 OFFCURVE",
"57 472 OFFCURVE",
"54 444 CURVE SMOOTH",
"45 376 OFFCURVE",
"40 291 OFFCURVE",
"40 222 CURVE SMOOTH"
);
}
);
};
layerId = "D1BC8BBB-1669-4C46-BC21-42BF6808B2B9";
paths = (
{
closed = 1;
nodes = (
"299 -4 OFFCURVE",
"377 12 OFFCURVE",
"403 20 CURVE SMOOTH",
"436 31 OFFCURVE",
"444 34 OFFCURVE",
"447 50 CURVE SMOOTH",
"534 457 LINE SMOOTH",
"537 471 OFFCURVE",
"526 472 OFFCURVE",
"521 472 CURVE SMOOTH",
"401 472 LINE SMOOTH",
"392 472 OFFCURVE",
"390 460 OFFCURVE",
"388 452 CURVE SMOOTH",
"318 125 LINE SMOOTH",
"315 109 OFFCURVE",
"289 109 OFFCURVE",
"278 109 CURVE SMOOTH",
"233 109 OFFCURVE",
"222 139 OFFCURVE",
"239 218 CURVE SMOOTH",
"256 298 OFFCURVE",
"294 440 OFFCURVE",
"298 451 CURVE SMOOTH",
"307 478 OFFCURVE",
"296 472 OFFCURVE",
"276 472 CURVE SMOOTH",
"182 472 LINE SMOOTH",
"161 472 OFFCURVE",
"158 472 OFFCURVE",
"149 444 CURVE SMOOTH",
"126 376 OFFCURVE",
"103 291 OFFCURVE",
"88 222 CURVE SMOOTH",
"62 100 OFFCURVE",
"81 -4 OFFCURVE",
"250 -4 CURVE SMOOTH"
);
}
);
width = 476;
}
);
note = u;
unicode = 0075;
},
{
glyphname = v;
lastChange = "2021-03-17 00:25:09 +0000";
layers = (
{
background = {
paths = (
{
closed = 1;
nodes = (
"182 0 OFFCURVE",
"206 0 OFFCURVE",
"212 0 CURVE SMOOTH",
"215 0 OFFCURVE",
"218 1 OFFCURVE",
"221 6 CURVE SMOOTH",
"265 67 OFFCURVE",
"307 137 OFFCURVE",
"343 204 CURVE SMOOTH",
"398 306 OFFCURVE",
"441 403 OFFCURVE",
"462 465 CURVE SMOOTH",
"464 471 OFFCURVE",
"462 472 OFFCURVE",
"458 472 CURVE SMOOTH",
"435 472 LINE SMOOTH",
"431 472 OFFCURVE",
"427 471 OFFCURVE",
"425 465 CURVE SMOOTH",
"406 410 OFFCURVE",
"364 317 OFFCURVE",
"321 230 CURVE SMOOTH",
"280 150 OFFCURVE",
"237 76 OFFCURVE",
"209 44 CURVE SMOOTH",
"207 40 OFFCURVE",
"201 39 OFFCURVE",
"200 44 CURVE",
"185 80 OFFCURVE",
"172 168 OFFCURVE",
"165 257 CURVE SMOOTH",
"158 336 OFFCURVE",
"156 416 OFFCURVE",
"161 465 CURVE SMOOTH",
"161 471 OFFCURVE",
"157 472 OFFCURVE",
"154 472 CURVE SMOOTH",
"130 472 LINE SMOOTH",
"127 472 OFFCURVE",
"124 471 OFFCURVE",
"124 465 CURVE SMOOTH",
"119 400 OFFCURVE",
"121 296 OFFCURVE",
"133 190 CURVE SMOOTH",
"141 127 OFFCURVE",
"152 63 OFFCURVE",
"169 6 CURVE SMOOTH",
"171 0 OFFCURVE",
"173 0 OFFCURVE",
"178 0 CURVE SMOOTH"
);
}
);
};
hints = (
{
horizontal = 1;
place = "{0, 37}";
type = Stem;
},
{
horizontal = 1;
place = "{472, -20}";
target = down;
type = TopGhost;
},
{
place = "{38, 335}";
type = Stem;
}
);
layerId = "707362F1-A677-446A-8636-E10BE3A7FAFF";
paths = (
{
closed = 1;
nodes = (
"182 0 OFFCURVE",
"206 0 OFFCURVE",
"212 0 CURVE SMOOTH",
"215 0 OFFCURVE",
"218 1 OFFCURVE",
"221 6 CURVE SMOOTH",
"265 67 OFFCURVE",
"307 137 OFFCURVE",
"343 204 CURVE SMOOTH",
"398 306 OFFCURVE",
"441 403 OFFCURVE",
"462 465 CURVE SMOOTH",
"464 471 OFFCURVE",
"462 472 OFFCURVE",
"458 472 CURVE SMOOTH",
"435 472 LINE SMOOTH",
"431 472 OFFCURVE",
"427 471 OFFCURVE",
"425 465 CURVE SMOOTH",
"406 410 OFFCURVE",
"364 317 OFFCURVE",
"321 230 CURVE SMOOTH",
"280 150 OFFCURVE",
"237 76 OFFCURVE",
"209 44 CURVE SMOOTH",
"207 40 OFFCURVE",
"201 39 OFFCURVE",
"200 44 CURVE",
"185 80 OFFCURVE",
"172 168 OFFCURVE",
"165 257 CURVE SMOOTH",
"158 336 OFFCURVE",
"156 416 OFFCURVE",
"161 465 CURVE SMOOTH",
"161 471 OFFCURVE",
"157 472 OFFCURVE",
"154 472 CURVE SMOOTH",
"130 472 LINE SMOOTH",
"127 472 OFFCURVE",
"124 471 OFFCURVE",
"124 465 CURVE SMOOTH",
"119 400 OFFCURVE",
"121 296 OFFCURVE",
"133 190 CURVE SMOOTH",
"141 127 OFFCURVE",
"152 63 OFFCURVE",
"169 6 CURVE SMOOTH",
"171 0 OFFCURVE",
"173 0 OFFCURVE",
"178 0 CURVE SMOOTH"
);
}
);
width = 388;
},
{
background = {
paths = (
{
closed = 1;
nodes = (
"424 457 OFFCURVE",
"425 472 OFFCURVE",
"410 472 CURVE SMOOTH",
"308 472 LINE SMOOTH",
"287 472 OFFCURVE",
"283 466 OFFCURVE",
"281 453 CURVE SMOOTH",
"276 419 OFFCURVE",
"273 386 OFFCURVE",
"263 339 CURVE SMOOTH",
"253 278 OFFCURVE",
"246 245 OFFCURVE",
"235 206 CURVE SMOOTH",
"229 186 OFFCURVE",
"223 191 OFFCURVE",
"218 209 CURVE SMOOTH",
"209 241 OFFCURVE",
"200 287 OFFCURVE",
"189 339 CURVE SMOOTH",
"182 380 OFFCURVE",
"171 420 OFFCURVE",
"168 457 CURVE SMOOTH",
"167 467 OFFCURVE",
"161 472 OFFCURVE",
"150 472 CURVE SMOOTH",
"27 472 LINE SMOOTH",
"12 472 OFFCURVE",
"14 454 OFFCURVE",
"18 432 CURVE SMOOTH",
"27 374 OFFCURVE",
"53 282 OFFCURVE",
"87 188 CURVE SMOOTH",
"110 127 OFFCURVE",
"134 72 OFFCURVE",
"161 18 CURVE SMOOTH",
"170 1 OFFCURVE",
"170 0 OFFCURVE",
"184 0 CURVE SMOOTH",
"254 0 LINE SMOOTH",
"266 0 OFFCURVE",
"272 5 OFFCURVE",
"279 18 CURVE SMOOTH",
"309 70 OFFCURVE",
"334 130 OFFCURVE",
"354 186 CURVE SMOOTH",
"388 281 OFFCURVE",
"411 373 OFFCURVE",
"421 437 CURVE SMOOTH"
);
}
);
};
layerId = "D1BC8BBB-1669-4C46-BC21-42BF6808B2B9";
paths = (
{
closed = 1;
nodes = (
"188 0 OFFCURVE",
"256 -1 OFFCURVE",
"263 -1 CURVE SMOOTH",
"267 -1 OFFCURVE",
"269 0 OFFCURVE",
"273 5 CURVE SMOOTH",
"324 70 OFFCURVE",
"362 129 OFFCURVE",
"394 186 CURVE SMOOTH",
"448 281 OFFCURVE",
"490 373 OFFCURVE",
"523 464 CURVE SMOOTH",
"525 470 OFFCURVE",
"523 471 OFFCURVE",
"519 471 CURVE SMOOTH",
"387 471 LINE SMOOTH",
"385 471 OFFCURVE",
"383 470 OFFCURVE",
"381 466 CURVE SMOOTH",
"370 429 OFFCURVE",
"347 366 OFFCURVE",
"324 308 CURVE SMOOTH",
"301 254 OFFCURVE",
"291 228 OFFCURVE",
"279 206 CURVE SMOOTH",
"273 195 OFFCURVE",
"262 188 OFFCURVE",
"263 209 CURVE",
"260 241 OFFCURVE",
"259 272 OFFCURVE",
"260 332 CURVE SMOOTH",
"260 385 OFFCURVE",
"260 420 OFFCURVE",
"265 457 CURVE SMOOTH",
"266 464 OFFCURVE",
"262 472 OFFCURVE",
"251 472 CURVE SMOOTH",
"128 472 LINE SMOOTH",
"113 472 OFFCURVE",
"111 454 OFFCURVE",
"110 432 CURVE SMOOTH",
"108 370 OFFCURVE",
"110 296 OFFCURVE",
"128 190 CURVE SMOOTH",
"138 127 OFFCURVE",
"148 61 OFFCURVE",
"173 6 CURVE SMOOTH",
"176 0 OFFCURVE",
"178 0 OFFCURVE",
"184 0 CURVE SMOOTH"
);
}
);
width = 439;
}
);
note = v;
unicode = 0076;
},
{
glyphname = w;
lastChange = "2021-03-17 00:25:09 +0000";
layers = (
{
background = {
paths = (
{
closed = 1;
nodes = (
"171 0 OFFCURVE",
"173 0 OFFCURVE",
"178 0 CURVE SMOOTH",
"212 0 LINE SMOOTH",
"215 0 OFFCURVE",
"218 1 OFFCURVE",
"221 6 CURVE SMOOTH",
"234 25 OFFCURVE",
"249 45 OFFCURVE",
"262 65 CURVE SMOOTH",
"290 110 OFFCURVE",
"318 157 OFFCURVE",
"342 204 CURVE",
"348 212 OFFCURVE",
"353 214 OFFCURVE",
"354 204 CURVE SMOOTH",
"358 154 OFFCURVE",
"372 67 OFFCURVE",
"391 6 CURVE",
"392 0 OFFCURVE",
"395 0 OFFCURVE",
"399 0 CURVE SMOOTH",
"434 0 LINE SMOOTH",
"437 0 OFFCURVE",
"440 1 OFFCURVE",
"443 6 CURVE SMOOTH",
"553 158 OFFCURVE",
"648 362 OFFCURVE",
"684 465 CURVE SMOOTH",
"686 471 OFFCURVE",
"684 472 OFFCURVE",
"680 472 CURVE SMOOTH",
"656 472 LINE SMOOTH",
"653 472 OFFCURVE",
"649 471 OFFCURVE",
"647 465 CURVE SMOOTH",
"612 360 OFFCURVE",
"490 111 OFFCURVE",
"431 44 CURVE SMOOTH",
"428 40 OFFCURVE",
"423 39 OFFCURVE",
"421 44 CURVE SMOOTH",
"406 81 OFFCURVE",
"374 270 OFFCURVE",
"384 317 CURVE SMOOTH",
"401 395 OFFCURVE",
"409 439 OFFCURVE",
"415 465 CURVE SMOOTH",
"416 471 OFFCURVE",
"411 472 OFFCURVE",
"408 472 CURVE SMOOTH",
"386 472 LINE SMOOTH",
"382 472 OFFCURVE",
"381 471 OFFCURVE",
"380 465 CURVE SMOOTH",
"374 439 OFFCURVE",
"355 342 OFFCURVE",
"350 318 CURVE SMOOTH",
"339 269 OFFCURVE",
"265 107 OFFCURVE",
"209 44 CURVE SMOOTH",
"207 40 OFFCURVE",
"201 39 OFFCURVE",
"200 44 CURVE",
"172 111 OFFCURVE",
"152 360 OFFCURVE",
"161 465 CURVE SMOOTH",
"161 471 OFFCURVE",
"157 472 OFFCURVE",
"154 472 CURVE SMOOTH",
"130 472 LINE SMOOTH",
"127 472 OFFCURVE",
"124 471 OFFCURVE",
"124 465 CURVE SMOOTH",
"117 362 OFFCURVE",
"125 158 OFFCURVE",
"169 6 CURVE SMOOTH"
);
}
);
};
hints = (
{
horizontal = 1;
place = "{0, 37}";
type = Stem;
},
{
horizontal = 1;
place = "{472, -20}";
target = down;
type = TopGhost;
},
{
place = "{38, 549}";
type = Stem;
}
);
layerId = "707362F1-A677-446A-8636-E10BE3A7FAFF";
paths = (
{
closed = 1;
nodes = (
"171 0 OFFCURVE",
"173 0 OFFCURVE",
"178 0 CURVE SMOOTH",
"212 0 LINE SMOOTH",
"215 0 OFFCURVE",
"218 1 OFFCURVE",
"221 6 CURVE SMOOTH",
"234 25 OFFCURVE",
"249 45 OFFCURVE",
"262 65 CURVE SMOOTH",
"290 110 OFFCURVE",
"318 157 OFFCURVE",
"342 204 CURVE",
"348 212 OFFCURVE",
"353 214 OFFCURVE",
"354 204 CURVE SMOOTH",
"358 154 OFFCURVE",
"372 67 OFFCURVE",
"391 6 CURVE",
"392 0 OFFCURVE",
"395 0 OFFCURVE",
"399 0 CURVE SMOOTH",
"434 0 LINE SMOOTH",
"437 0 OFFCURVE",
"440 1 OFFCURVE",
"443 6 CURVE SMOOTH",
"553 158 OFFCURVE",
"648 362 OFFCURVE",
"684 465 CURVE SMOOTH",
"686 471 OFFCURVE",
"684 472 OFFCURVE",
"680 472 CURVE SMOOTH",
"656 472 LINE SMOOTH",
"653 472 OFFCURVE",
"649 471 OFFCURVE",
"647 465 CURVE SMOOTH",
"612 360 OFFCURVE",
"490 111 OFFCURVE",
"431 44 CURVE SMOOTH",
"428 40 OFFCURVE",
"423 39 OFFCURVE",
"421 44 CURVE SMOOTH",
"406 81 OFFCURVE",
"374 270 OFFCURVE",
"384 317 CURVE SMOOTH",
"401 395 OFFCURVE",
"409 439 OFFCURVE",
"415 465 CURVE SMOOTH",
"416 471 OFFCURVE",
"411 472 OFFCURVE",
"408 472 CURVE SMOOTH",
"386 472 LINE SMOOTH",
"382 472 OFFCURVE",
"381 471 OFFCURVE",
"380 465 CURVE SMOOTH",
"374 439 OFFCURVE",
"355 342 OFFCURVE",
"350 318 CURVE SMOOTH",
"339 269 OFFCURVE",
"265 107 OFFCURVE",
"209 44 CURVE SMOOTH",
"207 40 OFFCURVE",
"201 39 OFFCURVE",
"200 44 CURVE",
"172 111 OFFCURVE",
"152 360 OFFCURVE",
"161 465 CURVE SMOOTH",
"161 471 OFFCURVE",
"157 472 OFFCURVE",
"154 472 CURVE SMOOTH",
"130 472 LINE SMOOTH",
"127 472 OFFCURVE",
"124 471 OFFCURVE",
"124 465 CURVE SMOOTH",
"117 362 OFFCURVE",
"125 158 OFFCURVE",
"169 6 CURVE SMOOTH"
);
}
);
width = 610;
},
{
background = {
paths = (
{
closed = 1;
nodes = (
"653 457 OFFCURVE",
"654 472 OFFCURVE",
"639 472 CURVE SMOOTH",
"537 472 LINE SMOOTH",
"516 472 OFFCURVE",
"512 466 OFFCURVE",
"510 453 CURVE SMOOTH",
"505 419 OFFCURVE",
"499 388 OFFCURVE",
"491 355 CURVE SMOOTH",
"484 321 OFFCURVE",
"467 243 OFFCURVE",
"457 201 CURVE SMOOTH",
"456 194 OFFCURVE",
"451 178 OFFCURVE",
"447 192 CURVE SMOOTH",
"436 235 OFFCURVE",
"424 287 OFFCURVE",
"417 327 CURVE SMOOTH",
"407 388 OFFCURVE",
"397 457 OFFCURVE",
"397 457 CURVE",
"394 467 OFFCURVE",
"388 472 OFFCURVE",
"378 472 CURVE SMOOTH",
"256 472 LINE SMOOTH",
"241 472 OFFCURVE",
"243 454 OFFCURVE",
"248 432 CURVE",
"249 418 OFFCURVE",
"253 401 OFFCURVE",
"256 383 CURVE SMOOTH",
"264 333 OFFCURVE",
"255 257 OFFCURVE",
"239 211 CURVE SMOOTH",
"236 204 OFFCURVE",
"230 178 OFFCURVE",
"227 192 CURVE SMOOTH",
"215 235 OFFCURVE",
"195 323 OFFCURVE",
"188 358 CURVE SMOOTH",
"180 398 OFFCURVE",
"168 457 OFFCURVE",
"168 457 CURVE",
"167 467 OFFCURVE",
"161 472 OFFCURVE",
"150 472 CURVE SMOOTH",
"27 472 LINE SMOOTH",
"12 472 OFFCURVE",
"14 454 OFFCURVE",
"18 432 CURVE SMOOTH",
"27 374 OFFCURVE",
"53 282 OFFCURVE",
"87 188 CURVE SMOOTH",
"110 127 OFFCURVE",
"136 64 OFFCURVE",
"161 18 CURVE SMOOTH",
"169 1 OFFCURVE",
"170 0 OFFCURVE",
"184 0 CURVE SMOOTH",
"254 0 LINE SMOOTH",
"266 0 OFFCURVE",
"270 6 OFFCURVE",
"279 18 CURVE",
"295 48 OFFCURVE",
"313 80 OFFCURVE",
"326 112 CURVE SMOOTH",
"332 130 OFFCURVE",
"340 123 OFFCURVE",
"345 112 CURVE SMOOTH",
"360 78 OFFCURVE",
"375 45 OFFCURVE",
"390 18 CURVE SMOOTH",
"399 1 OFFCURVE",
"400 0 OFFCURVE",
"413 0 CURVE SMOOTH",
"483 0 LINE SMOOTH",
"496 0 OFFCURVE",
"500 6 OFFCURVE",
"508 18 CURVE",
"538 73 OFFCURVE",
"563 130 OFFCURVE",
"583 186 CURVE SMOOTH",
"617 281 OFFCURVE",
"640 373 OFFCURVE",
"650 437 CURVE SMOOTH"
);
}
);
};
layerId = "D1BC8BBB-1669-4C46-BC21-42BF6808B2B9";
paths = (
{
closed = 1;
nodes = (
"170 1 OFFCURVE",
"169 0 OFFCURVE",
"184 0 CURVE SMOOTH",
"254 0 LINE SMOOTH",
"265 0 OFFCURVE",
"272 6 OFFCURVE",
"278 12 CURVE SMOOTH",
"283 18 OFFCURVE",
"302 43 OFFCURVE",
"315 61 CURVE SMOOTH",
"324 73 OFFCURVE",
"348 108 OFFCURVE",
"350 112 CURVE SMOOTH",
"360 130 OFFCURVE",
"366 127 OFFCURVE",
"369 112 CURVE SMOOTH",
"374 80 OFFCURVE",
"390 26 OFFCURVE",
"397 12 CURVE SMOOTH",
"401 2 OFFCURVE",
"403 0 OFFCURVE",
"413 0 CURVE SMOOTH",
"488 0 LINE SMOOTH",
"496 0 OFFCURVE",
"501 6 OFFCURVE",
"512 18 CURVE SMOOTH",
"579 90 OFFCURVE",
"699 315 OFFCURVE",
"743 437 CURVE SMOOTH",
"750 457 OFFCURVE",
"754 472 OFFCURVE",
"739 472 CURVE SMOOTH",
"634 472 LINE SMOOTH",
"620 472 OFFCURVE",
"611 467 OFFCURVE",
"606 453 CURVE SMOOTH",
"568 350 OFFCURVE",
"519 243 OFFCURVE",
"496 194 CURVE SMOOTH",
"492 185 OFFCURVE",
"489 185 OFFCURVE",
"487 194 CURVE SMOOTH",
"482 219 OFFCURVE",
"482 264 OFFCURVE",
"487 315 CURVE SMOOTH",
"491 363 OFFCURVE",
"503 417 OFFCURVE",
"511 456 CURVE SMOOTH",
"513 466 OFFCURVE",
"508 471 OFFCURVE",
"500 471 CURVE SMOOTH",
"372 471 LINE SMOOTH",
"363 471 OFFCURVE",
"356 467 OFFCURVE",
"354 455 CURVE SMOOTH",
"348 428 OFFCURVE",
"340 380 OFFCURVE",
"329 329 CURVE SMOOTH",
"321 293 OFFCURVE",
"296 225 OFFCURVE",
"275 195 CURVE SMOOTH",
"274 192 OFFCURVE",
"269 187 OFFCURVE",
"268 198 CURVE SMOOTH",
"265 235 OFFCURVE",
"264 358 OFFCURVE",
"265 457 CURVE SMOOTH",
"265 467 OFFCURVE",
"261 472 OFFCURVE",
"250 472 CURVE SMOOTH",
"127 472 LINE SMOOTH",
"112 472 OFFCURVE",
"111 454 OFFCURVE",
"110 432 CURVE SMOOTH",
"106 331 OFFCURVE",
"123 158 OFFCURVE",
"165 18 CURVE SMOOTH"
);
}
);
width = 667;
}
);
note = w;
unicode = 0077;
},
{
glyphname = x;
lastChange = "2021-03-17 00:25:09 +0000";
layers = (
{
background = {
paths = (
{
closed = 1;
nodes = (
"65 0 LINE SMOOTH",
"67 0 OFFCURVE",
"70 0 OFFCURVE",
"73 7 CURVE",
"73 7 OFFCURVE",
"162 165 OFFCURVE",
"239 234 CURVE",
"251 234 OFFCURVE",
"262 234 OFFCURVE",
"274 234 CURVE",
"321 165 OFFCURVE",
"341 21 OFFCURVE",
"343 7 CURVE",
"345 0 OFFCURVE",
"347 0 OFFCURVE",
"349 0 CURVE SMOOTH",
"375 0 LINE SMOOTH",
"379 0 OFFCURVE",
"380 2 OFFCURVE",
"380 6 CURVE",
"379 18 OFFCURVE",
"359 144 OFFCURVE",
"312 238 CURVE SMOOTH",
"308 245 OFFCURVE",
"307 250 OFFCURVE",
"314 256 CURVE",
"394 341 OFFCURVE",
"459 466 OFFCURVE",
"459 466 CURVE",
"461 471 OFFCURVE",
"460 472 OFFCURVE",
"456 472 CURVE SMOOTH",
"433 472 LINE SMOOTH",
"430 472 OFFCURVE",
"428 472 OFFCURVE",
"425 465 CURVE",
"425 465 OFFCURVE",
"349 324 OFFCURVE",
"280 263 CURVE",
"268 263 OFFCURVE",
"257 263 OFFCURVE",
"245 263 CURVE",
"202 324 OFFCURVE",
"186 465 OFFCURVE",
"186 465 CURVE",
"185 472 OFFCURVE",
"183 472 OFFCURVE",
"180 472 CURVE SMOOTH",
"157 472 LINE SMOOTH",
"153 472 OFFCURVE",
"152 471 OFFCURVE",
"152 466 CURVE",
"152 466 OFFCURVE",
"164 342 OFFCURVE",
"207 257 CURVE SMOOTH",
"210 250 OFFCURVE",
"209 244 OFFCURVE",
"202 237 CURVE SMOOTH",
"114 142 OFFCURVE",
"36 6 OFFCURVE",
"36 6 CURVE",
"34 1 OFFCURVE",
"35 0 OFFCURVE",
"39 0 CURVE SMOOTH"
);
}
);
};
hints = (
{
horizontal = 1;
place = "{4, 21}";
target = up;
type = BottomGhost;
},
{
horizontal = 1;
place = "{234, 29}";
type = Stem;
},
{
horizontal = 1;
place = "{472, -20}";
target = down;
type = TopGhost;
},
{
place = "{40, 336}";
type = Stem;
}
);
layerId = "707362F1-A677-446A-8636-E10BE3A7FAFF";
paths = (
{
closed = 1;
nodes = (
"65 0 LINE SMOOTH",
"67 0 OFFCURVE",
"70 0 OFFCURVE",
"73 7 CURVE",
"73 7 OFFCURVE",
"162 165 OFFCURVE",
"239 234 CURVE",
"251 234 OFFCURVE",
"262 234 OFFCURVE",
"274 234 CURVE",
"321 165 OFFCURVE",
"341 21 OFFCURVE",
"343 7 CURVE",
"345 0 OFFCURVE",
"347 0 OFFCURVE",
"349 0 CURVE SMOOTH",
"375 0 LINE SMOOTH",
"379 0 OFFCURVE",
"380 2 OFFCURVE",
"380 6 CURVE",
"379 18 OFFCURVE",
"359 144 OFFCURVE",
"312 238 CURVE SMOOTH",
"308 245 OFFCURVE",
"307 250 OFFCURVE",
"314 256 CURVE",
"394 341 OFFCURVE",
"459 466 OFFCURVE",
"459 466 CURVE",
"461 471 OFFCURVE",
"460 472 OFFCURVE",
"456 472 CURVE SMOOTH",
"433 472 LINE SMOOTH",
"430 472 OFFCURVE",
"428 472 OFFCURVE",
"425 465 CURVE",
"425 465 OFFCURVE",
"349 324 OFFCURVE",
"280 263 CURVE",
"268 263 OFFCURVE",
"257 263 OFFCURVE",
"245 263 CURVE",
"202 324 OFFCURVE",
"186 465 OFFCURVE",
"186 465 CURVE",
"185 472 OFFCURVE",
"183 472 OFFCURVE",
"180 472 CURVE SMOOTH",
"157 472 LINE SMOOTH",
"153 472 OFFCURVE",
"152 471 OFFCURVE",
"152 466 CURVE",
"152 466 OFFCURVE",
"164 342 OFFCURVE",
"207 257 CURVE SMOOTH",
"210 250 OFFCURVE",
"209 244 OFFCURVE",
"202 237 CURVE SMOOTH",
"114 142 OFFCURVE",
"36 6 OFFCURVE",
"36 6 CURVE",
"34 1 OFFCURVE",
"35 0 OFFCURVE",
"39 0 CURVE SMOOTH"
);
}
);
width = 414;
},
{
background = {
paths = (
{
closed = 1;
nodes = (
"159 0 LINE SMOOTH",
"170 0 OFFCURVE",
"173 1 OFFCURVE",
"177 15 CURVE SMOOTH",
"185 52 OFFCURVE",
"218 159 OFFCURVE",
"235 168 CURVE",
"256 159 OFFCURVE",
"280 62 OFFCURVE",
"290 19 CURVE SMOOTH",
"292 6 OFFCURVE",
"296 0 OFFCURVE",
"317 0 CURVE SMOOTH",
"419 0 LINE SMOOTH",
"434 0 OFFCURVE",
"434 15 OFFCURVE",
"430 35 CURVE SMOOTH",
"426 61 OFFCURVE",
"357 227 OFFCURVE",
"345 248 CURVE",
"355 264 OFFCURVE",
"416 350 OFFCURVE",
"430 437 CURVE SMOOTH",
"434 457 OFFCURVE",
"434 472 OFFCURVE",
"419 472 CURVE SMOOTH",
"317 472 LINE SMOOTH",
"296 472 OFFCURVE",
"292 466 OFFCURVE",
"290 453 CURVE SMOOTH",
"281 413 OFFCURVE",
"255 311 OFFCURVE",
"234 306 CURVE",
"218 311 OFFCURVE",
"186 419 OFFCURVE",
"177 457 CURVE SMOOTH",
"173 471 OFFCURVE",
"170 472 OFFCURVE",
"159 472 CURVE SMOOTH",
"36 472 LINE SMOOTH",
"21 472 OFFCURVE",
"22 454 OFFCURVE",
"27 432 CURVE SMOOTH",
"32 409 OFFCURVE",
"98 268 OFFCURVE",
"114 244 CURVE",
"103 221 OFFCURVE",
"35 77 OFFCURVE",
"27 40 CURVE SMOOTH",
"22 18 OFFCURVE",
"21 0 OFFCURVE",
"36 0 CURVE SMOOTH"
);
}
);
};
layerId = "D1BC8BBB-1669-4C46-BC21-42BF6808B2B9";
paths = (
{
closed = 1;
nodes = (
"157 0 LINE SMOOTH",
"170 0 OFFCURVE",
"173 1 OFFCURVE",
"180 15 CURVE",
"180 15 OFFCURVE",
"221 110 OFFCURVE",
"268 168 CURVE",
"280 168 OFFCURVE",
"259 168 OFFCURVE",
"271 168 CURVE",
"290 159 OFFCURVE",
"293 62 OFFCURVE",
"294 19 CURVE",
"293 6 OFFCURVE",
"296 0 OFFCURVE",
"317 0 CURVE SMOOTH",
"419 0 LINE SMOOTH",
"434 0 OFFCURVE",
"437 15 OFFCURVE",
"437 35 CURVE",
"436 47 OFFCURVE",
"447 143 OFFCURVE",
"400 237 CURVE SMOOTH",
"397 244 OFFCURVE",
"396 249 OFFCURVE",
"403 255 CURVE",
"483 340 OFFCURVE",
"516 421 OFFCURVE",
"531 457 CURVE",
"535 471 OFFCURVE",
"523 472 OFFCURVE",
"519 472 CURVE SMOOTH",
"417 472 LINE SMOOTH",
"396 472 OFFCURVE",
"391 466 OFFCURVE",
"386 453 CURVE",
"369 413 OFFCURVE",
"322 310 OFFCURVE",
"300 306 CURVE",
"299 306 OFFCURVE",
"300 306 OFFCURVE",
"299 306 CURVE",
"284 311 OFFCURVE",
"275 419 OFFCURVE",
"274 457 CURVE",
"273 471 OFFCURVE",
"270 472 OFFCURVE",
"259 472 CURVE SMOOTH",
"119 472 LINE SMOOTH",
"115 472 OFFCURVE",
"114 471 OFFCURVE",
"114 466 CURVE",
"114 466 OFFCURVE",
"119 340 OFFCURVE",
"162 255 CURVE SMOOTH",
"166 248 OFFCURVE",
"167 245 OFFCURVE",
"162 238 CURVE SMOOTH",
"93 147 OFFCURVE",
"51 77 OFFCURVE",
"36 40 CURVE",
"33 35 OFFCURVE",
"15 0 OFFCURVE",
"36 0 CURVE SMOOTH"
);
}
);
width = 449;
}
);
note = x;
unicode = 0078;
},
{
glyphname = y;
lastChange = "2021-03-17 00:25:09 +0000";
layers = (
{
background = {
paths = (
{
closed = 1;
nodes = (
"243 33 OFFCURVE",
"236 19 OFFCURVE",
"229 11 CURVE SMOOTH",
"206 -17 OFFCURVE",
"193 -30 OFFCURVE",
"162 -53 CURVE SMOOTH",
"122 -84 OFFCURVE",
"67 -103 OFFCURVE",
"28 -97 CURVE SMOOTH",
"24 -96 OFFCURVE",
"19 -97 OFFCURVE",
"18 -99 CURVE SMOOTH",
"7 -119 LINE SMOOTH",
"5 -123 OFFCURVE",
"9 -124 OFFCURVE",
"11 -125 CURVE SMOOTH",
"23 -127 OFFCURVE",
"35 -127 OFFCURVE",
"46 -127 CURVE SMOOTH",
"225 -127 OFFCURVE",
"364 146 OFFCURVE",
"430 269 CURVE SMOOTH",
"464 333 OFFCURVE",
"494 399 OFFCURVE",
"517 465 CURVE SMOOTH",
"519 471 OFFCURVE",
"517 472 OFFCURVE",
"513 472 CURVE SMOOTH",
"489 472 LINE SMOOTH",
"485 472 OFFCURVE",
"480 471 OFFCURVE",
"479 465 CURVE SMOOTH",
"446 354 OFFCURVE",
"330 140 OFFCURVE",
"275 78 CURVE",
"272 76 OFFCURVE",
"266 73 OFFCURVE",
"263 83 CURVE",
"227 133 OFFCURVE",
"203 358 OFFCURVE",
"216 465 CURVE SMOOTH",
"217 471 OFFCURVE",
"212 472 OFFCURVE",
"209 472 CURVE SMOOTH",
"184 472 LINE SMOOTH",
"181 472 OFFCURVE",
"178 471 OFFCURVE",
"178 465 CURVE SMOOTH",
"169 353 OFFCURVE",
"185 130 OFFCURVE",
"237 45 CURVE SMOOTH"
);
}
);
};
hints = (
{
horizontal = 1;
place = "{-43, 60}";
type = Stem;
},
{
horizontal = 1;
place = "{499, -20}";
target = down;
type = TopGhost;
},
{
place = "{77, 364}";
type = Stem;
}
);
layerId = "707362F1-A677-446A-8636-E10BE3A7FAFF";
paths = (
{
closed = 1;
nodes = (
"243 33 OFFCURVE",
"236 19 OFFCURVE",
"229 11 CURVE SMOOTH",
"206 -17 OFFCURVE",
"193 -30 OFFCURVE",
"162 -53 CURVE SMOOTH",
"122 -84 OFFCURVE",
"67 -103 OFFCURVE",
"28 -97 CURVE SMOOTH",
"24 -96 OFFCURVE",
"19 -97 OFFCURVE",
"18 -99 CURVE SMOOTH",
"7 -119 LINE SMOOTH",
"5 -123 OFFCURVE",
"9 -124 OFFCURVE",
"11 -125 CURVE SMOOTH",
"23 -127 OFFCURVE",
"35 -127 OFFCURVE",
"46 -127 CURVE SMOOTH",
"225 -127 OFFCURVE",
"364 146 OFFCURVE",
"430 269 CURVE SMOOTH",
"464 333 OFFCURVE",
"494 399 OFFCURVE",
"517 465 CURVE SMOOTH",
"519 471 OFFCURVE",
"517 472 OFFCURVE",
"513 472 CURVE SMOOTH",
"489 472 LINE SMOOTH",
"485 472 OFFCURVE",
"480 471 OFFCURVE",
"479 465 CURVE SMOOTH",
"446 354 OFFCURVE",
"330 140 OFFCURVE",
"275 78 CURVE",
"272 76 OFFCURVE",
"266 73 OFFCURVE",
"263 83 CURVE",
"227 133 OFFCURVE",
"203 358 OFFCURVE",
"216 465 CURVE SMOOTH",
"217 471 OFFCURVE",
"212 472 OFFCURVE",
"209 472 CURVE SMOOTH",
"184 472 LINE SMOOTH",
"181 472 OFFCURVE",
"178 471 OFFCURVE",
"178 465 CURVE SMOOTH",
"169 353 OFFCURVE",
"185 130 OFFCURVE",
"237 45 CURVE SMOOTH"
);
}
);
width = 431;
},
{
background = {
paths = (
{
closed = 1;
nodes = (
"200 467 OFFCURVE",
"197 472 OFFCURVE",
"181 472 CURVE SMOOTH",
"66 472 LINE SMOOTH",
"55 472 OFFCURVE",
"50 465 OFFCURVE",
"53 450 CURVE SMOOTH",
"73 336 OFFCURVE",
"106 222 OFFCURVE",
"153 118 CURVE SMOOTH",
"163 94 OFFCURVE",
"174 65 OFFCURVE",
"163 39 CURVE SMOOTH",
"157 24 OFFCURVE",
"144 10 OFFCURVE",
"120 -1 CURVE SMOOTH",
"101 -11 OFFCURVE",
"77 -12 OFFCURVE",
"56 -6 CURVE SMOOTH",
"48 -4 OFFCURVE",
"44 -2 OFFCURVE",
"37 -15 CURVE SMOOTH",
"10 -67 LINE SMOOTH",
"3 -79 OFFCURVE",
"5 -86 OFFCURVE",
"15 -96 CURVE SMOOTH",
"21 -103 OFFCURVE",
"40 -116 OFFCURVE",
"112 -116 CURVE SMOOTH",
"296 -116 OFFCURVE",
"379 153 OFFCURVE",
"426 304 CURVE SMOOTH",
"444 365 OFFCURVE",
"456 437 OFFCURVE",
"459 448 CURVE",
"462 473 OFFCURVE",
"448 472 OFFCURVE",
"438 472 CURVE SMOOTH",
"341 472 LINE SMOOTH",
"325 472 OFFCURVE",
"322 467 OFFCURVE",
"317 442 CURVE SMOOTH",
"311 405 OFFCURVE",
"286 293 OFFCURVE",
"265 217 CURVE",
"263 206 OFFCURVE",
"256 203 OFFCURVE",
"252 216 CURVE SMOOTH",
"231 291 OFFCURVE",
"213 405 OFFCURVE",
"205 442 CURVE SMOOTH"
);
}
);
};
layerId = "D1BC8BBB-1669-4C46-BC21-42BF6808B2B9";
paths = (
{
closed = 1;
nodes = (
"209 92 OFFCURVE",
"211 64 OFFCURVE",
"196 39 CURVE SMOOTH",
"187 24 OFFCURVE",
"171 10 OFFCURVE",
"144 -1 CURVE SMOOTH",
"124 -10 OFFCURVE",
"99 -12 OFFCURVE",
"82 -7 CURVE SMOOTH",
"72 -4 OFFCURVE",
"68 -2 OFFCURVE",
"58 -15 CURVE SMOOTH",
"19 -68 LINE SMOOTH",
"8 -83 OFFCURVE",
"9 -92 OFFCURVE",
"24 -101 CURVE SMOOTH",
"40 -111 OFFCURVE",
"66 -116 OFFCURVE",
"106 -116 CURVE SMOOTH",
"288 -116 OFFCURVE",
"409 112 OFFCURVE",
"461 206 CURVE SMOOTH",
"515 304 OFFCURVE",
"546 365 OFFCURVE",
"579 448 CURVE SMOOTH",
"587 469 OFFCURVE",
"578 472 OFFCURVE",
"564 472 CURVE SMOOTH",
"466 472 LINE SMOOTH",
"450 472 OFFCURVE",
"446 467 OFFCURVE",
"440 452 CURVE SMOOTH",
"407 373 OFFCURVE",
"373 293 OFFCURVE",
"336 217 CURVE",
"331 206 OFFCURVE",
"325 206 OFFCURVE",
"323 216 CURVE",
"318 291 OFFCURVE",
"321 405 OFFCURVE",
"324 442 CURVE SMOOTH",
"325 465 OFFCURVE",
"322 472 OFFCURVE",
"306 472 CURVE SMOOTH",
"191 472 LINE SMOOTH",
"180 472 OFFCURVE",
"173 465 OFFCURVE",
"173 450 CURVE SMOOTH",
"169 336 OFFCURVE",
"178 222 OFFCURVE",
"203 118 CURVE SMOOTH"
);
}
);
width = 480;
}
);
note = y;
unicode = 0079;
},
{
glyphname = z;
lastChange = "2021-03-17 00:25:09 +0000";
layers = (
{
background = {
paths = (
{
closed = 1;
nodes = (
"40 2 OFFCURVE",
"43 0 OFFCURVE",
"46 0 CURVE SMOOTH",
"321 0 LINE SMOOTH",
"323 0 OFFCURVE",
"325 1 OFFCURVE",
"326 4 CURVE SMOOTH",
"331 26 LINE SMOOTH",
"331 28 OFFCURVE",
"329 29 OFFCURVE",
"327 29 CURVE SMOOTH",
"92 29 LINE SMOOTH",
"82 29 OFFCURVE",
"86 39 OFFCURVE",
"88 44 CURVE SMOOTH",
"108 86 OFFCURVE",
"157 150 OFFCURVE",
"213 225 CURVE SMOOTH",
"264 291 OFFCURVE",
"343 379 OFFCURVE",
"406 430 CURVE SMOOTH",
"412 434 OFFCURVE",
"422 445 OFFCURVE",
"423 451 CURVE SMOOTH",
"426 466 LINE SMOOTH",
"427 471 OFFCURVE",
"427 472 OFFCURVE",
"422 472 CURVE SMOOTH",
"165 472 LINE SMOOTH",
"163 472 OFFCURVE",
"161 471 OFFCURVE",
"160 468 CURVE SMOOTH",
"156 446 LINE SMOOTH",
"155 444 OFFCURVE",
"157 442 OFFCURVE",
"159 442 CURVE SMOOTH",
"361 442 LINE SMOOTH",
"369 442 OFFCURVE",
"368 439 OFFCURVE",
"360 432 CURVE SMOOTH",
"320 396 OFFCURVE",
"268 339 OFFCURVE",
"214 274 CURVE SMOOTH",
"139 182 OFFCURVE",
"72 94 OFFCURVE",
"41 6 CURVE"
);
}
);
};
hints = (
{
horizontal = 1;
place = "{0, 29}";
type = Stem;
},
{
horizontal = 1;
place = "{442, 30}";
type = Stem;
},
{
place = "{45, 287}";
type = Stem;
}
);
layerId = "707362F1-A677-446A-8636-E10BE3A7FAFF";
paths = (
{
closed = 1;
nodes = (
"40 2 OFFCURVE",
"43 0 OFFCURVE",
"46 0 CURVE SMOOTH",
"321 0 LINE SMOOTH",
"323 0 OFFCURVE",
"325 1 OFFCURVE",
"326 4 CURVE SMOOTH",
"331 26 LINE SMOOTH",
"331 28 OFFCURVE",
"329 29 OFFCURVE",
"327 29 CURVE SMOOTH",
"92 29 LINE SMOOTH",
"82 29 OFFCURVE",
"86 39 OFFCURVE",
"88 44 CURVE SMOOTH",
"108 86 OFFCURVE",
"157 150 OFFCURVE",
"213 225 CURVE SMOOTH",
"264 291 OFFCURVE",
"343 379 OFFCURVE",
"406 430 CURVE SMOOTH",
"412 434 OFFCURVE",
"422 445 OFFCURVE",
"423 451 CURVE SMOOTH",
"426 466 LINE SMOOTH",
"427 471 OFFCURVE",
"427 472 OFFCURVE",
"422 472 CURVE SMOOTH",
"165 472 LINE SMOOTH",
"163 472 OFFCURVE",
"161 471 OFFCURVE",
"160 468 CURVE SMOOTH",
"156 446 LINE SMOOTH",
"155 444 OFFCURVE",
"157 442 OFFCURVE",
"159 442 CURVE SMOOTH",
"361 442 LINE SMOOTH",
"369 442 OFFCURVE",
"368 439 OFFCURVE",
"360 432 CURVE SMOOTH",
"320 396 OFFCURVE",
"268 339 OFFCURVE",
"214 274 CURVE SMOOTH",
"139 182 OFFCURVE",
"72 94 OFFCURVE",
"41 6 CURVE"
);
}
);
width = 367;
},
{
layerId = "D1BC8BBB-1669-4C46-BC21-42BF6808B2B9";
paths = (
{
closed = 1;
nodes = (
"23 2 OFFCURVE",
"28 0 OFFCURVE",
"44 0 CURVE SMOOTH",
"346 0 LINE SMOOTH",
"363 0 OFFCURVE",
"368 0 OFFCURVE",
"371 14 CURVE SMOOTH",
"388 93 LINE SMOOTH",
"391 109 OFFCURVE",
"392 112 OFFCURVE",
"379 112 CURVE SMOOTH",
"217 112 LINE SMOOTH",
"203 112 OFFCURVE",
"205 120 OFFCURVE",
"208 125 CURVE SMOOTH",
"232 162 OFFCURVE",
"268 205 OFFCURVE",
"304 244 CURVE SMOOTH",
"347 290 OFFCURVE",
"391 331 OFFCURVE",
"421 348 CURVE SMOOTH",
"443 361 OFFCURVE",
"447 373 OFFCURVE",
"449 382 CURVE SMOOTH",
"464 452 LINE SMOOTH",
"467 467 OFFCURVE",
"469 472 OFFCURVE",
"452 472 CURVE SMOOTH",
"165 472 LINE SMOOTH",
"149 472 OFFCURVE",
"148 473 OFFCURVE",
"144 455 CURVE SMOOTH",
"127 375 LINE SMOOTH",
"124 360 OFFCURVE",
"127 360 OFFCURVE",
"139 360 CURVE SMOOTH",
"258 360 LINE",
"268 356 OFFCURVE",
"263 352 OFFCURVE",
"259 348 CURVE SMOOTH",
"222 312 OFFCURVE",
"185 273 OFFCURVE",
"152 233 CURVE SMOOTH",
"100 172 OFFCURVE",
"56 107 OFFCURVE",
"35 41 CURVE SMOOTH"
);
}
);
width = 393;
}
);
note = z;
unicode = 007A;
},
{
glyphname = A;
lastChange = "2021-03-17 00:25:09 +0000";
layers = (
{
background = {
paths = (
{
closed = 1;
nodes = (
"69 0 LINE SMOOTH",
"73 0 OFFCURVE",
"73 1 OFFCURVE",
"74 4 CURVE SMOOTH",
"88 44 OFFCURVE",
"111 98 OFFCURVE",
"137 160 CURVE SMOOTH",
"141 168 OFFCURVE",
"144 170 OFFCURVE",
"151 171 CURVE",
"454 171 LINE SMOOTH",
"462 171 OFFCURVE",
"466 168 OFFCURVE",
"465 162 CURVE SMOOTH",
"465 98 OFFCURVE",
"464 44 OFFCURVE",
"461 5 CURVE",
"462 1 OFFCURVE",
"462 0 OFFCURVE",
"465 0 CURVE SMOOTH",
"491 0 LINE SMOOTH",
"495 0 OFFCURVE",
"495 1 OFFCURVE",
"495 6 CURVE SMOOTH",
"507 151 OFFCURVE",
"490 533 OFFCURVE",
"455 668 CURVE SMOOTH",
"454 673 OFFCURVE",
"451 673 OFFCURVE",
"447 673 CURVE SMOOTH",
"373 673 LINE SMOOTH",
"370 673 OFFCURVE",
"367 671 OFFCURVE",
"365 669 CURVE SMOOTH",
"263 524 OFFCURVE",
"99 168 OFFCURVE",
"41 5 CURVE",
"40 1 OFFCURVE",
"40 0 OFFCURVE",
"44 0 CURVE SMOOTH"
);
},
{
closed = 1;
nodes = (
"157 201 OFFCURVE",
"158 208 OFFCURVE",
"160 211 CURVE SMOOTH",
"227 362 OFFCURVE",
"317 540 OFFCURVE",
"380 637 CURVE SMOOTH",
"383 642 OFFCURVE",
"386 643 OFFCURVE",
"392 643 CURVE SMOOTH",
"401 643 OFFCURVE",
"409 643 OFFCURVE",
"418 643 CURVE SMOOTH",
"422 643 OFFCURVE",
"425 642 OFFCURVE",
"427 638 CURVE SMOOTH",
"455 505 OFFCURVE",
"457 361 OFFCURVE",
"464 218 CURVE",
"463 204 OFFCURVE",
"457 201 OFFCURVE",
"453 201 CURVE SMOOTH",
"165 201 LINE SMOOTH"
);
}
);
};
hints = (
{
horizontal = 1;
place = "{0, 201}";
type = Stem;
},
{
horizontal = 1;
place = "{643, 30}";
type = Stem;
},
{
place = "{37, 447}";
type = Stem;
},
{
horizontal = 1;
place = "{171, 30}";
type = Stem;
}
);
layerId = "707362F1-A677-446A-8636-E10BE3A7FAFF";
paths = (
{
closed = 1;
nodes = (
"69 0 LINE SMOOTH",
"73 0 OFFCURVE",
"73 1 OFFCURVE",
"74 4 CURVE SMOOTH",
"88 44 OFFCURVE",
"111 98 OFFCURVE",
"137 160 CURVE SMOOTH",
"141 168 OFFCURVE",
"144 170 OFFCURVE",
"151 171 CURVE",
"454 171 LINE SMOOTH",
"462 171 OFFCURVE",
"466 168 OFFCURVE",
"465 162 CURVE SMOOTH",
"465 98 OFFCURVE",
"464 44 OFFCURVE",
"461 5 CURVE",
"462 1 OFFCURVE",
"462 0 OFFCURVE",
"465 0 CURVE SMOOTH",
"491 0 LINE SMOOTH",
"495 0 OFFCURVE",
"495 1 OFFCURVE",
"495 6 CURVE SMOOTH",
"507 151 OFFCURVE",
"490 533 OFFCURVE",
"455 668 CURVE SMOOTH",
"454 673 OFFCURVE",
"451 673 OFFCURVE",
"447 673 CURVE SMOOTH",
"373 673 LINE SMOOTH",
"370 673 OFFCURVE",
"367 671 OFFCURVE",
"365 669 CURVE SMOOTH",
"263 524 OFFCURVE",
"99 168 OFFCURVE",
"41 5 CURVE",
"40 1 OFFCURVE",
"40 0 OFFCURVE",
"44 0 CURVE SMOOTH"
);
},
{
closed = 1;
nodes = (
"157 201 OFFCURVE",
"158 208 OFFCURVE",
"160 211 CURVE SMOOTH",
"227 362 OFFCURVE",
"317 540 OFFCURVE",
"380 637 CURVE SMOOTH",
"383 642 OFFCURVE",
"386 643 OFFCURVE",
"392 643 CURVE SMOOTH",
"401 643 OFFCURVE",
"409 643 OFFCURVE",
"418 643 CURVE SMOOTH",
"422 643 OFFCURVE",
"425 642 OFFCURVE",
"427 638 CURVE SMOOTH",
"455 505 OFFCURVE",
"457 361 OFFCURVE",
"464 218 CURVE",
"463 204 OFFCURVE",
"457 201 OFFCURVE",
"453 201 CURVE SMOOTH",
"165 201 LINE SMOOTH"
);
}
);
width = 535;
},
{
layerId = "D1BC8BBB-1669-4C46-BC21-42BF6808B2B9";
paths = (
{
closed = 1;
nodes = (
"152 0 LINE SMOOTH",
"164 0 OFFCURVE",
"167 2 OFFCURVE",
"179 32 CURVE SMOOTH",
"190 61 OFFCURVE",
"211 107 OFFCURVE",
"221 133 CURVE SMOOTH",
"225 143 OFFCURVE",
"225 143 OFFCURVE",
"234 143 CURVE SMOOTH",
"388 143 LINE SMOOTH",
"397 143 OFFCURVE",
"397 143 OFFCURVE",
"397 133 CURVE SMOOTH",
"397 107 OFFCURVE",
"398 61 OFFCURVE",
"397 32 CURVE SMOOTH",
"395 2 OFFCURVE",
"398 0 OFFCURVE",
"410 0 CURVE SMOOTH",
"528 0 LINE SMOOTH",
"542 0 OFFCURVE",
"546 8 OFFCURVE",
"548 40 CURVE SMOOTH",
"559 188 OFFCURVE",
"536 513 OFFCURVE",
"493 651 CURVE SMOOTH",
"489 664 OFFCURVE",
"483 669 OFFCURVE",
"473 673 CURVE",
"374 673 LINE SMOOTH",
"363 673 OFFCURVE",
"355 664 OFFCURVE",
"344 651 CURVE",
"244 513 OFFCURVE",
"83 188 OFFCURVE",
"32 40 CURVE SMOOTH",
"20 8 OFFCURVE",
"20 0 OFFCURVE",
"33 0 CURVE SMOOTH"
);
},
{
closed = 1;
nodes = (
"282 258 OFFCURVE",
"281 261 OFFCURVE",
"285 270 CURVE SMOOTH",
"314 328 OFFCURVE",
"342 385 OFFCURVE",
"369 438 CURVE SMOOTH",
"371 443 OFFCURVE",
"374 447 OFFCURVE",
"376 452 CURVE",
"376 448 OFFCURVE",
"376 444 OFFCURVE",
"378 440 CURVE SMOOTH",
"377 439 OFFCURVE",
"378 437 OFFCURVE",
"378 436 CURVE SMOOTH",
"383 384 OFFCURVE",
"387 328 OFFCURVE",
"390 270 CURVE SMOOTH",
"391 261 OFFCURVE",
"390 258 OFFCURVE",
"381 258 CURVE SMOOTH",
"291 258 LINE SMOOTH"
);
}
);
width = 561;
}
);
note = A;
unicode = 0041;
},
{
glyphname = B;
lastChange = "2021-03-17 00:25:09 +0000";
layers = (
{
background = {
paths = (
{
closed = 1;
nodes = (
"507 263 OFFCURVE",
"477 323 OFFCURVE",
"424 345 CURVE SMOOTH",
"415 348 OFFCURVE",
"420 356 OFFCURVE",
"426 359 CURVE SMOOTH",
"473 380 OFFCURVE",
"516 431 OFFCURVE",
"534 517 CURVE SMOOTH",
"565 662 OFFCURVE",
"475 673 OFFCURVE",
"353 673 CURVE SMOOTH",
"227 673 LINE SMOOTH",
"224 673 OFFCURVE",
"223 671 OFFCURVE",
"222 669 CURVE SMOOTH",
"81 4 LINE SMOOTH",
"80 1 OFFCURVE",
"81 0 OFFCURVE",
"84 0 CURVE SMOOTH",
"271 0 LINE SMOOTH",
"371 0 OFFCURVE",
"461 48 OFFCURVE",
"489 179 CURVE SMOOTH"
);
},
{
closed = 1;
nodes = (
"429 53 OFFCURVE",
"339 29 OFFCURVE",
"282 29 CURVE",
"124 29 LINE SMOOTH",
"120 29 OFFCURVE",
"120 31 OFFCURVE",
"120 34 CURVE SMOOTH",
"183 327 LINE SMOOTH",
"183 330 OFFCURVE",
"185 332 OFFCURVE",
"190 332 CURVE SMOOTH",
"318 332 LINE SMOOTH",
"422 332 OFFCURVE",
"482 301 OFFCURVE",
"457 182 CURVE SMOOTH"
);
},
{
closed = 1;
nodes = (
"483 433 OFFCURVE",
"425 361 OFFCURVE",
"332 361 CURVE SMOOTH",
"195 361 LINE SMOOTH",
"191 361 OFFCURVE",
"190 362 OFFCURVE",
"191 366 CURVE SMOOTH",
"249 638 LINE SMOOTH",
"249 641 OFFCURVE",
"251 643 OFFCURVE",
"255 643 CURVE SMOOTH",
"358 643 LINE SMOOTH",
"455 643 OFFCURVE",
"526 634 OFFCURVE",
"501 517 CURVE SMOOTH"
);
}
);
};
hints = (
{
horizontal = 1;
place = "{0, 29}";
type = Stem;
},
{
horizontal = 1;
place = "{332, 29}";
type = Stem;
},
{
horizontal = 1;
place = "{643, 30}";
type = Stem;
},
{
place = "{60, 33}";
type = Stem;
},
{
place = "{386, 33}";
type = Stem;
},
{
place = "{381, 33}";
type = Stem;
}
);
layerId = "707362F1-A677-446A-8636-E10BE3A7FAFF";
paths = (
{
closed = 1;
nodes = (
"507 263 OFFCURVE",
"477 323 OFFCURVE",
"424 345 CURVE SMOOTH",
"415 348 OFFCURVE",
"420 356 OFFCURVE",
"426 359 CURVE SMOOTH",
"473 380 OFFCURVE",
"516 431 OFFCURVE",
"534 517 CURVE SMOOTH",
"565 662 OFFCURVE",
"475 673 OFFCURVE",
"353 673 CURVE SMOOTH",
"227 673 LINE SMOOTH",
"224 673 OFFCURVE",
"223 671 OFFCURVE",
"222 669 CURVE SMOOTH",
"81 4 LINE SMOOTH",
"80 1 OFFCURVE",
"81 0 OFFCURVE",
"84 0 CURVE SMOOTH",
"271 0 LINE SMOOTH",
"371 0 OFFCURVE",
"461 48 OFFCURVE",
"489 179 CURVE SMOOTH"
);
},
{
closed = 1;
nodes = (
"429 53 OFFCURVE",
"339 29 OFFCURVE",
"282 29 CURVE",
"124 29 LINE SMOOTH",
"120 29 OFFCURVE",
"120 31 OFFCURVE",
"120 34 CURVE SMOOTH",
"183 327 LINE SMOOTH",
"183 330 OFFCURVE",
"185 332 OFFCURVE",
"190 332 CURVE SMOOTH",
"318 332 LINE SMOOTH",
"422 332 OFFCURVE",
"482 301 OFFCURVE",
"457 182 CURVE SMOOTH"
);
},
{
closed = 1;
nodes = (
"483 433 OFFCURVE",
"425 361 OFFCURVE",
"332 361 CURVE SMOOTH",
"195 361 LINE SMOOTH",
"191 361 OFFCURVE",
"190 362 OFFCURVE",
"191 366 CURVE SMOOTH",
"249 638 LINE SMOOTH",
"249 641 OFFCURVE",
"251 643 OFFCURVE",
"255 643 CURVE SMOOTH",
"358 643 LINE SMOOTH",
"455 643 OFFCURVE",
"526 634 OFFCURVE",
"501 517 CURVE SMOOTH"
);
}
);
width = 501;
},
{
layerId = "D1BC8BBB-1669-4C46-BC21-42BF6808B2B9";
paths = (
{
closed = 1;
nodes = (
"539 258 OFFCURVE",
"516 320 OFFCURVE",
"477 342 CURVE",
"473 345 OFFCURVE",
"471 352 OFFCURVE",
"479 355 CURVE",
"537 381 OFFCURVE",
"574 460 OFFCURVE",
"582 499 CURVE SMOOTH",
"617 662 OFFCURVE",
"508 673 OFFCURVE",
"375 673 CURVE SMOOTH",
"198 673 LINE SMOOTH",
"190 673 OFFCURVE",
"182 667 OFFCURVE",
"180 658 CURVE SMOOTH",
"43 14 LINE SMOOTH",
"41 6 OFFCURVE",
"47 0 OFFCURVE",
"55 0 CURVE SMOOTH",
"272 0 LINE SMOOTH",
"388 0 OFFCURVE",
"495 53 OFFCURVE",
"525 195 CURVE SMOOTH"
);
},
{
closed = 1;
nodes = (
"345 109 OFFCURVE",
"295 104 OFFCURVE",
"262 104 CURVE SMOOTH",
"222 104 LINE SMOOTH",
"214 104 OFFCURVE",
"214 105 OFFCURVE",
"216 111 CURVE SMOOTH",
"252 281 LINE SMOOTH",
"253 287 OFFCURVE",
"254 287 OFFCURVE",
"260 287 CURVE SMOOTH",
"288 287 LINE SMOOTH",
"349 287 OFFCURVE",
"381 278 OFFCURVE",
"364 196 CURVE SMOOTH"
);
},
{
closed = 1;
nodes = (
"406 422 OFFCURVE",
"377 404 OFFCURVE",
"324 404 CURVE SMOOTH",
"286 404 LINE SMOOTH",
"279 404 OFFCURVE",
"278 405 OFFCURVE",
"279 411 CURVE SMOOTH",
"311 560 LINE SMOOTH",
"313 568 OFFCURVE",
"314 569 OFFCURVE",
"320 569 CURVE SMOOTH",
"322 569 LINE SMOOTH",
"397 569 OFFCURVE",
"435 560 OFFCURVE",
"421 492 CURVE SMOOTH"
);
}
);
width = 524;
}
);
note = B;
unicode = 0042;
},
{
glyphname = C;
lastChange = "2021-03-17 00:25:09 +0000";
layers = (
{
background = {
paths = (
{
closed = 1;
nodes = (
"420 34 LINE SMOOTH",
"421 39 OFFCURVE",
"421 42 OFFCURVE",
"416 40 CURVE SMOOTH",
"401 32 OFFCURVE",
"365 20 OFFCURVE",
"318 20 CURVE SMOOTH",
"137 20 OFFCURVE",
"154 224 OFFCURVE",
"180 349 CURVE SMOOTH",
"212 498 OFFCURVE",
"289 650 OFFCURVE",
"452 650 CURVE SMOOTH",
"499 650 OFFCURVE",
"530 638 OFFCURVE",
"542 630 CURVE SMOOTH",
"545 628 OFFCURVE",
"547 631 OFFCURVE",
"548 636 CURVE SMOOTH",
"553 658 LINE SMOOTH",
"554 662 OFFCURVE",
"552 666 OFFCURVE",
"547 668 CURVE SMOOTH",
"523 676 OFFCURVE",
"472 680 OFFCURVE",
"453 680 CURVE SMOOTH",
"304 680 OFFCURVE",
"192 566 OFFCURVE",
"143 335 CURVE SMOOTH",
"94 106 OFFCURVE",
"164 -9 OFFCURVE",
"307 -9 CURVE SMOOTH",
"326 -9 OFFCURVE",
"378 -6 OFFCURVE",
"405 2 CURVE",
"412 5 OFFCURVE",
"415 8 OFFCURVE",
"415 12 CURVE SMOOTH"
);
}
);
};
hints = (
{
horizontal = 1;
place = "{-7, 31}";
type = Stem;
},
{
horizontal = 1;
place = "{652, 32}";
type = Stem;
},
{
place = "{47, 36}";
type = Stem;
}
);
layerId = "707362F1-A677-446A-8636-E10BE3A7FAFF";
paths = (
{
closed = 1;
nodes = (
"420 34 LINE SMOOTH",
"421 39 OFFCURVE",
"421 42 OFFCURVE",
"416 40 CURVE SMOOTH",
"401 32 OFFCURVE",
"365 20 OFFCURVE",
"318 20 CURVE SMOOTH",
"137 20 OFFCURVE",
"154 224 OFFCURVE",
"180 349 CURVE SMOOTH",
"212 498 OFFCURVE",
"289 650 OFFCURVE",
"452 650 CURVE SMOOTH",
"499 650 OFFCURVE",
"530 638 OFFCURVE",
"542 630 CURVE SMOOTH",
"545 628 OFFCURVE",
"547 631 OFFCURVE",
"548 636 CURVE SMOOTH",
"553 658 LINE SMOOTH",
"554 662 OFFCURVE",
"552 666 OFFCURVE",
"547 668 CURVE SMOOTH",
"523 676 OFFCURVE",
"472 680 OFFCURVE",
"453 680 CURVE SMOOTH",
"304 680 OFFCURVE",
"192 566 OFFCURVE",
"143 335 CURVE SMOOTH",
"94 106 OFFCURVE",
"164 -9 OFFCURVE",
"307 -9 CURVE SMOOTH",
"326 -9 OFFCURVE",
"378 -6 OFFCURVE",
"405 2 CURVE",
"412 5 OFFCURVE",
"415 8 OFFCURVE",
"415 12 CURVE SMOOTH"
);
}
);
width = 471;
},
{
layerId = "D1BC8BBB-1669-4C46-BC21-42BF6808B2B9";
paths = (
{
closed = 1;
nodes = (
"471 124 LINE SMOOTH",
"476 146 OFFCURVE",
"468 147 OFFCURVE",
"434 129 CURVE SMOOTH",
"413 117 OFFCURVE",
"375 107 OFFCURVE",
"343 107 CURVE SMOOTH",
"233 107 OFFCURVE",
"243 242 OFFCURVE",
"266 348 CURVE SMOOTH",
"292 472 OFFCURVE",
"340 563 OFFCURVE",
"440 563 CURVE SMOOTH",
"466 563 OFFCURVE",
"500 555 OFFCURVE",
"525 536 CURVE SMOOTH",
"544 520 OFFCURVE",
"556 523 OFFCURVE",
"560 543 CURVE SMOOTH",
"581 642 LINE SMOOTH",
"584 656 OFFCURVE",
"573 661 OFFCURVE",
"554 667 CURVE SMOOTH",
"527 676 OFFCURVE",
"472 680 OFFCURVE",
"453 680 CURVE SMOOTH",
"282 680 OFFCURVE",
"156 562 OFFCURVE",
"108 335 CURVE SMOOTH",
"60 111 OFFCURVE",
"143 -8 OFFCURVE",
"307 -8 CURVE SMOOTH",
"326 -8 OFFCURVE",
"382 -6 OFFCURVE",
"414 4 CURVE SMOOTH",
"435 9 OFFCURVE",
"449 20 OFFCURVE",
"453 39 CURVE SMOOTH"
);
}
);
width = 473;
}
);
note = C;
unicode = 0043;
},
{
glyphname = D;
lastChange = "2021-03-17 00:25:09 +0000";
layers = (
{
background = {
paths = (
{
closed = 1;
nodes = (
"643 641 OFFCURVE",
"526 673 OFFCURVE",
"433 673 CURVE SMOOTH",
"227 673 LINE SMOOTH",
"224 673 OFFCURVE",
"223 671 OFFCURVE",
"222 669 CURVE SMOOTH",
"81 4 LINE SMOOTH",
"80 1 OFFCURVE",
"81 0 OFFCURVE",
"84 0 CURVE SMOOTH",
"290 0 LINE SMOOTH",
"366 0 OFFCURVE",
"518 54 OFFCURVE",
"581 347 CURVE SMOOTH"
);
},
{
closed = 1;
nodes = (
"491 81 OFFCURVE",
"359 29 OFFCURVE",
"283 29 CURVE SMOOTH",
"124 29 LINE SMOOTH",
"120 29 OFFCURVE",
"120 31 OFFCURVE",
"120 34 CURVE SMOOTH",
"249 638 LINE SMOOTH",
"249 641 OFFCURVE",
"251 643 OFFCURVE",
"255 643 CURVE SMOOTH",
"432 643 LINE SMOOTH",
"505 643 OFFCURVE",
"605 614 OFFCURVE",
"548 347 CURVE SMOOTH"
);
}
);
};
hints = (
{
horizontal = 1;
place = "{0, 29}";
type = Stem;
},
{
horizontal = 1;
place = "{643, 30}";
type = Stem;
},
{
place = "{60, 33}";
type = Stem;
},
{
place = "{454, 33}";
type = Stem;
}
);
layerId = "707362F1-A677-446A-8636-E10BE3A7FAFF";
paths = (
{
closed = 1;
nodes = (
"643 641 OFFCURVE",
"526 673 OFFCURVE",
"433 673 CURVE SMOOTH",
"227 673 LINE SMOOTH",
"224 673 OFFCURVE",
"223 671 OFFCURVE",
"222 669 CURVE SMOOTH",
"81 4 LINE SMOOTH",
"80 1 OFFCURVE",
"81 0 OFFCURVE",
"84 0 CURVE SMOOTH",
"290 0 LINE SMOOTH",
"366 0 OFFCURVE",
"518 54 OFFCURVE",
"581 347 CURVE SMOOTH"
);
},
{
closed = 1;
nodes = (
"491 81 OFFCURVE",
"359 29 OFFCURVE",
"283 29 CURVE SMOOTH",
"124 29 LINE SMOOTH",
"120 29 OFFCURVE",
"120 31 OFFCURVE",
"120 34 CURVE SMOOTH",
"249 638 LINE SMOOTH",
"249 641 OFFCURVE",
"251 643 OFFCURVE",
"255 643 CURVE SMOOTH",
"432 643 LINE SMOOTH",
"505 643 OFFCURVE",
"605 614 OFFCURVE",
"548 347 CURVE SMOOTH"
);
}
);
width = 552;
},
{
layerId = "D1BC8BBB-1669-4C46-BC21-42BF6808B2B9";
paths = (
{
closed = 1;
nodes = (
"664 638 OFFCURVE",
"509 673 OFFCURVE",
"384 673 CURVE SMOOTH",
"198 673 LINE SMOOTH",
"190 673 OFFCURVE",
"182 667 OFFCURVE",
"180 658 CURVE SMOOTH",
"43 14 LINE SMOOTH",
"41 6 OFFCURVE",
"47 0 OFFCURVE",
"55 0 CURVE SMOOTH",
"241 0 LINE SMOOTH",
"344 0 OFFCURVE",
"540 57 OFFCURVE",
"602 346 CURVE SMOOTH"
);
},
{
closed = 1;
nodes = (
"406 131 OFFCURVE",
"303 116 OFFCURVE",
"243 116 CURVE SMOOTH",
"226 116 LINE SMOOTH",
"218 116 OFFCURVE",
"217 116 OFFCURVE",
"219 126 CURVE SMOOTH",
"308 548 LINE SMOOTH",
"310 557 OFFCURVE",
"310 557 OFFCURVE",
"322 557 CURVE SMOOTH",
"352 557 LINE SMOOTH",
"409 557 OFFCURVE",
"497 560 OFFCURVE",
"452 346 CURVE SMOOTH"
);
}
);
width = 563;
}
);
note = D;
unicode = 0044;
},
{
glyphname = E;
lastChange = "2021-03-17 00:25:09 +0000";
layers = (
{
background = {
paths = (
{
closed = 1;
nodes = (
"377 0 LINE SMOOTH",
"379 0 OFFCURVE",
"380 1 OFFCURVE",
"381 4 CURVE SMOOTH",
"386 26 LINE SMOOTH",
"386 28 OFFCURVE",
"385 29 OFFCURVE",
"383 29 CURVE SMOOTH",
"116 29 LINE SMOOTH",
"109 29 OFFCURVE",
"110 32 OFFCURVE",
"111 38 CURVE SMOOTH",
"170 317 LINE SMOOTH",
"171 322 OFFCURVE",
"173 324 OFFCURVE",
"178 324 CURVE SMOOTH",
"401 324 LINE SMOOTH",
"403 324 OFFCURVE",
"404 326 OFFCURVE",
"405 328 CURVE SMOOTH",
"409 350 LINE SMOOTH",
"410 353 OFFCURVE",
"409 354 OFFCURVE",
"407 354 CURVE SMOOTH",
"185 354 LINE SMOOTH",
"182 354 OFFCURVE",
"179 358 OFFCURVE",
"180 361 CURVE SMOOTH",
"238 636 LINE SMOOTH",
"239 640 OFFCURVE",
"240 643 OFFCURVE",
"246 643 CURVE SMOOTH",
"514 643 LINE SMOOTH",
"516 643 OFFCURVE",
"517 644 OFFCURVE",
"518 647 CURVE SMOOTH",
"522 669 LINE SMOOTH",
"523 671 OFFCURVE",
"522 673 OFFCURVE",
"520 673 CURVE SMOOTH",
"217 673 LINE SMOOTH",
"214 673 OFFCURVE",
"213 671 OFFCURVE",
"212 669 CURVE SMOOTH",
"71 4 LINE SMOOTH",
"70 1 OFFCURVE",
"71 0 OFFCURVE",
"74 0 CURVE SMOOTH"
);
}
);
};
hints = (
{
horizontal = 1;
place = "{0, 29}";
type = Stem;
},
{
horizontal = 1;
place = "{324, 30}";
type = Stem;
},
{
horizontal = 1;
place = "{643, 30}";
type = Stem;
},
{
place = "{60, 33}";
type = Stem;
}
);
layerId = "707362F1-A677-446A-8636-E10BE3A7FAFF";
paths = (
{
closed = 1;
nodes = (
"377 0 LINE SMOOTH",
"379 0 OFFCURVE",
"380 1 OFFCURVE",
"381 4 CURVE SMOOTH",
"386 26 LINE SMOOTH",
"386 28 OFFCURVE",
"385 29 OFFCURVE",
"383 29 CURVE SMOOTH",
"116 29 LINE SMOOTH",
"109 29 OFFCURVE",
"110 32 OFFCURVE",
"111 38 CURVE SMOOTH",
"170 317 LINE SMOOTH",
"171 322 OFFCURVE",
"173 324 OFFCURVE",
"178 324 CURVE SMOOTH",
"401 324 LINE SMOOTH",
"403 324 OFFCURVE",
"404 326 OFFCURVE",
"405 328 CURVE SMOOTH",
"409 350 LINE SMOOTH",
"410 353 OFFCURVE",
"409 354 OFFCURVE",
"407 354 CURVE SMOOTH",
"185 354 LINE SMOOTH",
"182 354 OFFCURVE",
"179 358 OFFCURVE",
"180 361 CURVE SMOOTH",
"238 636 LINE SMOOTH",
"239 640 OFFCURVE",
"240 643 OFFCURVE",
"246 643 CURVE SMOOTH",
"514 643 LINE SMOOTH",
"516 643 OFFCURVE",
"517 644 OFFCURVE",
"518 647 CURVE SMOOTH",
"522 669 LINE SMOOTH",
"523 671 OFFCURVE",
"522 673 OFFCURVE",
"520 673 CURVE SMOOTH",
"217 673 LINE SMOOTH",
"214 673 OFFCURVE",
"213 671 OFFCURVE",
"212 669 CURVE SMOOTH",
"71 4 LINE SMOOTH",
"70 1 OFFCURVE",
"71 0 OFFCURVE",
"74 0 CURVE SMOOTH"
);
}
);
width = 440;
},
{
layerId = "D1BC8BBB-1669-4C46-BC21-42BF6808B2B9";
paths = (
{
closed = 1;
nodes = (
"391 0 LINE SMOOTH",
"411 0 OFFCURVE",
"414 0 OFFCURVE",
"419 22 CURVE SMOOTH",
"434 94 LINE SMOOTH",
"438 114 OFFCURVE",
"439 116 OFFCURVE",
"417 116 CURVE SMOOTH",
"225 116 LINE SMOOTH",
"217 116 OFFCURVE",
"217 117 OFFCURVE",
"219 125 CURVE SMOOTH",
"250 275 LINE SMOOTH",
"252 282 OFFCURVE",
"253 282 OFFCURVE",
"260 282 CURVE SMOOTH",
"410 282 LINE SMOOTH",
"429 282 OFFCURVE",
"430 283 OFFCURVE",
"434 303 CURVE SMOOTH",
"449 374 LINE SMOOTH",
"454 395 OFFCURVE",
"454 396 OFFCURVE",
"434 396 CURVE SMOOTH",
"284 396 LINE SMOOTH",
"276 396 OFFCURVE",
"276 396 OFFCURVE",
"278 405 CURVE SMOOTH",
"309 549 LINE SMOOTH",
"310 557 OFFCURVE",
"310 557 OFFCURVE",
"319 557 CURVE SMOOTH",
"513 557 LINE SMOOTH",
"529 557 OFFCURVE",
"532 557 OFFCURVE",
"536 576 CURVE SMOOTH",
"553 656 LINE SMOOTH",
"557 673 OFFCURVE",
"557 673 OFFCURVE",
"538 673 CURVE SMOOTH",
"198 673 LINE SMOOTH",
"190 673 OFFCURVE",
"182 667 OFFCURVE",
"180 658 CURVE SMOOTH",
"43 14 LINE SMOOTH",
"41 6 OFFCURVE",
"47 0 OFFCURVE",
"55 0 CURVE SMOOTH"
);
}
);
width = 444;
}
);
note = E;
unicode = 0045;
},
{
glyphname = F;
lastChange = "2021-03-17 00:25:09 +0000";
layers = (
{
background = {
paths = (
{
closed = 1;
nodes = (
"109 0 LINE SMOOTH",
"112 0 OFFCURVE",
"113 1 OFFCURVE",
"114 4 CURVE SMOOTH",
"180 317 LINE SMOOTH",
"181 322 OFFCURVE",
"183 324 OFFCURVE",
"188 324 CURVE SMOOTH",
"399 324 LINE SMOOTH",
"402 324 OFFCURVE",
"403 326 OFFCURVE",
"404 328 CURVE SMOOTH",
"408 350 LINE SMOOTH",
"409 353 OFFCURVE",
"408 354 OFFCURVE",
"405 354 CURVE SMOOTH",
"195 354 LINE SMOOTH",
"192 354 OFFCURVE",
"189 358 OFFCURVE",
"190 361 CURVE SMOOTH",
"248 636 LINE SMOOTH",
"249 640 OFFCURVE",
"250 643 OFFCURVE",
"256 643 CURVE SMOOTH",
"524 643 LINE SMOOTH",
"526 643 OFFCURVE",
"527 644 OFFCURVE",
"528 647 CURVE SMOOTH",
"532 669 LINE SMOOTH",
"533 671 OFFCURVE",
"532 673 OFFCURVE",
"530 673 CURVE SMOOTH",
"227 673 LINE SMOOTH",
"224 673 OFFCURVE",
"223 671 OFFCURVE",
"222 669 CURVE SMOOTH",
"81 4 LINE SMOOTH",
"80 1 OFFCURVE",
"81 0 OFFCURVE",
"84 0 CURVE SMOOTH"
);
}
);
};
hints = (
{
horizontal = 1;
place = "{4, 21}";
target = up;
type = BottomGhost;
},
{
horizontal = 1;
place = "{324, 30}";
type = Stem;
},
{
horizontal = 1;
place = "{643, 30}";
type = Stem;
},
{
place = "{36, 33}";
type = Stem;
}
);
layerId = "707362F1-A677-446A-8636-E10BE3A7FAFF";
paths = (
{
closed = 1;
nodes = (
"109 0 LINE SMOOTH",
"112 0 OFFCURVE",
"113 1 OFFCURVE",
"114 4 CURVE SMOOTH",
"180 317 LINE SMOOTH",
"181 322 OFFCURVE",
"183 324 OFFCURVE",
"188 324 CURVE SMOOTH",
"399 324 LINE SMOOTH",
"402 324 OFFCURVE",
"403 326 OFFCURVE",
"404 328 CURVE SMOOTH",
"408 350 LINE SMOOTH",
"409 353 OFFCURVE",
"408 354 OFFCURVE",
"405 354 CURVE SMOOTH",
"195 354 LINE SMOOTH",
"192 354 OFFCURVE",
"189 358 OFFCURVE",
"190 361 CURVE SMOOTH",
"248 636 LINE SMOOTH",
"249 640 OFFCURVE",
"250 643 OFFCURVE",
"256 643 CURVE SMOOTH",
"524 643 LINE SMOOTH",
"526 643 OFFCURVE",
"527 644 OFFCURVE",
"528 647 CURVE SMOOTH",
"532 669 LINE SMOOTH",
"533 671 OFFCURVE",
"532 673 OFFCURVE",
"530 673 CURVE SMOOTH",
"227 673 LINE SMOOTH",
"224 673 OFFCURVE",
"223 671 OFFCURVE",
"222 669 CURVE SMOOTH",
"81 4 LINE SMOOTH",
"80 1 OFFCURVE",
"81 0 OFFCURVE",
"84 0 CURVE SMOOTH"
);
}
);
width = 410;
},
{
layerId = "D1BC8BBB-1669-4C46-BC21-42BF6808B2B9";
paths = (
{
closed = 1;
nodes = (
"169 0 LINE SMOOTH",
"191 0 OFFCURVE",
"192 0 OFFCURVE",
"197 22 CURVE SMOOTH",
"250 275 LINE SMOOTH",
"252 282 OFFCURVE",
"253 282 OFFCURVE",
"260 282 CURVE SMOOTH",
"410 282 LINE SMOOTH",
"429 282 OFFCURVE",
"430 283 OFFCURVE",
"434 303 CURVE SMOOTH",
"449 374 LINE SMOOTH",
"454 395 OFFCURVE",
"454 396 OFFCURVE",
"434 396 CURVE SMOOTH",
"284 396 LINE SMOOTH",
"276 396 OFFCURVE",
"276 396 OFFCURVE",
"278 405 CURVE SMOOTH",
"309 549 LINE SMOOTH",
"310 557 OFFCURVE",
"310 557 OFFCURVE",
"319 557 CURVE SMOOTH",
"513 557 LINE SMOOTH",
"529 557 OFFCURVE",
"532 557 OFFCURVE",
"536 576 CURVE SMOOTH",
"553 656 LINE SMOOTH",
"557 673 OFFCURVE",
"557 673 OFFCURVE",
"538 673 CURVE SMOOTH",
"198 673 LINE SMOOTH",
"190 673 OFFCURVE",
"182 667 OFFCURVE",
"180 658 CURVE SMOOTH",
"43 14 LINE SMOOTH",
"41 6 OFFCURVE",
"47 0 OFFCURVE",
"55 0 CURVE SMOOTH"
);
}
);
width = 424;
}
);
note = F;
unicode = 0046;
},
{
glyphname = G;
lastChange = "2021-03-17 00:25:09 +0000";
layers = (
{
background = {
paths = (
{
closed = 1;
nodes = (
"556 347 LINE SMOOTH",
"558 354 OFFCURVE",
"557 356 OFFCURVE",
"549 356 CURVE SMOOTH",
"346 356 LINE SMOOTH",
"345 356 OFFCURVE",
"342 353 OFFCURVE",
"342 353 CURVE",
"337 330 LINE",
"337 330 OFFCURVE",
"339 327 OFFCURVE",
"340 327 CURVE SMOOTH",
"508 327 LINE SMOOTH",
"515 327 OFFCURVE",
"518 324 OFFCURVE",
"516 315 CURVE SMOOTH",
"456 32 LINE",
"448 26 OFFCURVE",
"425 22 OFFCURVE",
"393 22 CURVE SMOOTH",
"266 22 OFFCURVE",
"102 81 OFFCURVE",
"156 332 CURVE SMOOTH",
"207 572 OFFCURVE",
"397 649 OFFCURVE",
"499 649 CURVE SMOOTH",
"537 649 OFFCURVE",
"577 648 OFFCURVE",
"606 629 CURVE SMOOTH",
"610 627 OFFCURVE",
"611 630 OFFCURVE",
"612 635 CURVE SMOOTH",
"617 657 LINE SMOOTH",
"618 661 OFFCURVE",
"616 664 OFFCURVE",
"611 667 CURVE",
"584 676 OFFCURVE",
"536 678 OFFCURVE",
"505 678 CURVE SMOOTH",
"330 678 OFFCURVE",
"167 545 OFFCURVE",
"120 324 CURVE SMOOTH",
"74 107 OFFCURVE",
"179 -6 OFFCURVE",
"403 -6 CURVE SMOOTH",
"436 -6 OFFCURVE",
"481 -4 OFFCURVE",
"486 18 CURVE SMOOTH"
);
}
);
};
hints = (
{
horizontal = 1;
place = "{-5, 29}";
type = Stem;
},
{
horizontal = 1;
place = "{328, 30}";
type = Stem;
},
{
horizontal = 1;
place = "{650, 30}";
type = Stem;
},
{
place = "{36, 35}";
type = Stem;
},
{
place = "{434, 34}";
type = Stem;
}
);
layerId = "707362F1-A677-446A-8636-E10BE3A7FAFF";
paths = (
{
closed = 1;
nodes = (
"556 347 LINE SMOOTH",
"558 354 OFFCURVE",
"557 356 OFFCURVE",
"549 356 CURVE SMOOTH",
"346 356 LINE SMOOTH",
"345 356 OFFCURVE",
"342 353 OFFCURVE",
"342 353 CURVE",
"337 330 LINE",
"337 330 OFFCURVE",
"339 327 OFFCURVE",
"340 327 CURVE SMOOTH",
"508 327 LINE SMOOTH",
"515 327 OFFCURVE",
"518 324 OFFCURVE",
"516 315 CURVE SMOOTH",
"456 32 LINE",
"448 26 OFFCURVE",
"425 22 OFFCURVE",
"393 22 CURVE SMOOTH",
"266 22 OFFCURVE",
"102 81 OFFCURVE",
"156 332 CURVE SMOOTH",
"207 572 OFFCURVE",
"397 649 OFFCURVE",
"499 649 CURVE SMOOTH",
"537 649 OFFCURVE",
"577 648 OFFCURVE",
"606 629 CURVE SMOOTH",
"610 627 OFFCURVE",
"611 630 OFFCURVE",
"612 635 CURVE SMOOTH",
"617 657 LINE SMOOTH",
"618 661 OFFCURVE",
"616 664 OFFCURVE",
"611 667 CURVE",
"584 676 OFFCURVE",
"536 678 OFFCURVE",
"505 678 CURVE SMOOTH",
"330 678 OFFCURVE",
"167 545 OFFCURVE",
"120 324 CURVE SMOOTH",
"74 107 OFFCURVE",
"179 -6 OFFCURVE",
"403 -6 CURVE SMOOTH",
"436 -6 OFFCURVE",
"481 -4 OFFCURVE",
"486 18 CURVE SMOOTH"
);
}
);
width = 541;
},
{
layerId = "D1BC8BBB-1669-4C46-BC21-42BF6808B2B9";
paths = (
{
closed = 1;
nodes = (
"618 375 LINE SMOOTH",
"623 398 OFFCURVE",
"623 399 OFFCURVE",
"601 399 CURVE SMOOTH",
"362 399 LINE SMOOTH",
"346 399 OFFCURVE",
"343 396 OFFCURVE",
"340 380 CURVE SMOOTH",
"323 299 LINE SMOOTH",
"319 283 OFFCURVE",
"322 283 OFFCURVE",
"337 283 CURVE SMOOTH",
"440 283 LINE SMOOTH",
"447 283 OFFCURVE",
"447 282 OFFCURVE",
"446 276 CURVE SMOOTH",
"414 124 LINE SMOOTH",
"412 114 OFFCURVE",
"405 110 OFFCURVE",
"390 110 CURVE SMOOTH",
"336 110 OFFCURVE",
"225 132 OFFCURVE",
"268 332 CURVE SMOOTH",
"309 526 OFFCURVE",
"440 562 OFFCURVE",
"513 562 CURVE SMOOTH",
"558 562 OFFCURVE",
"588 552 OFFCURVE",
"617 533 CURVE SMOOTH",
"630 523 OFFCURVE",
"647 529 OFFCURVE",
"653 558 CURVE SMOOTH",
"670 638 LINE SMOOTH",
"674 658 OFFCURVE",
"666 657 OFFCURVE",
"646 664 CURVE SMOOTH",
"619 674 OFFCURVE",
"561 678 OFFCURVE",
"504 678 CURVE SMOOTH",
"315 678 OFFCURVE",
"152 544 OFFCURVE",
"106 326 CURVE SMOOTH",
"59 109 OFFCURVE",
"155 -6 OFFCURVE",
"399 -6 CURVE SMOOTH",
"476 -6 OFFCURVE",
"539 5 OFFCURVE",
"546 34 CURVE SMOOTH"
);
}
);
width = 587;
}
);
note = G;
unicode = 0047;
},
{
glyphname = H;
lastChange = "2021-03-17 00:26:11 +0000";
layers = (
{
background = {
paths = (
{
closed = 1;
nodes = (
"102 0 OFFCURVE",
"110 0 OFFCURVE",
"119 0 CURVE SMOOTH",
"121 0 OFFCURVE",
"122 1 OFFCURVE",
"123 4 CURVE SMOOTH",
"132 131 OFFCURVE",
"167 282 OFFCURVE",
"175 316 CURVE SMOOTH",
"176 322 OFFCURVE",
"181 324 OFFCURVE",
"185 324 CURVE SMOOTH",
"304 324 OFFCURVE",
"424 324 OFFCURVE",
"543 324 CURVE SMOOTH",
"546 324 OFFCURVE",
"549 322 OFFCURVE",
"548 316 CURVE SMOOTH",
"543 288 OFFCURVE",
"514 132 OFFCURVE",
"469 4 CURVE SMOOTH",
"468 1 OFFCURVE",
"469 0 OFFCURVE",
"471 0 CURVE SMOOTH",
"480 0 OFFCURVE",
"488 0 OFFCURVE",
"497 0 CURVE SMOOTH",
"499 0 OFFCURVE",
"501 1 OFFCURVE",
"502 4 CURVE SMOOTH",
"524 70 OFFCURVE",
"558 202 OFFCURVE",
"586 334 CURVE SMOOTH",
"614 468 OFFCURVE",
"636 604 OFFCURVE",
"642 669 CURVE SMOOTH",
"643 671 OFFCURVE",
"640 673 OFFCURVE",
"639 673 CURVE SMOOTH",
"631 673 OFFCURVE",
"622 673 OFFCURVE",
"614 673 CURVE SMOOTH",
"612 673 OFFCURVE",
"611 671 OFFCURVE",
"609 670 CURVE SMOOTH",
"589 507 OFFCURVE",
"560 372 OFFCURVE",
"558 362 CURVE SMOOTH",
"556 354 OFFCURVE",
"552 354 OFFCURVE",
"549 354 CURVE SMOOTH",
"429 354 OFFCURVE",
"310 354 OFFCURVE",
"190 354 CURVE SMOOTH",
"187 354 OFFCURVE",
"184 355 OFFCURVE",
"186 362 CURVE SMOOTH",
"190 381 OFFCURVE",
"217 509 OFFCURVE",
"265 670 CURVE",
"265 671 OFFCURVE",
"264 673 OFFCURVE",
"262 673 CURVE SMOOTH",
"254 673 OFFCURVE",
"245 673 OFFCURVE",
"237 673 CURVE SMOOTH",
"236 673 OFFCURVE",
"233 671 OFFCURVE",
"232 669 CURVE SMOOTH",
"210 604 OFFCURVE",
"174 468 OFFCURVE",
"146 334 CURVE SMOOTH",
"118 202 OFFCURVE",
"96 70 OFFCURVE",
"90 4 CURVE SMOOTH",
"89 1 OFFCURVE",
"92 0 OFFCURVE",
"93 0 CURVE SMOOTH"
);
}
);
};
hints = (
{
horizontal = 1;
place = "{4, 21}";
target = up;
type = BottomGhost;
},
{
horizontal = 1;
place = "{324, 30}";
type = Stem;
},
{
horizontal = 1;
place = "{673, -20}";
target = down;
type = TopGhost;
},
{
place = "{89, 33}";
type = Stem;
},
{
place = "{448, 33}";
type = Stem;
}
);
layerId = "707362F1-A677-446A-8636-E10BE3A7FAFF";
paths = (
{
closed = 1;
nodes = (
"102 0 OFFCURVE",
"110 0 OFFCURVE",
"119 0 CURVE SMOOTH",
"121 0 OFFCURVE",
"122 1 OFFCURVE",
"123 4 CURVE SMOOTH",
"132 131 OFFCURVE",
"167 282 OFFCURVE",
"175 316 CURVE SMOOTH",
"176 322 OFFCURVE",
"181 324 OFFCURVE",
"185 324 CURVE SMOOTH",
"304 324 OFFCURVE",
"424 324 OFFCURVE",
"543 324 CURVE SMOOTH",
"546 324 OFFCURVE",
"549 322 OFFCURVE",
"548 316 CURVE SMOOTH",
"543 288 OFFCURVE",
"514 132 OFFCURVE",
"469 4 CURVE SMOOTH",
"468 1 OFFCURVE",
"469 0 OFFCURVE",
"471 0 CURVE SMOOTH",
"480 0 OFFCURVE",
"488 0 OFFCURVE",
"497 0 CURVE SMOOTH",
"499 0 OFFCURVE",
"501 1 OFFCURVE",
"502 4 CURVE SMOOTH",
"524 70 OFFCURVE",
"558 202 OFFCURVE",
"586 334 CURVE SMOOTH",
"614 468 OFFCURVE",
"636 604 OFFCURVE",
"642 669 CURVE SMOOTH",
"643 671 OFFCURVE",
"640 673 OFFCURVE",
"639 673 CURVE SMOOTH",
"631 673 OFFCURVE",
"622 673 OFFCURVE",
"614 673 CURVE SMOOTH",
"612 673 OFFCURVE",
"611 671 OFFCURVE",
"609 670 CURVE SMOOTH",
"589 507 OFFCURVE",
"560 372 OFFCURVE",
"558 362 CURVE SMOOTH",
"556 354 OFFCURVE",
"552 354 OFFCURVE",
"549 354 CURVE SMOOTH",
"429 354 OFFCURVE",
"310 354 OFFCURVE",
"190 354 CURVE SMOOTH",
"187 354 OFFCURVE",
"184 355 OFFCURVE",
"186 362 CURVE SMOOTH",
"190 381 OFFCURVE",
"220 521 OFFCURVE",
"265 669 CURVE SMOOTH",
"266 671 OFFCURVE",
"264 673 OFFCURVE",
"262 673 CURVE SMOOTH",
"254 673 OFFCURVE",
"245 673 OFFCURVE",
"237 673 CURVE SMOOTH",
"236 673 OFFCURVE",
"233 671 OFFCURVE",
"232 669 CURVE SMOOTH",
"210 604 OFFCURVE",
"174 468 OFFCURVE",
"146 334 CURVE SMOOTH",
"118 202 OFFCURVE",
"96 70 OFFCURVE",
"90 4 CURVE SMOOTH",
"89 1 OFFCURVE",
"92 0 OFFCURVE",
"93 0 CURVE SMOOTH"
);
}
);
width = 590;
},
{
layerId = "D1BC8BBB-1669-4C46-BC21-42BF6808B2B9";
paths = (
{
closed = 1;
nodes = (
"119 0 OFFCURVE",
"160 0 OFFCURVE",
"200 0 CURVE SMOOTH",
"207 0 OFFCURVE",
"209 4 OFFCURVE",
"210 14 CURVE SMOOTH",
"215 77 OFFCURVE",
"230 173 OFFCURVE",
"249 270 CURVE SMOOTH",
"252 281 OFFCURVE",
"253 282 OFFCURVE",
"265 282 CURVE SMOOTH",
"322 282 OFFCURVE",
"379 282 OFFCURVE",
"436 282 CURVE SMOOTH",
"448 282 OFFCURVE",
"450 281 OFFCURVE",
"447 270 CURVE SMOOTH",
"426 173 OFFCURVE",
"398 77 OFFCURVE",
"377 14 CURVE SMOOTH",
"374 4 OFFCURVE",
"374 0 OFFCURVE",
"381 0 CURVE SMOOTH",
"421 0 OFFCURVE",
"462 0 OFFCURVE",
"502 0 CURVE SMOOTH",
"513 0 OFFCURVE",
"524 1 OFFCURVE",
"528 14 CURVE SMOOTH",
"551 85 OFFCURVE",
"587 217 OFFCURVE",
"615 348 CURVE SMOOTH",
"641 468 OFFCURVE",
"662 587 OFFCURVE",
"662 658 CURVE",
"663 667 OFFCURVE",
"652 673 OFFCURVE",
"644 673 CURVE SMOOTH",
"604 673 OFFCURVE",
"563 673 OFFCURVE",
"523 673 CURVE SMOOTH",
"516 673 OFFCURVE",
"512 668 OFFCURVE",
"511 658 CURVE SMOOTH",
"507 612 OFFCURVE",
"493 511 OFFCURVE",
"477 412 CURVE SMOOTH",
"474 398 OFFCURVE",
"468 396 OFFCURVE",
"458 396 CURVE SMOOTH",
"403 396 OFFCURVE",
"347 396 OFFCURVE",
"292 396 CURVE SMOOTH",
"276 396 OFFCURVE",
"278 398 OFFCURVE",
"281 412 CURVE SMOOTH",
"306 511 OFFCURVE",
"334 612 OFFCURVE",
"350 658 CURVE SMOOTH",
"353 668 OFFCURVE",
"351 673 OFFCURVE",
"344 673 CURVE SMOOTH",
"304 673 OFFCURVE",
"263 673 OFFCURVE",
"223 673 CURVE SMOOTH",
"215 673 OFFCURVE",
"202 667 OFFCURVE",
"199 658 CURVE SMOOTH",
"169 587 OFFCURVE",
"140 470 OFFCURVE",
"115 351 CURVE SMOOTH",
"88 219 OFFCURVE",
"66 86 OFFCURVE",
"59 14 CURVE SMOOTH",
"57 1 OFFCURVE",
"69 0 OFFCURVE",
"79 0 CURVE SMOOTH"
);
}
);
width = 581;
}
);
note = H;
unicode = 0048;
},
{
glyphname = I;
lastChange = "2021-03-17 00:25:09 +0000";
layers = (
{
background = {
paths = (
{
closed = 1;
nodes = (
"255 669 LINE SMOOTH",
"256 671 OFFCURVE",
"254 673 OFFCURVE",
"252 673 CURVE SMOOTH",
"226 673 LINE SMOOTH",
"224 673 OFFCURVE",
"223 671 OFFCURVE",
"222 669 CURVE SMOOTH",
"81 4 LINE SMOOTH",
"80 1 OFFCURVE",
"81 0 OFFCURVE",
"83 0 CURVE SMOOTH",
"109 0 LINE SMOOTH",
"111 0 OFFCURVE",
"113 1 OFFCURVE",
"114 4 CURVE SMOOTH"
);
}
);
};
hints = (
{
horizontal = 1;
place = "{4, 21}";
target = up;
type = BottomGhost;
},
{
horizontal = 1;
place = "{673, -20}";
target = down;
type = TopGhost;
},
{
place = "{80, 33}";
type = Stem;
}
);
layerId = "707362F1-A677-446A-8636-E10BE3A7FAFF";
paths = (
{
closed = 1;
nodes = (
"255 669 LINE SMOOTH",
"256 671 OFFCURVE",
"254 673 OFFCURVE",
"252 673 CURVE SMOOTH",
"226 673 LINE SMOOTH",
"224 673 OFFCURVE",
"223 671 OFFCURVE",
"222 669 CURVE SMOOTH",
"81 4 LINE SMOOTH",
"80 1 OFFCURVE",
"81 0 OFFCURVE",
"83 0 CURVE SMOOTH",
"109 0 LINE SMOOTH",
"111 0 OFFCURVE",
"113 1 OFFCURVE",
"114 4 CURVE SMOOTH"
);
}
);
width = 193;
},
{
layerId = "D1BC8BBB-1669-4C46-BC21-42BF6808B2B9";
paths = (
{
closed = 1;
nodes = (
"341 658 LINE SMOOTH",
"343 667 OFFCURVE",
"337 673 OFFCURVE",
"329 673 CURVE SMOOTH",
"209 673 LINE SMOOTH",
"199 673 OFFCURVE",
"192 667 OFFCURVE",
"190 658 CURVE SMOOTH",
"53 14 LINE SMOOTH",
"51 6 OFFCURVE",
"56 0 OFFCURVE",
"66 0 CURVE SMOOTH",
"186 0 LINE SMOOTH",
"194 0 OFFCURVE",
"202 6 OFFCURVE",
"204 14 CURVE SMOOTH"
);
}
);
width = 251;
}
);
note = I;
unicode = 0049;
},
{
glyphname = J;
lastChange = "2021-03-17 00:25:09 +0000";
layers = (
{
background = {
paths = (
{
closed = 1;
nodes = (
"367 669 LINE SMOOTH",
"368 671 OFFCURVE",
"367 673 OFFCURVE",
"365 673 CURVE SMOOTH",
"339 673 LINE SMOOTH",
"336 673 OFFCURVE",
"335 671 OFFCURVE",
"334 669 CURVE SMOOTH",
"222 138 LINE SMOOTH",
"203 52 OFFCURVE",
"166 27 OFFCURVE",
"107 27 CURVE SMOOTH",
"83 27 OFFCURVE",
"58 27 OFFCURVE",
"34 27 CURVE SMOOTH",
"28 27 OFFCURVE",
"26 26 OFFCURVE",
"25 22 CURVE SMOOTH",
"21 4 LINE SMOOTH",
"20 1 OFFCURVE",
"21 0 OFFCURVE",
"26 0 CURVE SMOOTH",
"103 -1 LINE SMOOTH",
"192 -2 OFFCURVE",
"232 34 OFFCURVE",
"261 168 CURVE SMOOTH"
);
}
);
};
hints = (
{
horizontal = 1;
place = "{0, 27}";
type = Stem;
},
{
horizontal = 1;
place = "{673, -20}";
target = down;
type = TopGhost;
},
{
place = "{192, 33}";
type = Stem;
}
);
layerId = "707362F1-A677-446A-8636-E10BE3A7FAFF";
paths = (
{
closed = 1;
nodes = (
"367 669 LINE SMOOTH",
"368 671 OFFCURVE",
"367 673 OFFCURVE",
"365 673 CURVE SMOOTH",
"339 673 LINE SMOOTH",
"336 673 OFFCURVE",
"335 671 OFFCURVE",
"334 669 CURVE SMOOTH",
"222 138 LINE SMOOTH",
"203 52 OFFCURVE",
"166 27 OFFCURVE",
"107 27 CURVE SMOOTH",
"83 27 OFFCURVE",
"58 27 OFFCURVE",
"34 27 CURVE SMOOTH",
"28 27 OFFCURVE",
"26 26 OFFCURVE",
"25 22 CURVE SMOOTH",
"21 4 LINE SMOOTH",
"20 1 OFFCURVE",
"21 0 OFFCURVE",
"26 0 CURVE SMOOTH",
"103 -1 LINE SMOOTH",
"192 -2 OFFCURVE",
"232 34 OFFCURVE",
"261 168 CURVE SMOOTH"
);
}
);
width = 295;
},
{
layerId = "D1BC8BBB-1669-4C46-BC21-42BF6808B2B9";
paths = (
{
closed = 1;
nodes = (
"421 658 LINE SMOOTH",
"423 667 OFFCURVE",
"416 673 OFFCURVE",
"409 673 CURVE SMOOTH",
"287 673 LINE SMOOTH",
"279 673 OFFCURVE",
"272 667 OFFCURVE",
"270 658 CURVE SMOOTH",
"168 178 LINE SMOOTH",
"156 126 OFFCURVE",
"146 113 OFFCURVE",
"109 113 CURVE SMOOTH",
"95 113 OFFCURVE",
"60 116 OFFCURVE",
"45 117 CURVE SMOOTH",
"38 118 OFFCURVE",
"34 114 OFFCURVE",
"32 104 CURVE SMOOTH",
"14 19 LINE SMOOTH",
"11 4 OFFCURVE",
"36 0 OFFCURVE",
"50 0 CURVE SMOOTH",
"124 0 LINE SMOOTH",
"240 0 OFFCURVE",
"290 44 OFFCURVE",
"320 184 CURVE SMOOTH"
);
}
);
width = 321;
}
);
note = J;
unicode = 004A;
},
{
glyphname = K;
lastChange = "2021-03-17 00:25:09 +0000";
layers = (
{
background = {
paths = (
{
closed = 1;
nodes = (
"82 0 OFFCURVE",
"91 0 OFFCURVE",
"99 0 CURVE SMOOTH",
"102 0 OFFCURVE",
"103 1 OFFCURVE",
"104 4 CURVE SMOOTH",
"126 108 OFFCURVE",
"148 213 OFFCURVE",
"170 317 CURVE SMOOTH",
"172 324 OFFCURVE",
"179 324 OFFCURVE",
"179 324 CURVE",
"215 324 OFFCURVE",
"252 324 OFFCURVE",
"288 324 CURVE SMOOTH",
"292 324 OFFCURVE",
"298 323 OFFCURVE",
"297 313 CURVE SMOOTH",
"289 234 OFFCURVE",
"323 99 OFFCURVE",
"374 46 CURVE SMOOTH",
"401 18 OFFCURVE",
"438 0 OFFCURVE",
"487 0 CURVE SMOOTH",
"490 0 OFFCURVE",
"490 1 OFFCURVE",
"491 5 CURVE SMOOTH",
"495 24 LINE SMOOTH",
"496 26 OFFCURVE",
"491 28 OFFCURVE",
"488 28 CURVE SMOOTH",
"454 28 OFFCURVE",
"425 44 OFFCURVE",
"401 68 CURVE SMOOTH",
"356 119 OFFCURVE",
"320 247 OFFCURVE",
"331 327 CURVE SMOOTH",
"332 333 OFFCURVE",
"333 340 OFFCURVE",
"342 352 CURVE SMOOTH",
"418 458 OFFCURVE",
"495 563 OFFCURVE",
"571 669 CURVE",
"572 670 OFFCURVE",
"571 673 OFFCURVE",
"568 673 CURVE SMOOTH",
"559 673 OFFCURVE",
"551 673 OFFCURVE",
"542 673 CURVE SMOOTH",
"540 673 OFFCURVE",
"539 670 OFFCURVE",
"538 669 CURVE",
"464 567 OFFCURVE",
"390 465 OFFCURVE",
"315 363 CURVE",
"310 358 OFFCURVE",
"305 354 OFFCURVE",
"295 354 CURVE SMOOTH",
"185 354 LINE SMOOTH",
"178 354 OFFCURVE",
"179 358 OFFCURVE",
"180 362 CURVE SMOOTH",
"202 464 OFFCURVE",
"224 567 OFFCURVE",
"245 669 CURVE SMOOTH",
"246 671 OFFCURVE",
"245 673 OFFCURVE",
"242 673 CURVE SMOOTH",
"234 673 OFFCURVE",
"225 673 OFFCURVE",
"217 673 CURVE SMOOTH",
"214 673 OFFCURVE",
"213 671 OFFCURVE",
"212 669 CURVE SMOOTH",
"165 447 OFFCURVE",
"118 226 OFFCURVE",
"71 4 CURVE SMOOTH",
"70 1 OFFCURVE",
"71 0 OFFCURVE",
"74 0 CURVE SMOOTH"
);
}
);
};
hints = (
{
horizontal = 1;
place = "{0, 28}";
type = Stem;
},
{
horizontal = 1;
place = "{324, 30}";
type = Stem;
},
{
horizontal = 1;
place = "{673, -20}";
target = down;
type = TopGhost;
},
{
place = "{60, 33}";
type = Stem;
},
{
place = "{219, 32}";
type = Stem;
}
);
layerId = "707362F1-A677-446A-8636-E10BE3A7FAFF";
paths = (
{
closed = 1;
nodes = (
"82 0 OFFCURVE",
"91 0 OFFCURVE",
"99 0 CURVE SMOOTH",
"102 0 OFFCURVE",
"103 1 OFFCURVE",
"104 4 CURVE SMOOTH",
"126 108 OFFCURVE",
"148 213 OFFCURVE",
"170 317 CURVE SMOOTH",
"172 324 OFFCURVE",
"179 324 OFFCURVE",
"179 324 CURVE",
"215 324 OFFCURVE",
"252 324 OFFCURVE",
"288 324 CURVE SMOOTH",
"292 324 OFFCURVE",
"298 323 OFFCURVE",
"297 313 CURVE SMOOTH",
"289 234 OFFCURVE",
"323 99 OFFCURVE",
"374 46 CURVE SMOOTH",
"401 18 OFFCURVE",
"438 0 OFFCURVE",
"487 0 CURVE SMOOTH",
"490 0 OFFCURVE",
"490 1 OFFCURVE",
"491 5 CURVE SMOOTH",
"495 24 LINE SMOOTH",
"496 26 OFFCURVE",
"491 28 OFFCURVE",
"488 28 CURVE SMOOTH",
"454 28 OFFCURVE",
"425 44 OFFCURVE",
"401 68 CURVE SMOOTH",
"356 119 OFFCURVE",
"320 247 OFFCURVE",
"331 327 CURVE SMOOTH",
"332 333 OFFCURVE",
"333 340 OFFCURVE",
"342 352 CURVE SMOOTH",
"418 458 OFFCURVE",
"495 563 OFFCURVE",
"571 669 CURVE",
"572 670 OFFCURVE",
"571 673 OFFCURVE",
"568 673 CURVE SMOOTH",
"559 673 OFFCURVE",
"551 673 OFFCURVE",
"542 673 CURVE SMOOTH",
"540 673 OFFCURVE",
"539 670 OFFCURVE",
"538 669 CURVE",
"464 567 OFFCURVE",
"390 465 OFFCURVE",
"315 363 CURVE",
"310 358 OFFCURVE",
"305 354 OFFCURVE",
"295 354 CURVE SMOOTH",
"185 354 LINE SMOOTH",
"178 354 OFFCURVE",
"179 358 OFFCURVE",
"180 362 CURVE SMOOTH",
"202 464 OFFCURVE",
"224 567 OFFCURVE",
"245 669 CURVE SMOOTH",
"246 671 OFFCURVE",
"245 673 OFFCURVE",
"242 673 CURVE SMOOTH",
"234 673 OFFCURVE",
"225 673 OFFCURVE",
"217 673 CURVE SMOOTH",
"214 673 OFFCURVE",
"213 671 OFFCURVE",
"212 669 CURVE SMOOTH",
"165 447 OFFCURVE",
"118 226 OFFCURVE",
"71 4 CURVE SMOOTH",
"70 1 OFFCURVE",
"71 0 OFFCURVE",
"74 0 CURVE SMOOTH"
);
}
);
width = 510;
},
{
background = {
paths = (
{
closed = 1;
nodes = (
"95 0 OFFCURVE",
"136 0 OFFCURVE",
"176 0 CURVE SMOOTH",
"184 0 OFFCURVE",
"192 6 OFFCURVE",
"192 14 CURVE SMOOTH",
"192 84 OFFCURVE",
"192 154 OFFCURVE",
"192 224 CURVE SMOOTH",
"192 232 OFFCURVE",
"193 236 OFFCURVE",
"195 238 CURVE SMOOTH",
"197 239 OFFCURVE",
"200 238 OFFCURVE",
"203 235 CURVE SMOOTH",
"205 232 OFFCURVE",
"208 227 OFFCURVE",
"209 223 CURVE",
"238 135 OFFCURVE",
"293 61 OFFCURVE",
"368 24 CURVE SMOOTH",
"400 9 OFFCURVE",
"435 0 OFFCURVE",
"474 0 CURVE SMOOTH",
"530 0 OFFCURVE",
"530 1 OFFCURVE",
"530 13 CURVE SMOOTH",
"530 120 LINE SMOOTH",
"530 136 OFFCURVE",
"529 137 OFFCURVE",
"516 137 CURVE SMOOTH",
"401 137 OFFCURVE",
"335 278 OFFCURVE",
"335 337 CURVE SMOOTH",
"335 354 OFFCURVE",
"359 413 OFFCURVE",
"385 461 CURVE SMOOTH",
"418 519 OFFCURVE",
"451 576 OFFCURVE",
"484 634 CURVE SMOOTH",
"502 664 OFFCURVE",
"506 673 OFFCURVE",
"488 673 CURVE SMOOTH",
"442 673 OFFCURVE",
"397 673 OFFCURVE",
"351 673 CURVE SMOOTH",
"342 673 OFFCURVE",
"336 671 OFFCURVE",
"329 658 CURVE",
"329 658 OFFCURVE",
"261 531 OFFCURVE",
"209 437 CURVE",
"207 433 OFFCURVE",
"205 429 OFFCURVE",
"202 426 CURVE SMOOTH",
"197 421 OFFCURVE",
"192 419 OFFCURVE",
"192 427 CURVE SMOOTH",
"192 437 LINE",
"192 511 OFFCURVE",
"192 584 OFFCURVE",
"192 658 CURVE SMOOTH",
"192 667 OFFCURVE",
"184 673 OFFCURVE",
"176 673 CURVE SMOOTH",
"136 673 OFFCURVE",
"95 673 OFFCURVE",
"55 673 CURVE SMOOTH",
"47 673 OFFCURVE",
"40 667 OFFCURVE",
"40 658 CURVE SMOOTH",
"40 443 OFFCURVE",
"40 229 OFFCURVE",
"40 14 CURVE SMOOTH",
"40 6 OFFCURVE",
"47 0 OFFCURVE",
"55 0 CURVE SMOOTH"
);
}
);
};
layerId = "D1BC8BBB-1669-4C46-BC21-42BF6808B2B9";
paths = (
{
closed = 1;
nodes = (
"52 0 OFFCURVE",
"180 0 OFFCURVE",
"188 0 CURVE SMOOTH",
"191 0 OFFCURVE",
"192 1 OFFCURVE",
"193 4 CURVE SMOOTH",
"215 108 OFFCURVE",
"219 127 OFFCURVE",
"241 231 CURVE SMOOTH",
"243 238 OFFCURVE",
"246 238 OFFCURVE",
"246 238 CURVE",
"247 238 OFFCURVE",
"246 238 OFFCURVE",
"248 238 CURVE SMOOTH",
"249 238 OFFCURVE",
"255 233 OFFCURVE",
"256 223 CURVE SMOOTH",
"268 149 OFFCURVE",
"294 92 OFFCURVE",
"333 55 CURVE SMOOTH",
"382 9 OFFCURVE",
"435 0 OFFCURVE",
"527 0 CURVE SMOOTH",
"530 0 OFFCURVE",
"530 1 OFFCURVE",
"531 5 CURVE SMOOTH",
"558 133 LINE SMOOTH",
"559 135 OFFCURVE",
"554 137 OFFCURVE",
"551 137 CURVE SMOOTH",
"502 137 OFFCURVE",
"473 155 OFFCURVE",
"452 182 CURVE SMOOTH",
"418 223 OFFCURVE",
"397 285 OFFCURVE",
"408 337 CURVE SMOOTH",
"410 346 OFFCURVE",
"412 355 OFFCURVE",
"420 367 CURVE SMOOTH",
"488 473 OFFCURVE",
"543 542 OFFCURVE",
"621 634 CURVE",
"641 665 OFFCURVE",
"648 673 OFFCURVE",
"632 673 CURVE SMOOTH",
"623 673 OFFCURVE",
"502 673 OFFCURVE",
"493 673 CURVE SMOOTH",
"485 673 OFFCURVE",
"479 671 OFFCURVE",
"469 659 CURVE",
"394 557 OFFCURVE",
"374 535 OFFCURVE",
"299 433 CURVE",
"295 428 OFFCURVE",
"290 422 OFFCURVE",
"287 422 CURVE SMOOTH",
"285 422 LINE SMOOTH",
"282 422 OFFCURVE",
"283 426 OFFCURVE",
"283 430 CURVE SMOOTH",
"305 532 OFFCURVE",
"313 567 OFFCURVE",
"334 669 CURVE SMOOTH",
"335 671 OFFCURVE",
"334 673 OFFCURVE",
"331 673 CURVE SMOOTH",
"323 673 OFFCURVE",
"195 673 OFFCURVE",
"187 673 CURVE SMOOTH",
"184 673 OFFCURVE",
"183 671 OFFCURVE",
"182 669 CURVE SMOOTH",
"135 447 OFFCURVE",
"88 226 OFFCURVE",
"41 4 CURVE SMOOTH",
"40 1 OFFCURVE",
"41 0 OFFCURVE",
"44 0 CURVE SMOOTH"
);
}
);
width = 555;
}
);
note = K;
unicode = 004B;
},
{
glyphname = L;
lastChange = "2021-03-17 00:25:09 +0000";
layers = (
{
background = {
paths = (
{
closed = 1;
nodes = (
"386 0 LINE SMOOTH",
"389 0 OFFCURVE",
"390 1 OFFCURVE",
"391 4 CURVE SMOOTH",
"396 26 LINE SMOOTH",
"396 28 OFFCURVE",
"395 29 OFFCURVE",
"392 29 CURVE SMOOTH",
"126 29 LINE SMOOTH",
"119 29 OFFCURVE",
"120 32 OFFCURVE",
"121 38 CURVE SMOOTH",
"255 669 LINE SMOOTH",
"256 671 OFFCURVE",
"254 673 OFFCURVE",
"252 673 CURVE SMOOTH",
"226 673 LINE SMOOTH",
"224 673 OFFCURVE",
"223 671 OFFCURVE",
"222 669 CURVE SMOOTH",
"81 4 LINE SMOOTH",
"80 1 OFFCURVE",
"81 0 OFFCURVE",
"83 0 CURVE SMOOTH"
);
}
);
};
hints = (
{
horizontal = 1;
place = "{0, 29}";
type = Stem;
},
{
horizontal = 1;
place = "{673, -20}";
target = down;
type = TopGhost;
},
{
place = "{80, 33}";
type = Stem;
}
);
layerId = "707362F1-A677-446A-8636-E10BE3A7FAFF";
paths = (
{
closed = 1;
nodes = (
"386 0 LINE SMOOTH",
"389 0 OFFCURVE",
"390 1 OFFCURVE",
"391 4 CURVE SMOOTH",
"396 26 LINE SMOOTH",
"396 28 OFFCURVE",
"395 29 OFFCURVE",
"392 29 CURVE SMOOTH",
"126 29 LINE SMOOTH",
"119 29 OFFCURVE",
"120 32 OFFCURVE",
"121 38 CURVE SMOOTH",
"255 669 LINE SMOOTH",
"256 671 OFFCURVE",
"254 673 OFFCURVE",
"252 673 CURVE SMOOTH",
"226 673 LINE SMOOTH",
"224 673 OFFCURVE",
"223 671 OFFCURVE",
"222 669 CURVE SMOOTH",
"81 4 LINE SMOOTH",
"80 1 OFFCURVE",
"81 0 OFFCURVE",
"83 0 CURVE SMOOTH"
);
}
);
width = 425;
},
{
layerId = "D1BC8BBB-1669-4C46-BC21-42BF6808B2B9";
paths = (
{
closed = 1;
nodes = (
"391 0 LINE SMOOTH",
"412 0 OFFCURVE",
"413 0 OFFCURVE",
"418 22 CURVE SMOOTH",
"433 94 LINE SMOOTH",
"437 114 OFFCURVE",
"438 116 OFFCURVE",
"417 116 CURVE SMOOTH",
"225 116 LINE SMOOTH",
"216 116 OFFCURVE",
"216 117 OFFCURVE",
"218 125 CURVE SMOOTH",
"330 654 LINE SMOOTH",
"333 669 OFFCURVE",
"331 673 OFFCURVE",
"315 673 CURVE SMOOTH",
"199 673 LINE SMOOTH",
"189 673 OFFCURVE",
"182 667 OFFCURVE",
"180 658 CURVE SMOOTH",
"43 14 LINE SMOOTH",
"41 6 OFFCURVE",
"46 0 OFFCURVE",
"56 0 CURVE SMOOTH"
);
}
);
width = 433;
}
);
note = L;
unicode = 004C;
},
{
glyphname = M;
lastChange = "2021-03-17 00:25:09 +0000";
layers = (
{
background = {
paths = (
{
closed = 1;
nodes = (
"243 673 LINE SMOOTH",
"241 673 OFFCURVE",
"240 671 OFFCURVE",
"239 669 CURVE SMOOTH",
"195 533 OFFCURVE",
"115 257 OFFCURVE",
"61 4 CURVE SMOOTH",
"60 1 OFFCURVE",
"61 0 OFFCURVE",
"64 0 CURVE SMOOTH",
"89 0 LINE SMOOTH",
"91 0 OFFCURVE",
"93 1 OFFCURVE",
"94 4 CURVE SMOOTH",
"133 186 OFFCURVE",
"207 458 OFFCURVE",
"246 588 CURVE",
"249 595 OFFCURVE",
"258 595 OFFCURVE",
"261 588 CURVE SMOOTH",
"373 278 LINE SMOOTH",
"374 275 OFFCURVE",
"376 274 OFFCURVE",
"379 274 CURVE SMOOTH",
"401 274 LINE SMOOTH",
"405 274 OFFCURVE",
"408 276 OFFCURVE",
"411 280 CURVE SMOOTH",
"653 589 LINE SMOOTH",
"659 596 OFFCURVE",
"668 599 OFFCURVE",
"668 590 CURVE",
"655 464 OFFCURVE",
"605 160 OFFCURVE",
"573 8 CURVE SMOOTH",
"571 1 OFFCURVE",
"573 0 OFFCURVE",
"574 0 CURVE SMOOTH",
"600 0 LINE SMOOTH",
"603 0 OFFCURVE",
"604 1 OFFCURVE",
"605 4 CURVE SMOOTH",
"661 267 OFFCURVE",
"696 536 OFFCURVE",
"709 669 CURVE SMOOTH",
"710 671 OFFCURVE",
"709 673 OFFCURVE",
"707 673 CURVE SMOOTH",
"683 673 LINE SMOOTH",
"681 673 OFFCURVE",
"678 670 OFFCURVE",
"675 667 CURVE",
"406 321 LINE",
"402 314 OFFCURVE",
"397 315 OFFCURVE",
"395 321 CURVE SMOOTH",
"272 669 LINE",
"270 670 OFFCURVE",
"271 673 OFFCURVE",
"269 673 CURVE SMOOTH"
);
}
);
};
hints = (
{
horizontal = 1;
place = "{4, 21}";
target = up;
type = BottomGhost;
},
{
horizontal = 1;
place = "{274, 36}";
type = Stem;
},
{
horizontal = 1;
place = "{604, 69}";
type = Stem;
},
{
horizontal = 1;
place = "{673, -20}";
target = down;
type = TopGhost;
},
{
place = "{99, 33}";
type = Stem;
},
{
place = "{537, 33}";
type = Stem;
}
);
layerId = "707362F1-A677-446A-8636-E10BE3A7FAFF";
paths = (
{
closed = 1;
nodes = (
"243 673 LINE SMOOTH",
"241 673 OFFCURVE",
"240 671 OFFCURVE",
"239 669 CURVE SMOOTH",
"195 533 OFFCURVE",
"115 257 OFFCURVE",
"61 4 CURVE SMOOTH",
"60 1 OFFCURVE",
"61 0 OFFCURVE",
"64 0 CURVE SMOOTH",
"89 0 LINE SMOOTH",
"91 0 OFFCURVE",
"93 1 OFFCURVE",
"94 4 CURVE SMOOTH",
"133 186 OFFCURVE",
"207 458 OFFCURVE",
"246 588 CURVE",
"249 595 OFFCURVE",
"258 595 OFFCURVE",
"261 588 CURVE SMOOTH",
"373 278 LINE SMOOTH",
"374 275 OFFCURVE",
"376 274 OFFCURVE",
"379 274 CURVE SMOOTH",
"401 274 LINE SMOOTH",
"405 274 OFFCURVE",
"408 276 OFFCURVE",
"411 280 CURVE SMOOTH",
"653 589 LINE SMOOTH",
"659 596 OFFCURVE",
"668 599 OFFCURVE",
"668 590 CURVE",
"655 464 OFFCURVE",
"605 160 OFFCURVE",
"573 8 CURVE SMOOTH",
"571 1 OFFCURVE",
"573 0 OFFCURVE",
"574 0 CURVE SMOOTH",
"600 0 LINE SMOOTH",
"603 0 OFFCURVE",
"604 1 OFFCURVE",
"605 4 CURVE SMOOTH",
"661 267 OFFCURVE",
"696 536 OFFCURVE",
"709 669 CURVE SMOOTH",
"710 671 OFFCURVE",
"709 673 OFFCURVE",
"707 673 CURVE SMOOTH",
"683 673 LINE SMOOTH",
"681 673 OFFCURVE",
"678 670 OFFCURVE",
"675 667 CURVE",
"406 321 LINE",
"402 314 OFFCURVE",
"397 315 OFFCURVE",
"395 321 CURVE SMOOTH",
"272 669 LINE",
"270 670 OFFCURVE",
"271 673 OFFCURVE",
"269 673 CURVE SMOOTH"
);
}
);
width = 664;
},
{
background = {
paths = (
{
closed = 1;
nodes = (
"354 211 LINE SMOOTH",
"361 211 OFFCURVE",
"363 211 OFFCURVE",
"367 216 CURVE",
"463 367 LINE SMOOTH",
"466 371 OFFCURVE",
"470 378 OFFCURVE",
"472 362 CURVE SMOOTH",
"481 248 OFFCURVE",
"487 123 OFFCURVE",
"485 14 CURVE SMOOTH",
"485 4 OFFCURVE",
"486 0 OFFCURVE",
"493 0 CURVE SMOOTH",
"614 0 LINE SMOOTH",
"624 0 OFFCURVE",
"636 1 OFFCURVE",
"636 14 CURVE SMOOTH",
"638 198 OFFCURVE",
"620 493 OFFCURVE",
"594 658 CURVE SMOOTH",
"593 667 OFFCURVE",
"588 673 OFFCURVE",
"580 673 CURVE SMOOTH",
"510 673 LINE SMOOTH",
"496 673 OFFCURVE",
"493 673 OFFCURVE",
"487 662 CURVE SMOOTH",
"342 427 LINE SMOOTH",
"337 419 OFFCURVE",
"332 419 OFFCURVE",
"326 427 CURVE",
"184 662 LINE SMOOTH",
"177 673 OFFCURVE",
"173 673 OFFCURVE",
"160 673 CURVE SMOOTH",
"90 673 LINE SMOOTH",
"81 673 OFFCURVE",
"76 667 OFFCURVE",
"75 658 CURVE SMOOTH",
"49 493 OFFCURVE",
"31 198 OFFCURVE",
"35 14 CURVE SMOOTH",
"35 1 OFFCURVE",
"46 0 OFFCURVE",
"55 0 CURVE SMOOTH",
"177 0 LINE SMOOTH",
"185 0 OFFCURVE",
"186 4 OFFCURVE",
"186 14 CURVE SMOOTH",
"184 123 OFFCURVE",
"190 248 OFFCURVE",
"198 362 CURVE SMOOTH",
"199 378 OFFCURVE",
"204 371 OFFCURVE",
"206 367 CURVE SMOOTH",
"302 216 LINE SMOOTH",
"304 212 OFFCURVE",
"305 211 OFFCURVE",
"315 211 CURVE SMOOTH"
);
}
);
};
layerId = "D1BC8BBB-1669-4C46-BC21-42BF6808B2B9";
paths = (
{
closed = 1;
nodes = (
"233 673 LINE SMOOTH",
"222 673 OFFCURVE",
"219 668 OFFCURVE",
"215 658 CURVE SMOOTH",
"154 493 OFFCURVE",
"78 200 OFFCURVE",
"38 14 CURVE SMOOTH",
"35 1 OFFCURVE",
"46 0 OFFCURVE",
"54 0 CURVE SMOOTH",
"182 0 LINE SMOOTH",
"184 0 OFFCURVE",
"186 1 OFFCURVE",
"187 4 CURVE SMOOTH",
"226 186 OFFCURVE",
"242 247 OFFCURVE",
"276 362 CURVE",
"277 367 OFFCURVE",
"282 372 OFFCURVE",
"285 366 CURVE SMOOTH",
"349 215 LINE SMOOTH",
"350 212 OFFCURVE",
"352 211 OFFCURVE",
"355 211 CURVE SMOOTH",
"402 211 LINE SMOOTH",
"406 211 OFFCURVE",
"407 213 OFFCURVE",
"411 217 CURVE SMOOTH",
"541 367 LINE SMOOTH",
"546 373 OFFCURVE",
"551 376 OFFCURVE",
"551 367 CURVE",
"534 250 OFFCURVE",
"512 123 OFFCURVE",
"489 13 CURVE SMOOTH",
"487 6 OFFCURVE",
"492 0 OFFCURVE",
"493 0 CURVE SMOOTH",
"615 0 LINE SMOOTH",
"624 0 OFFCURVE",
"636 0 OFFCURVE",
"639 14 CURVE SMOOTH",
"678 197 OFFCURVE",
"724 493 OFFCURVE",
"734 658 CURVE SMOOTH",
"735 667 OFFCURVE",
"731 673 OFFCURVE",
"723 673 CURVE SMOOTH",
"653 673 LINE SMOOTH",
"639 673 OFFCURVE",
"636 673 OFFCURVE",
"628 662 CURVE",
"434 426 LINE",
"429 419 OFFCURVE",
"419 421 OFFCURVE",
"418 426 CURVE SMOOTH",
"326 662 LINE",
"323 671 OFFCURVE",
"318 673 OFFCURVE",
"304 673 CURVE SMOOTH"
);
}
);
width = 671;
}
);
note = M;
unicode = 004D;
},
{
glyphname = N;
lastChange = "2021-03-17 00:25:09 +0000";
layers = (
{
background = {
paths = (
{
closed = 1;
nodes = (
"248 668 LINE",
"247 671 OFFCURVE",
"246 673 OFFCURVE",
"244 673 CURVE SMOOTH",
"221 673 LINE SMOOTH",
"219 673 OFFCURVE",
"217 671 OFFCURVE",
"216 669 CURVE SMOOTH",
"172 540 OFFCURVE",
"84 139 OFFCURVE",
"73 4 CURVE SMOOTH",
"72 1 OFFCURVE",
"73 0 OFFCURVE",
"76 0 CURVE SMOOTH",
"101 0 LINE SMOOTH",
"104 0 OFFCURVE",
"105 1 OFFCURVE",
"106 6 CURVE",
"115 143 OFFCURVE",
"190 470 OFFCURVE",
"231 596 CURVE SMOOTH",
"233 602 OFFCURVE",
"239 602 OFFCURVE",
"240 597 CURVE",
"486 4 LINE",
"486 1 OFFCURVE",
"487 0 OFFCURVE",
"490 0 CURVE SMOOTH",
"510 0 LINE SMOOTH",
"513 0 OFFCURVE",
"516 1 OFFCURVE",
"517 4 CURVE SMOOTH",
"561 132 OFFCURVE",
"649 533 OFFCURVE",
"660 669 CURVE SMOOTH",
"661 671 OFFCURVE",
"660 673 OFFCURVE",
"657 673 CURVE SMOOTH",
"632 673 LINE SMOOTH",
"629 673 OFFCURVE",
"628 671 OFFCURVE",
"627 667 CURVE",
"618 531 OFFCURVE",
"545 208 OFFCURVE",
"504 80 CURVE SMOOTH",
"501 72 OFFCURVE",
"495 71 OFFCURVE",
"493 77 CURVE SMOOTH"
);
}
);
};
hints = (
{
horizontal = 1;
place = "{4, 21}";
target = up;
type = BottomGhost;
},
{
horizontal = 1;
place = "{673, -20}";
target = down;
type = TopGhost;
},
{
place = "{73, 33}";
type = Stem;
},
{
place = "{486, 33}";
type = Stem;
}
);
layerId = "707362F1-A677-446A-8636-E10BE3A7FAFF";
paths = (
{
closed = 1;
nodes = (
"248 668 LINE",
"247 671 OFFCURVE",
"246 673 OFFCURVE",
"244 673 CURVE SMOOTH",
"221 673 LINE SMOOTH",
"219 673 OFFCURVE",
"217 671 OFFCURVE",
"216 669 CURVE SMOOTH",
"172 540 OFFCURVE",
"84 139 OFFCURVE",
"73 4 CURVE SMOOTH",
"72 1 OFFCURVE",
"73 0 OFFCURVE",
"76 0 CURVE SMOOTH",
"101 0 LINE SMOOTH",
"104 0 OFFCURVE",
"105 1 OFFCURVE",
"106 6 CURVE",
"115 143 OFFCURVE",
"190 470 OFFCURVE",
"231 596 CURVE SMOOTH",
"233 602 OFFCURVE",
"239 602 OFFCURVE",
"240 597 CURVE",
"486 4 LINE",
"486 1 OFFCURVE",
"487 0 OFFCURVE",
"490 0 CURVE SMOOTH",
"510 0 LINE SMOOTH",
"513 0 OFFCURVE",
"516 1 OFFCURVE",
"517 4 CURVE SMOOTH",
"561 132 OFFCURVE",
"649 533 OFFCURVE",
"660 669 CURVE SMOOTH",
"661 671 OFFCURVE",
"660 673 OFFCURVE",
"657 673 CURVE SMOOTH",
"632 673 LINE SMOOTH",
"629 673 OFFCURVE",
"628 671 OFFCURVE",
"627 667 CURVE",
"618 531 OFFCURVE",
"545 208 OFFCURVE",
"504 80 CURVE SMOOTH",
"501 72 OFFCURVE",
"495 71 OFFCURVE",
"493 77 CURVE SMOOTH"
);
}
);
width = 590;
},
{
background = {
paths = (
{
closed = 1;
nodes = (
"192 369 OFFCURVE",
"194 373 OFFCURVE",
"200 363 CURVE SMOOTH",
"437 18 LINE SMOOTH",
"444 7 OFFCURVE",
"450 0 OFFCURVE",
"459 0 CURVE SMOOTH",
"533 0 LINE SMOOTH",
"544 0 OFFCURVE",
"554 1 OFFCURVE",
"555 14 CURVE SMOOTH",
"572 150 OFFCURVE",
"584 509 OFFCURVE",
"553 658 CURVE",
"552 667 OFFCURVE",
"541 673 OFFCURVE",
"532 673 CURVE SMOOTH",
"410 673 LINE SMOOTH",
"403 673 OFFCURVE",
"401 668 OFFCURVE",
"402 658 CURVE SMOOTH",
"408 612 OFFCURVE",
"416 511 OFFCURVE",
"420 412 CURVE",
"420 412 OFFCURVE",
"421 382 OFFCURVE",
"421 317 CURVE SMOOTH",
"421 294 OFFCURVE",
"410 309 OFFCURVE",
"407 315 CURVE",
"330 428 OFFCURVE",
"252 541 OFFCURVE",
"175 654 CURVE SMOOTH",
"168 664 OFFCURVE",
"161 673 OFFCURVE",
"153 673 CURVE SMOOTH",
"80 673 LINE SMOOTH",
"72 673 OFFCURVE",
"60 667 OFFCURVE",
"59 658 CURVE",
"28 509 OFFCURVE",
"41 150 OFFCURVE",
"56 14 CURVE SMOOTH",
"57 1 OFFCURVE",
"69 0 OFFCURVE",
"79 0 CURVE SMOOTH",
"200 0 LINE SMOOTH",
"207 0 OFFCURVE",
"208 4 OFFCURVE",
"207 14 CURVE SMOOTH",
"199 77 OFFCURVE",
"193 173 OFFCURVE",
"192 270 CURVE SMOOTH",
"192 301 OFFCURVE",
"192 332 OFFCURVE",
"192 363 CURVE SMOOTH"
);
}
);
};
layerId = "D1BC8BBB-1669-4C46-BC21-42BF6808B2B9";
paths = (
{
closed = 1;
nodes = (
"309 663 LINE",
"307 669 OFFCURVE",
"301 673 OFFCURVE",
"296 673 CURVE SMOOTH",
"223 673 LINE SMOOTH",
"215 673 OFFCURVE",
"203 667 OFFCURVE",
"199 658 CURVE SMOOTH",
"136 509 OFFCURVE",
"73 150 OFFCURVE",
"59 14 CURVE SMOOTH",
"57 1 OFFCURVE",
"69 0 OFFCURVE",
"79 0 CURVE SMOOTH",
"199 0 LINE SMOOTH",
"207 0 OFFCURVE",
"209 4 OFFCURVE",
"210 14 CURVE",
"216 85 OFFCURVE",
"230 173 OFFCURVE",
"269 363 CURVE SMOOTH",
"270 369 OFFCURVE",
"277 369 OFFCURVE",
"278 364 CURVE",
"441 18 LINE",
"445 7 OFFCURVE",
"450 0 OFFCURVE",
"456 0 CURVE SMOOTH",
"533 0 LINE SMOOTH",
"544 0 OFFCURVE",
"553 1 OFFCURVE",
"558 14 CURVE SMOOTH",
"604 150 OFFCURVE",
"692 509 OFFCURVE",
"693 658 CURVE SMOOTH",
"693 667 OFFCURVE",
"684 673 OFFCURVE",
"675 673 CURVE SMOOTH",
"552 673 LINE SMOOTH",
"546 673 OFFCURVE",
"543 668 OFFCURVE",
"542 658 CURVE",
"529 526 OFFCURVE",
"508 412 OFFCURVE",
"488 317 CURVE SMOOTH",
"487 309 OFFCURVE",
"477 309 OFFCURVE",
"474 315 CURVE SMOOTH"
);
}
);
width = 612;
}
);
note = N;
unicode = 004E;
},
{
glyphname = O;
lastChange = "2021-03-17 00:25:09 +0000";
layers = (
{
background = {
paths = (
{
closed = 1;
nodes = (
"85 110 OFFCURVE",
"113 -6 OFFCURVE",
"311 -6 CURVE SMOOTH",
"517 -6 OFFCURVE",
"590 110 OFFCURVE",
"637 334 CURVE SMOOTH",
"685 558 OFFCURVE",
"662 675 OFFCURVE",
"456 675 CURVE SMOOTH",
"258 675 OFFCURVE",
"180 558 OFFCURVE",
"132 334 CURVE SMOOTH"
);
},
{
closed = 1;
nodes = (
"217 575 OFFCURVE",
"298 644 OFFCURVE",
"448 644 CURVE SMOOTH",
"598 644 OFFCURVE",
"655 576 OFFCURVE",
"603 334 CURVE SMOOTH",
"552 92 OFFCURVE",
"467 27 OFFCURVE",
"317 27 CURVE SMOOTH",
"167 27 OFFCURVE",
"115 93 OFFCURVE",
"166 334 CURVE SMOOTH"
);
}
);
};
hints = (
{
horizontal = 1;
place = "{-5, 34}";
type = Stem;
},
{
horizontal = 1;
place = "{649, 29}";
type = Stem;
},
{
place = "{61, 35}";
type = Stem;
},
{
place = "{532, 35}";
type = Stem;
}
);
layerId = "707362F1-A677-446A-8636-E10BE3A7FAFF";
paths = (
{
closed = 1;
nodes = (
"85 110 OFFCURVE",
"113 -6 OFFCURVE",
"311 -6 CURVE SMOOTH",
"517 -6 OFFCURVE",
"590 110 OFFCURVE",
"637 334 CURVE SMOOTH",
"685 558 OFFCURVE",
"662 675 OFFCURVE",
"456 675 CURVE SMOOTH",
"258 675 OFFCURVE",
"180 558 OFFCURVE",
"132 334 CURVE SMOOTH"
);
},
{
closed = 1;
nodes = (
"217 575 OFFCURVE",
"298 644 OFFCURVE",
"448 644 CURVE SMOOTH",
"598 644 OFFCURVE",
"655 576 OFFCURVE",
"603 334 CURVE SMOOTH",
"552 92 OFFCURVE",
"467 27 OFFCURVE",
"317 27 CURVE SMOOTH",
"167 27 OFFCURVE",
"115 93 OFFCURVE",
"166 334 CURVE SMOOTH"
);
}
);
width = 625;
},
{
layerId = "D1BC8BBB-1669-4C46-BC21-42BF6808B2B9";
paths = (
{
closed = 1;
nodes = (
"62 116 OFFCURVE",
"94 -9 OFFCURVE",
"317 -9 CURVE SMOOTH",
"547 -9 OFFCURVE",
"627 116 OFFCURVE",
"673 334 CURVE SMOOTH",
"719 552 OFFCURVE",
"693 678 OFFCURVE",
"463 678 CURVE SMOOTH",
"240 678 OFFCURVE",
"154 552 OFFCURVE",
"108 334 CURVE SMOOTH"
);
},
{
closed = 1;
nodes = (
"303 511 OFFCURVE",
"349 557 OFFCURVE",
"435 557 CURVE SMOOTH",
"520 557 OFFCURVE",
"554 511 OFFCURVE",
"516 334 CURVE SMOOTH",
"478 157 OFFCURVE",
"426 114 OFFCURVE",
"341 114 CURVE SMOOTH",
"255 114 OFFCURVE",
"227 158 OFFCURVE",
"265 334 CURVE SMOOTH"
);
}
);
width = 635;
}
);
note = O;
unicode = 004F;
},
{
glyphname = P;
lastChange = "2021-03-17 00:25:09 +0000";
layers = (
{
background = {
paths = (
{
closed = 1;
nodes = (
"534 608 OFFCURVE",
"490 673 OFFCURVE",
"353 673 CURVE SMOOTH",
"217 673 LINE SMOOTH",
"214 673 OFFCURVE",
"213 671 OFFCURVE",
"212 669 CURVE SMOOTH",
"71 4 LINE SMOOTH",
"70 1 OFFCURVE",
"71 0 OFFCURVE",
"74 0 CURVE SMOOTH",
"99 0 LINE SMOOTH",
"102 0 OFFCURVE",
"103 1 OFFCURVE",
"104 4 CURVE SMOOTH",
"152 229 LINE SMOOTH",
"152 232 OFFCURVE",
"155 237 OFFCURVE",
"161 237 CURVE SMOOTH",
"271 237 LINE SMOOTH",
"391 237 OFFCURVE",
"477 340 OFFCURVE",
"504 466 CURVE SMOOTH"
);
},
{
closed = 1;
nodes = (
"238 634 LINE SMOOTH",
"239 641 OFFCURVE",
"241 643 OFFCURVE",
"248 643 CURVE SMOOTH",
"350 643 LINE SMOOTH",
"461 643 OFFCURVE",
"498 594 OFFCURVE",
"471 466 CURVE SMOOTH",
"445 342 OFFCURVE",
"374 267 OFFCURVE",
"273 267 CURVE SMOOTH",
"167 267 LINE SMOOTH",
"164 267 OFFCURVE",
"160 269 OFFCURVE",
"161 275 CURVE SMOOTH"
);
}
);
};
hints = (
{
horizontal = 1;
place = "{4, 21}";
target = up;
type = BottomGhost;
},
{
horizontal = 1;
place = "{237, 30}";
type = Stem;
},
{
horizontal = 1;
place = "{643, 30}";
type = Stem;
},
{
place = "{60, 33}";
type = Stem;
},
{
place = "{362, 33}";
type = Stem;
}
);
layerId = "707362F1-A677-446A-8636-E10BE3A7FAFF";
paths = (
{
closed = 1;
nodes = (
"534 608 OFFCURVE",
"490 673 OFFCURVE",
"353 673 CURVE SMOOTH",
"217 673 LINE SMOOTH",
"214 673 OFFCURVE",
"213 671 OFFCURVE",
"212 669 CURVE SMOOTH",
"71 4 LINE SMOOTH",
"70 1 OFFCURVE",
"71 0 OFFCURVE",
"74 0 CURVE SMOOTH",
"99 0 LINE SMOOTH",
"102 0 OFFCURVE",
"103 1 OFFCURVE",
"104 4 CURVE SMOOTH",
"152 229 LINE SMOOTH",
"152 232 OFFCURVE",
"155 237 OFFCURVE",
"161 237 CURVE SMOOTH",
"271 237 LINE SMOOTH",
"391 237 OFFCURVE",
"477 340 OFFCURVE",
"504 466 CURVE SMOOTH"
);
},
{
closed = 1;
nodes = (
"238 634 LINE SMOOTH",
"239 641 OFFCURVE",
"241 643 OFFCURVE",
"248 643 CURVE SMOOTH",
"350 643 LINE SMOOTH",
"461 643 OFFCURVE",
"498 594 OFFCURVE",
"471 466 CURVE SMOOTH",
"445 342 OFFCURVE",
"374 267 OFFCURVE",
"273 267 CURVE SMOOTH",
"167 267 LINE SMOOTH",
"164 267 OFFCURVE",
"160 269 OFFCURVE",
"161 275 CURVE SMOOTH"
);
}
);
width = 455;
},
{
layerId = "D1BC8BBB-1669-4C46-BC21-42BF6808B2B9";
paths = (
{
closed = 1;
nodes = (
"585 602 OFFCURVE",
"533 673 OFFCURVE",
"375 673 CURVE SMOOTH",
"198 673 LINE SMOOTH",
"190 673 OFFCURVE",
"182 667 OFFCURVE",
"180 658 CURVE SMOOTH",
"43 14 LINE SMOOTH",
"41 6 OFFCURVE",
"47 0 OFFCURVE",
"55 0 CURVE SMOOTH",
"176 0 LINE SMOOTH",
"185 0 OFFCURVE",
"193 6 OFFCURVE",
"195 14 CURVE SMOOTH",
"236 205 LINE SMOOTH",
"237 212 OFFCURVE",
"238 214 OFFCURVE",
"245 214 CURVE SMOOTH",
"288 214 LINE SMOOTH",
"429 214 OFFCURVE",
"526 324 OFFCURVE",
"553 453 CURVE SMOOTH"
);
},
{
closed = 1;
nodes = (
"311 560 LINE SMOOTH",
"313 569 OFFCURVE",
"314 569 OFFCURVE",
"320 569 CURVE SMOOTH",
"347 569 LINE SMOOTH",
"398 569 OFFCURVE",
"424 539 OFFCURVE",
"406 452 CURVE",
"389 371 OFFCURVE",
"348 323 OFFCURVE",
"297 323 CURVE SMOOTH",
"269 323 LINE SMOOTH",
"262 323 OFFCURVE",
"261 324 OFFCURVE",
"263 332 CURVE SMOOTH"
);
}
);
width = 482;
}
);
note = P;
unicode = 0050;
},
{
glyphname = Q;
lastChange = "2021-03-17 00:25:09 +0000";
layers = (
{
background = {
paths = (
{
closed = 1;
nodes = (
"128 127 OFFCURVE",
"149 12 OFFCURVE",
"307 -4 CURVE SMOOTH",
"314 -5 OFFCURVE",
"321 -6 OFFCURVE",
"329 -6 CURVE SMOOTH",
"335 -6 OFFCURVE",
"335 -11 OFFCURVE",
"335 -14 CURVE SMOOTH",
"310 -131 OFFCURVE",
"321 -191 OFFCURVE",
"455 -191 CURVE SMOOTH",
"469 -191 OFFCURVE",
"478 -191 OFFCURVE",
"481 -190 CURVE SMOOTH",
"486 -189 OFFCURVE",
"488 -186 OFFCURVE",
"489 -183 CURVE SMOOTH",
"492 -169 LINE SMOOTH",
"493 -165 OFFCURVE",
"491 -165 OFFCURVE",
"488 -165 CURVE SMOOTH",
"471 -165 LINE SMOOTH",
"349 -165 OFFCURVE",
"345 -120 OFFCURVE",
"368 -14 CURVE SMOOTH",
"369 -9 OFFCURVE",
"372 -6 OFFCURVE",
"377 -6 CURVE SMOOTH",
"385 -6 OFFCURVE",
"394 -5 OFFCURVE",
"402 -4 CURVE SMOOTH",
"568 15 OFFCURVE",
"633 130 OFFCURVE",
"677 334 CURVE SMOOTH",
"724 558 OFFCURVE",
"701 675 OFFCURVE",
"495 675 CURVE SMOOTH",
"297 675 OFFCURVE",
"219 558 OFFCURVE",
"172 334 CURVE SMOOTH"
);
},
{
closed = 1;
nodes = (
"257 575 OFFCURVE",
"337 644 OFFCURVE",
"487 644 CURVE SMOOTH",
"637 644 OFFCURVE",
"694 576 OFFCURVE",
"643 334 CURVE SMOOTH",
"591 92 OFFCURVE",
"506 27 OFFCURVE",
"356 27 CURVE SMOOTH",
"206 27 OFFCURVE",
"154 93 OFFCURVE",
"206 334 CURVE SMOOTH"
);
}
);
};
hints = (
{
horizontal = 1;
place = "{41, 70}";
type = Stem;
},
{
horizontal = 1;
place = "{689, 69}";
type = Stem;
},
{
place = "{101, 75}";
type = Stem;
},
{
place = "{572, 75}";
type = Stem;
},
{
horizontal = 1;
place = "{35, 74}";
type = Stem;
}
);
layerId = "707362F1-A677-446A-8636-E10BE3A7FAFF";
paths = (
{
closed = 1;
nodes = (
"128 127 OFFCURVE",
"149 12 OFFCURVE",
"307 -4 CURVE SMOOTH",
"314 -5 OFFCURVE",
"321 -6 OFFCURVE",
"329 -6 CURVE SMOOTH",
"335 -6 OFFCURVE",
"335 -11 OFFCURVE",
"335 -14 CURVE SMOOTH",
"310 -131 OFFCURVE",
"321 -191 OFFCURVE",
"455 -191 CURVE SMOOTH",
"469 -191 OFFCURVE",
"478 -191 OFFCURVE",
"481 -190 CURVE SMOOTH",
"486 -189 OFFCURVE",
"488 -186 OFFCURVE",
"489 -183 CURVE SMOOTH",
"492 -169 LINE SMOOTH",
"493 -165 OFFCURVE",
"491 -165 OFFCURVE",
"488 -165 CURVE SMOOTH",
"471 -165 LINE SMOOTH",
"349 -165 OFFCURVE",
"345 -120 OFFCURVE",
"368 -14 CURVE SMOOTH",
"369 -9 OFFCURVE",
"372 -6 OFFCURVE",
"377 -6 CURVE SMOOTH",
"385 -6 OFFCURVE",
"394 -5 OFFCURVE",
"402 -4 CURVE SMOOTH",
"568 15 OFFCURVE",
"633 130 OFFCURVE",
"677 334 CURVE SMOOTH",
"724 558 OFFCURVE",
"701 675 OFFCURVE",
"495 675 CURVE SMOOTH",
"297 675 OFFCURVE",
"219 558 OFFCURVE",
"172 334 CURVE SMOOTH"
);
},
{
closed = 1;
nodes = (
"257 575 OFFCURVE",
"337 644 OFFCURVE",
"487 644 CURVE SMOOTH",
"637 644 OFFCURVE",
"694 576 OFFCURVE",
"643 334 CURVE SMOOTH",
"591 92 OFFCURVE",
"506 27 OFFCURVE",
"356 27 CURVE SMOOTH",
"206 27 OFFCURVE",
"154 93 OFFCURVE",
"206 334 CURVE SMOOTH"
);
}
);
width = 625;
},
{
layerId = "D1BC8BBB-1669-4C46-BC21-42BF6808B2B9";
paths = (
{
closed = 1;
nodes = (
"113 164 OFFCURVE",
"122 54 OFFCURVE",
"227 11 CURVE SMOOTH",
"246 2 OFFCURVE",
"259 -1 OFFCURVE",
"269 -4 CURVE SMOOTH",
"278 -6 OFFCURVE",
"283 -6 OFFCURVE",
"280 -17 CURVE SMOOTH",
"265 -119 OFFCURVE",
"318 -178 OFFCURVE",
"463 -178 CURVE SMOOTH",
"481 -178 OFFCURVE",
"519 -177 OFFCURVE",
"526 -176 CURVE",
"540 -172 OFFCURVE",
"543 -171 OFFCURVE",
"547 -156 CURVE SMOOTH",
"562 -85 LINE SMOOTH",
"565 -72 OFFCURVE",
"561 -68 OFFCURVE",
"549 -68 CURVE SMOOTH",
"496 -68 LINE SMOOTH",
"458 -68 OFFCURVE",
"428 -57 OFFCURVE",
"437 -15 CURVE SMOOTH",
"438 -8 OFFCURVE",
"444 -6 OFFCURVE",
"451 -4 CURVE SMOOTH",
"462 -1 OFFCURVE",
"473 3 OFFCURVE",
"484 6 CURVE SMOOTH",
"620 47 OFFCURVE",
"677 160 OFFCURVE",
"713 332 CURVE SMOOTH",
"760 551 OFFCURVE",
"734 678 OFFCURVE",
"504 678 CURVE SMOOTH",
"281 678 OFFCURVE",
"195 551 OFFCURVE",
"148 332 CURVE SMOOTH"
);
},
{
closed = 1;
nodes = (
"343 511 OFFCURVE",
"390 557 OFFCURVE",
"476 557 CURVE SMOOTH",
"561 557 OFFCURVE",
"594 511 OFFCURVE",
"557 334 CURVE SMOOTH",
"519 157 OFFCURVE",
"467 114 OFFCURVE",
"382 114 CURVE SMOOTH",
"296 114 OFFCURVE",
"268 158 OFFCURVE",
"306 334 CURVE SMOOTH"
);
}
);
width = 645;
}
);
note = Q;
unicode = 0051;
},
{
glyphname = R;
lastChange = "2021-03-17 00:25:09 +0000";
layers = (
{
background = {
paths = (
{
closed = 1;
nodes = (
"99 0 LINE SMOOTH",
"102 0 OFFCURVE",
"103 1 OFFCURVE",
"104 4 CURVE SMOOTH",
"163 282 LINE SMOOTH",
"164 288 OFFCURVE",
"170 290 OFFCURVE",
"174 290 CURVE SMOOTH",
"285 290 LINE SMOOTH",
"301 290 OFFCURVE",
"302 286 OFFCURVE",
"301 278 CURVE SMOOTH",
"299 195 OFFCURVE",
"328 93 OFFCURVE",
"374 46 CURVE SMOOTH",
"401 18 OFFCURVE",
"438 0 OFFCURVE",
"487 0 CURVE SMOOTH",
"490 0 OFFCURVE",
"490 1 OFFCURVE",
"491 5 CURVE SMOOTH",
"495 24 LINE SMOOTH",
"496 26 OFFCURVE",
"491 28 OFFCURVE",
"488 28 CURVE SMOOTH",
"454 28 OFFCURVE",
"425 44 OFFCURVE",
"401 68 CURVE SMOOTH",
"359 112 OFFCURVE",
"332 204 OFFCURVE",
"335 282 CURVE SMOOTH",
"335 289 OFFCURVE",
"337 295 OFFCURVE",
"350 299 CURVE SMOOTH",
"437 321 OFFCURVE",
"489 393 OFFCURVE",
"509 490 CURVE SMOOTH",
"539 631 OFFCURVE",
"490 673 OFFCURVE",
"345 673 CURVE SMOOTH",
"217 673 LINE SMOOTH",
"214 673 OFFCURVE",
"213 671 OFFCURVE",
"212 669 CURVE SMOOTH",
"71 4 LINE SMOOTH",
"70 1 OFFCURVE",
"71 0 OFFCURVE",
"74 0 CURVE SMOOTH"
);
},
{
closed = 1;
nodes = (
"238 634 LINE SMOOTH",
"239 640 OFFCURVE",
"241 643 OFFCURVE",
"248 643 CURVE SMOOTH",
"338 643 LINE SMOOTH",
"461 643 OFFCURVE",
"503 617 OFFCURVE",
"476 490 CURVE SMOOTH",
"450 366 OFFCURVE",
"385 320 OFFCURVE",
"284 320 CURVE SMOOTH",
"179 320 LINE SMOOTH",
"176 320 OFFCURVE",
"171 322 OFFCURVE",
"173 328 CURVE SMOOTH"
);
}
);
};
hints = (
{
horizontal = 1;
place = "{0, 28}";
type = Stem;
},
{
horizontal = 1;
place = "{267, 29}";
type = Stem;
},
{
horizontal = 1;
place = "{643, 30}";
type = Stem;
},
{
place = "{60, 33}";
type = Stem;
},
{
place = "{362, 33}";
type = Stem;
}
);
layerId = "707362F1-A677-446A-8636-E10BE3A7FAFF";
paths = (
{
closed = 1;
nodes = (
"99 0 LINE SMOOTH",
"102 0 OFFCURVE",
"103 1 OFFCURVE",
"104 4 CURVE SMOOTH",
"163 282 LINE SMOOTH",
"164 288 OFFCURVE",
"170 290 OFFCURVE",
"174 290 CURVE SMOOTH",
"285 290 LINE SMOOTH",
"301 290 OFFCURVE",
"302 286 OFFCURVE",
"301 278 CURVE SMOOTH",
"299 195 OFFCURVE",
"328 93 OFFCURVE",
"374 46 CURVE SMOOTH",
"401 18 OFFCURVE",
"438 0 OFFCURVE",
"487 0 CURVE SMOOTH",
"490 0 OFFCURVE",
"490 1 OFFCURVE",
"491 5 CURVE SMOOTH",
"495 24 LINE SMOOTH",
"496 26 OFFCURVE",
"491 28 OFFCURVE",
"488 28 CURVE SMOOTH",
"454 28 OFFCURVE",
"425 44 OFFCURVE",
"401 68 CURVE SMOOTH",
"359 112 OFFCURVE",
"332 204 OFFCURVE",
"335 282 CURVE SMOOTH",
"335 289 OFFCURVE",
"337 295 OFFCURVE",
"350 299 CURVE SMOOTH",
"437 321 OFFCURVE",
"489 393 OFFCURVE",
"509 490 CURVE SMOOTH",
"539 631 OFFCURVE",
"490 673 OFFCURVE",
"345 673 CURVE SMOOTH",
"217 673 LINE SMOOTH",
"214 673 OFFCURVE",
"213 671 OFFCURVE",
"212 669 CURVE SMOOTH",
"71 4 LINE SMOOTH",
"70 1 OFFCURVE",
"71 0 OFFCURVE",
"74 0 CURVE SMOOTH"
);
},
{
closed = 1;
nodes = (
"238 634 LINE SMOOTH",
"239 640 OFFCURVE",
"241 643 OFFCURVE",
"248 643 CURVE SMOOTH",
"338 643 LINE SMOOTH",
"461 643 OFFCURVE",
"503 617 OFFCURVE",
"476 490 CURVE SMOOTH",
"450 366 OFFCURVE",
"385 320 OFFCURVE",
"284 320 CURVE SMOOTH",
"179 320 LINE SMOOTH",
"176 320 OFFCURVE",
"171 322 OFFCURVE",
"173 328 CURVE SMOOTH"
);
}
);
width = 530;
},
{
layerId = "D1BC8BBB-1669-4C46-BC21-42BF6808B2B9";
paths = (
{
closed = 1;
nodes = (
"171 0 LINE SMOOTH",
"180 0 OFFCURVE",
"188 6 OFFCURVE",
"190 14 CURVE SMOOTH",
"231 206 LINE SMOOTH",
"233 218 OFFCURVE",
"235 222 OFFCURVE",
"239 222 CURVE",
"245 222 LINE",
"250 222 OFFCURVE",
"252 203 OFFCURVE",
"253 200 CURVE SMOOTH",
"263 136 OFFCURVE",
"287 81 OFFCURVE",
"329 45 CURVE SMOOTH",
"362 17 OFFCURVE",
"405 0 OFFCURVE",
"461 0 CURVE SMOOTH",
"517 0 OFFCURVE",
"517 1 OFFCURVE",
"520 13 CURVE SMOOTH",
"543 120 LINE SMOOTH",
"546 136 OFFCURVE",
"545 137 OFFCURVE",
"531 137 CURVE SMOOTH",
"495 137 OFFCURVE",
"472 144 OFFCURVE",
"455 156 CURVE SMOOTH",
"432 171 OFFCURVE",
"421 195 OFFCURVE",
"411 224 CURVE SMOOTH",
"398 251 OFFCURVE",
"416 264 OFFCURVE",
"440 284 CURVE SMOOTH",
"499 328 OFFCURVE",
"536 393 OFFCURVE",
"550 460 CURVE SMOOTH",
"583 615 OFFCURVE",
"528 673 OFFCURVE",
"370 673 CURVE SMOOTH",
"193 673 LINE SMOOTH",
"185 673 OFFCURVE",
"177 667 OFFCURVE",
"175 658 CURVE SMOOTH",
"38 14 LINE SMOOTH",
"36 6 OFFCURVE",
"42 0 OFFCURVE",
"50 0 CURVE SMOOTH"
);
},
{
closed = 1;
nodes = (
"306 560 LINE SMOOTH",
"308 569 OFFCURVE",
"309 569 OFFCURVE",
"315 569 CURVE SMOOTH",
"342 569 LINE SMOOTH",
"392 569 OFFCURVE",
"421 551 OFFCURVE",
"402 459 CURVE SMOOTH",
"387 389 OFFCURVE",
"346 342 OFFCURVE",
"295 342 CURVE SMOOTH",
"268 342 LINE SMOOTH",
"261 342 OFFCURVE",
"260 343 OFFCURVE",
"261 350 CURVE SMOOTH"
);
}
);
width = 537;
}
);
note = R;
unicode = 0052;
},
{
glyphname = S;
lastChange = "2021-03-17 00:25:09 +0000";
layers = (
{
background = {
paths = (
{
closed = 1;
nodes = (
"83 17 OFFCURVE",
"84 15 OFFCURVE",
"85 15 CURVE",
"124 1 OFFCURVE",
"176 -9 OFFCURVE",
"212 -9 CURVE SMOOTH",
"339 -9 OFFCURVE",
"423 66 OFFCURVE",
"448 186 CURVE SMOOTH",
"479 328 OFFCURVE",
"396 350 OFFCURVE",
"319 372 CURVE SMOOTH",
"249 391 OFFCURVE",
"182 409 OFFCURVE",
"204 512 CURVE SMOOTH",
"223 602 OFFCURVE",
"298 648 OFFCURVE",
"390 648 CURVE SMOOTH",
"413 648 OFFCURVE",
"480 636 OFFCURVE",
"512 622 CURVE SMOOTH",
"515 621 OFFCURVE",
"520 621 OFFCURVE",
"521 625 CURVE SMOOTH",
"525 645 LINE SMOOTH",
"526 649 OFFCURVE",
"522 651 OFFCURVE",
"520 653 CURVE",
"485 669 OFFCURVE",
"417 677 OFFCURVE",
"396 677 CURVE SMOOTH",
"292 677 OFFCURVE",
"195 627 OFFCURVE",
"171 512 CURVE SMOOTH",
"142 379 OFFCURVE",
"228 362 OFFCURVE",
"306 340 CURVE SMOOTH",
"375 321 OFFCURVE",
"439 297 OFFCURVE",
"415 186 CURVE SMOOTH",
"394 83 OFFCURVE",
"326 20 OFFCURVE",
"218 20 CURVE SMOOTH",
"181 20 OFFCURVE",
"133 33 OFFCURVE",
"96 47 CURVE",
"95 47 OFFCURVE",
"90 51 OFFCURVE",
"89 46 CURVE SMOOTH",
"83 20 LINE SMOOTH"
);
}
);
};
hints = (
{
horizontal = 1;
place = "{-4, 33}";
type = Stem;
},
{
horizontal = 1;
place = "{650, 32}";
type = Stem;
},
{
place = "{63, 35}";
type = Stem;
},
{
place = "{344, 35}";
type = Stem;
}
);
layerId = "707362F1-A677-446A-8636-E10BE3A7FAFF";
paths = (
{
closed = 1;
nodes = (
"83 17 OFFCURVE",
"84 15 OFFCURVE",
"85 15 CURVE",
"124 1 OFFCURVE",
"176 -9 OFFCURVE",
"212 -9 CURVE SMOOTH",
"339 -9 OFFCURVE",
"423 66 OFFCURVE",
"448 186 CURVE SMOOTH",
"479 328 OFFCURVE",
"396 350 OFFCURVE",
"319 372 CURVE SMOOTH",
"249 391 OFFCURVE",
"182 409 OFFCURVE",
"204 512 CURVE SMOOTH",
"223 602 OFFCURVE",
"298 648 OFFCURVE",
"390 648 CURVE SMOOTH",
"413 648 OFFCURVE",
"480 636 OFFCURVE",
"512 622 CURVE SMOOTH",
"515 621 OFFCURVE",
"520 621 OFFCURVE",
"521 625 CURVE SMOOTH",
"525 645 LINE SMOOTH",
"526 649 OFFCURVE",
"522 651 OFFCURVE",
"520 653 CURVE",
"485 669 OFFCURVE",
"417 677 OFFCURVE",
"396 677 CURVE SMOOTH",
"292 677 OFFCURVE",
"195 627 OFFCURVE",
"171 512 CURVE SMOOTH",
"142 379 OFFCURVE",
"228 362 OFFCURVE",
"306 340 CURVE SMOOTH",
"375 321 OFFCURVE",
"439 297 OFFCURVE",
"415 186 CURVE SMOOTH",
"394 83 OFFCURVE",
"326 20 OFFCURVE",
"218 20 CURVE SMOOTH",
"181 20 OFFCURVE",
"133 33 OFFCURVE",
"96 47 CURVE",
"95 47 OFFCURVE",
"90 51 OFFCURVE",
"89 46 CURVE SMOOTH",
"83 20 LINE SMOOTH"
);
}
);
width = 467;
},
{
background = {
paths = (
{
closed = 1;
nodes = (
"386 645 LINE SMOOTH",
"386 649 OFFCURVE",
"382 651 OFFCURVE",
"379 653 CURVE",
"341 669 OFFCURVE",
"271 677 OFFCURVE",
"250 677 CURVE SMOOTH",
"146 677 OFFCURVE",
"60 627 OFFCURVE",
"60 512 CURVE SMOOTH",
"60 261 OFFCURVE",
"374 424 OFFCURVE",
"374 186 CURVE SMOOTH",
"374 83 OFFCURVE",
"320 20 OFFCURVE",
"212 20 CURVE SMOOTH",
"175 20 OFFCURVE",
"124 33 OFFCURVE",
"84 47 CURVE",
"83 47 OFFCURVE",
"77 51 OFFCURVE",
"77 46 CURVE SMOOTH",
"77 20 LINE SMOOTH",
"77 17 OFFCURVE",
"79 15 OFFCURVE",
"80 15 CURVE",
"122 1 OFFCURVE",
"176 -9 OFFCURVE",
"212 -9 CURVE SMOOTH",
"339 -9 OFFCURVE",
"407 66 OFFCURVE",
"407 186 CURVE SMOOTH",
"407 455 OFFCURVE",
"93 295 OFFCURVE",
"93 512 CURVE SMOOTH",
"93 602 OFFCURVE",
"158 648 OFFCURVE",
"250 648 CURVE SMOOTH",
"273 648 OFFCURVE",
"343 636 OFFCURVE",
"378 622 CURVE SMOOTH",
"381 621 OFFCURVE",
"386 621 OFFCURVE",
"386 625 CURVE SMOOTH"
);
}
);
};
layerId = "D1BC8BBB-1669-4C46-BC21-42BF6808B2B9";
paths = (
{
closed = 1;
nodes = (
"54 27 OFFCURVE",
"59 22 OFFCURVE",
"79 15 CURVE SMOOTH",
"118 0 OFFCURVE",
"174 -8 OFFCURVE",
"216 -8 CURVE SMOOTH",
"360 -8 OFFCURVE",
"483 58 OFFCURVE",
"515 210 CURVE SMOOTH",
"537 313 OFFCURVE",
"509 363 OFFCURVE",
"441 389 CURVE SMOOTH",
"385 412 OFFCURVE",
"273 417 OFFCURVE",
"291 498 CURVE SMOOTH",
"298 531 OFFCURVE",
"339 564 OFFCURVE",
"391 564 CURVE SMOOTH",
"437 564 OFFCURVE",
"474 549 OFFCURVE",
"498 532 CURVE SMOOTH",
"521 517 OFFCURVE",
"533 523 OFFCURVE",
"537 542 CURVE SMOOTH",
"555 628 LINE SMOOTH",
"557 637 OFFCURVE",
"557 642 OFFCURVE",
"546 645 CURVE",
"510 663 OFFCURVE",
"444 678 OFFCURVE",
"403 678 CURVE SMOOTH",
"287 678 OFFCURVE",
"164 623 OFFCURVE",
"135 484 CURVE SMOOTH",
"103 334 OFFCURVE",
"220 302 OFFCURVE",
"279 286 CURVE SMOOTH",
"329 271 OFFCURVE",
"363 241 OFFCURVE",
"354 197 CURVE SMOOTH",
"345 155 OFFCURVE",
"303 114 OFFCURVE",
"240 114 CURVE SMOOTH",
"207 114 OFFCURVE",
"137 124 OFFCURVE",
"101 137 CURVE SMOOTH",
"85 144 OFFCURVE",
"79 143 OFFCURVE",
"77 133 CURVE SMOOTH",
"57 40 LINE SMOOTH"
);
}
);
width = 499;
}
);
note = S;
unicode = 0053;
},
{
glyphname = T;
lastChange = "2021-03-17 00:25:09 +0000";
layers = (
{
background = {
paths = (
{
closed = 1;
nodes = (
"239 0 LINE SMOOTH",
"241 0 OFFCURVE",
"242 1 OFFCURVE",
"243 4 CURVE SMOOTH",
"377 634 LINE SMOOTH",
"378 641 OFFCURVE",
"382 643 OFFCURVE",
"389 643 CURVE SMOOTH",
"547 643 LINE SMOOTH",
"548 643 OFFCURVE",
"550 644 OFFCURVE",
"551 647 CURVE SMOOTH",
"555 669 LINE SMOOTH",
"556 671 OFFCURVE",
"555 673 OFFCURVE",
"553 673 CURVE SMOOTH",
"186 673 LINE",
"186 673 OFFCURVE",
"183 671 OFFCURVE",
"182 669 CURVE SMOOTH",
"178 647 LINE SMOOTH",
"177 644 OFFCURVE",
"180 643 OFFCURVE",
"180 643 CURVE",
"338 643 LINE SMOOTH",
"345 643 OFFCURVE",
"345 638 OFFCURVE",
"344 635 CURVE SMOOTH",
"210 4 LINE SMOOTH",
"209 1 OFFCURVE",
"210 0 OFFCURVE",
"213 0 CURVE SMOOTH"
);
}
);
};
hints = (
{
horizontal = 1;
place = "{4, 21}";
target = up;
type = BottomGhost;
},
{
horizontal = 1;
place = "{643, 30}";
type = Stem;
},
{
place = "{204, 33}";
type = Stem;
}
);
layerId = "707362F1-A677-446A-8636-E10BE3A7FAFF";
paths = (
{
closed = 1;
nodes = (
"239 0 LINE SMOOTH",
"241 0 OFFCURVE",
"242 1 OFFCURVE",
"243 4 CURVE SMOOTH",
"377 634 LINE SMOOTH",
"378 641 OFFCURVE",
"382 643 OFFCURVE",
"389 643 CURVE SMOOTH",
"547 643 LINE SMOOTH",
"548 643 OFFCURVE",
"550 644 OFFCURVE",
"551 647 CURVE SMOOTH",
"555 669 LINE SMOOTH",
"556 671 OFFCURVE",
"555 673 OFFCURVE",
"553 673 CURVE SMOOTH",
"186 673 LINE",
"186 673 OFFCURVE",
"183 671 OFFCURVE",
"182 669 CURVE SMOOTH",
"178 647 LINE SMOOTH",
"177 644 OFFCURVE",
"180 643 OFFCURVE",
"180 643 CURVE",
"338 643 LINE SMOOTH",
"345 643 OFFCURVE",
"345 638 OFFCURVE",
"344 635 CURVE SMOOTH",
"210 4 LINE SMOOTH",
"209 1 OFFCURVE",
"210 0 OFFCURVE",
"213 0 CURVE SMOOTH"
);
}
);
width = 453;
},
{
layerId = "D1BC8BBB-1669-4C46-BC21-42BF6808B2B9";
paths = (
{
closed = 1;
nodes = (
"296 0 LINE SMOOTH",
"304 0 OFFCURVE",
"311 6 OFFCURVE",
"313 14 CURVE SMOOTH",
"427 550 LINE SMOOTH",
"428 557 OFFCURVE",
"428 557 OFFCURVE",
"436 557 CURVE SMOOTH",
"550 557 LINE SMOOTH",
"567 557 OFFCURVE",
"570 559 OFFCURVE",
"572 571 CURVE SMOOTH",
"591 660 LINE SMOOTH",
"594 671 OFFCURVE",
"592 673 OFFCURVE",
"576 673 CURVE SMOOTH",
"179 673 LINE SMOOTH",
"164 673 OFFCURVE",
"163 671 OFFCURVE",
"160 660 CURVE SMOOTH",
"141 571 LINE SMOOTH",
"139 559 OFFCURVE",
"139 557 OFFCURVE",
"156 557 CURVE SMOOTH",
"270 557 LINE SMOOTH",
"277 557 OFFCURVE",
"277 556 OFFCURVE",
"276 550 CURVE SMOOTH",
"162 14 LINE SMOOTH",
"160 6 OFFCURVE",
"167 0 OFFCURVE",
"174 0 CURVE SMOOTH"
);
}
);
width = 471;
}
);
note = T;
unicode = 0054;
},
